<?xml version="1.0" encoding="UTF-8"?>
<!-- Generator: visioncortex VTracer 0.6.3 -->
<svg version="1.1" xmlns="http://www.w3.org/2000/svg" width="1280" height="1280">
<path d="M0 0 C4.66 2.56 9.26 4.72 14.22 6.6 C20.15 9 25.77 12.09 31.45 15.02 C35.33 16.99 39.15 18.84 43.25 20.31 C46.75 21.62 46.75 21.62 48.75 23.62 C50.19 24.26 51.65 24.83 53.12 25.38 C58.26 27.36 63.1 29.75 68 32.25 C70.15 33.32 72.28 34.33 74.5 35.25 C76.93 36.28 79.22 37.36 81.56 38.56 C86.16 40.9 90.94 42.77 95.75 44.62 C95.75 45.28 95.75 45.94 95.75 46.62 C96.46 46.73 97.17 46.84 97.89 46.95 C101.08 47.7 103.55 48.91 106.44 50.44 C110.18 52.36 113.87 54.13 117.81 55.62 C122.47 57.41 126.69 59.75 131.04 62.19 C134.32 63.93 137.68 65.24 141.15 66.57 C147.07 68.98 152.7 72.06 158.38 74.98 C162.43 77.04 166.44 78.94 170.69 80.56 C174.39 81.99 177.79 83.68 181.25 85.62 C185.46 87.99 189.65 89.85 194.15 91.57 C199.16 93.61 203.94 96.16 208.75 98.62 C214.36 101.47 219.96 104.16 225.75 106.62 C227.57 107.55 229.38 108.47 231.2 109.4 C234.61 111.04 238.08 112.51 241.56 114 C247.31 116.47 252.77 119.2 258.22 122.28 C262.26 124.43 266.48 126.02 270.75 127.62 C272.42 128.29 274.08 128.95 275.75 129.62 C275.75 130.28 275.75 130.94 275.75 131.62 C276.46 131.73 277.17 131.84 277.89 131.95 C281.08 132.7 283.55 133.91 286.44 135.44 C290.18 137.36 293.87 139.13 297.81 140.62 C302.47 142.41 306.69 144.75 311.04 147.19 C314.32 148.93 317.68 150.24 321.15 151.57 C327.07 153.98 332.7 157.06 338.38 159.98 C342.43 162.04 346.44 163.94 350.69 165.56 C355.43 167.4 359.74 169.77 364.18 172.26 C366.3 173.39 368.29 174.28 370.56 175.06 C374.84 176.56 378.8 178.6 382.84 180.65 C388.78 183.67 394.81 186.51 400.84 189.35 C405.37 191.48 409.85 193.67 414.31 195.94 C417.76 197.69 421.2 199.24 424.81 200.62 C428.48 202.03 431.83 203.71 435.25 205.62 C440.27 208.44 445.37 210.61 450.75 212.62 C452.42 213.29 454.08 213.95 455.75 214.62 C455.75 215.28 455.75 215.94 455.75 216.62 C457.4 216.96 459.05 217.28 460.75 217.62 C460.62 219.94 460.62 219.94 459.75 222.62 C456.54 224.65 454.56 225.62 450.75 225.62 C450.75 226.28 450.75 226.94 450.75 227.62 C449.86 228.06 448.96 228.5 448.04 228.95 C441.59 232.11 435.34 235.39 429.22 239.17 C426.56 240.74 423.84 242.09 421.06 243.44 C415.51 246.15 410.26 249.23 405 252.47 C394.96 258.62 394.96 258.62 390.75 258.62 C390.75 259.29 390.75 259.94 390.75 260.62 C389.64 261.17 389.64 261.17 388.51 261.73 C379.72 266.08 371.1 270.68 362.61 275.59 C362.01 275.93 361.42 276.27 360.81 276.62 C360.22 276.97 359.62 277.31 359.01 277.67 C355.34 279.77 351.62 281.71 347.81 283.56 C342.35 286.23 337.18 289.28 332 292.47 C321.97 298.62 321.97 298.62 317.75 298.62 C317.75 299.29 317.75 299.94 317.75 300.62 C316.64 301.17 316.64 301.17 315.51 301.73 C306.72 306.08 298.1 310.68 289.61 315.59 C289.01 315.93 288.42 316.27 287.81 316.62 C287.22 316.97 286.62 317.31 286.01 317.67 C282.34 319.77 278.62 321.71 274.81 323.56 C269.46 326.18 264.42 329.18 259.34 332.29 C254.41 335.29 249.35 337.93 244.14 340.43 C241.58 341.65 241.58 341.65 238.75 343.62 C237.76 343.62 236.77 343.62 235.75 343.62 C235.75 344.29 235.75 344.94 235.75 345.62 C234.64 346.17 234.64 346.17 233.51 346.73 C224.72 351.08 216.1 355.68 207.61 360.59 C207.01 360.93 206.42 361.27 205.81 361.62 C205.22 361.97 204.62 362.31 204.01 362.67 C200.34 364.77 196.62 366.71 192.81 368.56 C187.35 371.23 182.18 374.28 177 377.47 C166.97 383.62 166.97 383.62 162.75 383.62 C162.75 384.29 162.75 384.94 162.75 385.62 C161.39 386.3 161.39 386.3 160 386.98 C152.03 390.93 144.21 395.04 136.51 399.5 C131.01 402.68 125.53 405.79 119.81 408.56 C114.46 411.18 109.42 414.18 104.34 417.29 C99.41 420.29 94.35 422.93 89.14 425.43 C86.58 426.65 86.58 426.65 83.75 428.62 C82.76 428.62 81.77 428.62 80.75 428.62 C80.75 429.29 80.75 429.94 80.75 430.62 C79.64 431.17 79.64 431.17 78.51 431.73 C69.72 436.08 61.1 440.68 52.61 445.59 C52.01 445.93 51.42 446.27 50.81 446.62 C50.22 446.97 49.62 447.31 49.01 447.67 C45.34 449.77 41.62 451.71 37.81 453.56 C32.35 456.23 27.18 459.28 22 462.47 C11.97 468.62 11.97 468.62 7.75 468.62 C7.75 469.29 7.75 469.94 7.75 470.62 C6.43 470.62 5.11 470.62 3.75 470.62 C3.75 471.29 3.75 471.94 3.75 472.62 C3.09 472.95 2.42 473.28 1.74 473.61 C0.86 474.05 -0.03 474.49 -0.94 474.94 C-1.85 475.39 -2.77 475.84 -3.71 476.31 C-6.35 477.62 -6.35 477.62 -9.06 479.5 C-12 481.01 -13.08 480.52 -16.25 479.62 C-18.73 478.49 -21.14 477.32 -23.56 476.06 C-24.21 475.73 -24.85 475.4 -25.52 475.06 C-27.1 474.26 -28.67 473.44 -30.25 472.62 C-30.25 471.96 -30.25 471.31 -30.25 470.62 C-30.91 470.54 -31.58 470.46 -32.26 470.38 C-36.25 469.37 -39.53 467.53 -43.12 465.56 C-43.87 465.16 -44.61 464.76 -45.37 464.35 C-47.67 463.12 -49.96 461.87 -52.25 460.62 C-54.35 459.49 -56.45 458.36 -58.56 457.23 C-59.82 456.55 -61.08 455.87 -62.34 455.19 C-65.58 453.45 -68.81 451.91 -72.25 450.62 C-72.25 449.96 -72.25 449.31 -72.25 448.62 C-72.99 448.51 -73.72 448.4 -74.48 448.29 C-77.36 447.6 -79.1 446.67 -81.56 445.06 C-85.79 442.44 -90.1 440.13 -94.56 437.94 C-104.55 433.01 -114.4 427.82 -124.25 422.62 C-125.88 421.77 -127.51 420.91 -129.14 420.05 C-133.07 417.99 -136.99 415.92 -140.91 413.86 C-143.27 412.62 -145.63 411.37 -147.99 410.13 C-148.78 409.72 -149.56 409.3 -150.37 408.88 C-151.95 408.04 -153.53 407.21 -155.11 406.38 C-159.14 404.27 -163.16 402.15 -167.18 400.02 C-176.48 395.1 -185.81 390.27 -195.25 385.62 C-195.25 384.96 -195.25 384.31 -195.25 383.62 C-195.99 383.51 -196.72 383.39 -197.48 383.27 C-200.23 382.63 -202.09 381.78 -204.51 380.36 C-207.52 378.62 -210.54 376.92 -213.62 375.3 C-214.35 374.92 -215.08 374.53 -215.83 374.14 C-216.59 373.74 -217.35 373.35 -218.12 372.94 C-219.78 372.07 -221.44 371.2 -223.09 370.33 C-223.94 369.89 -224.78 369.45 -225.65 368.99 C-228.28 367.61 -230.91 366.22 -233.53 364.82 C-234.81 364.15 -234.81 364.15 -236.12 363.45 C-237.75 362.59 -239.39 361.72 -241.02 360.85 C-244.7 358.9 -248.33 357.06 -252.25 355.62 C-252.25 354.96 -252.25 354.31 -252.25 353.62 C-252.99 353.51 -253.72 353.4 -254.48 353.29 C-257.36 352.6 -259.1 351.67 -261.56 350.06 C-265.79 347.44 -270.1 345.13 -274.56 342.94 C-283.65 338.46 -292.62 333.75 -301.59 329.03 C-304.22 327.64 -306.86 326.26 -309.5 324.88 C-311.16 324 -312.83 323.13 -314.5 322.25 C-315.25 321.86 -316 321.47 -316.77 321.06 C-321.27 318.7 -325.73 316.26 -330.16 313.77 C-332.29 312.6 -334.45 311.51 -336.62 310.44 C-341.63 307.97 -346.56 305.36 -351.5 302.75 C-359.36 298.59 -367.27 294.56 -375.25 290.62 C-375.25 289.96 -375.25 289.31 -375.25 288.62 C-375.99 288.51 -376.72 288.39 -377.48 288.27 C-380.23 287.63 -382.09 286.78 -384.51 285.36 C-388.99 282.77 -393.54 280.34 -398.12 277.94 C-399.8 277.06 -401.47 276.18 -403.15 275.3 C-404.42 274.63 -404.42 274.63 -405.71 273.96 C-409.73 271.85 -413.74 269.74 -417.75 267.62 C-419.33 266.79 -420.92 265.96 -422.5 265.12 C-432 260.12 -441.5 255.12 -451 250.12 C-451.79 249.71 -452.57 249.3 -453.38 248.87 C-454.95 248.05 -456.52 247.22 -458.09 246.39 C-462.23 244.19 -466.4 242.04 -470.6 239.95 C-471.47 239.51 -472.34 239.07 -473.24 238.61 C-474.92 237.77 -476.6 236.93 -478.29 236.11 C-483.91 233.25 -483.91 233.25 -485.78 229.83 C-485.93 229.1 -486.09 228.38 -486.25 227.62 C-485.08 227.08 -483.9 226.53 -482.69 225.97 C-474.57 222.18 -466.52 218.32 -458.62 214.06 C-449.62 209.22 -440.4 204.92 -431.12 200.65 C-420.93 195.94 -410.98 190.91 -401.09 185.6 C-396.1 182.95 -391.08 180.4 -385.88 178.19 C-379.95 175.63 -374.24 172.64 -368.48 169.73 C-359.38 165.13 -350.21 160.7 -340.98 156.35 C-334.96 153.49 -329.07 150.44 -323.21 147.24 C-319.99 145.5 -316.8 143.97 -313.38 142.69 C-308.04 140.68 -303.15 137.97 -298.15 135.27 C-291.73 131.82 -285.19 128.69 -278.58 125.63 C-274.66 123.81 -270.93 121.9 -267.25 119.62 C-265.63 118.93 -264 118.23 -262.37 117.55 C-257.57 115.45 -252.93 112.99 -248.25 110.62 C-239.82 106.36 -231.37 102.19 -222.81 98.19 C-216.62 95.28 -210.53 92.24 -204.5 89 C-197.53 85.25 -190.46 81.84 -183.27 78.55 C-172.58 73.65 -162.02 68.58 -151.67 63 C-145.63 59.77 -139.47 56.83 -133.27 53.93 C-128.22 51.57 -123.22 49.14 -118.25 46.62 C-112.48 43.71 -106.67 40.92 -100.81 38.19 C-93.74 34.88 -86.8 31.36 -79.94 27.63 C-75.79 25.38 -71.61 23.45 -67.25 21.62 C-65.78 20.91 -64.32 20.18 -62.88 19.44 C-59.06 17.51 -55.22 15.67 -51.34 13.88 C-44.58 10.74 -37.94 7.46 -31.38 3.94 C-28.67 2.5 -25.96 1.06 -23.25 -0.38 C-22.16 -0.95 -21.07 -1.53 -19.95 -2.12 C-19 -2.6 -18.04 -3.07 -17.06 -3.56 C-16.26 -3.97 -15.47 -4.37 -14.64 -4.79 C-9.32 -6.09 -4.51 -2.54 0 0 Z " fill="#000000" transform="translate(652.25,102.375)"/>
<path d="M0 0 C4.82 0.36 7.76 1.89 11.68 4.48 C18.01 8.62 24.65 12.3 31.31 15.88 C36.46 18.65 41.44 21.65 46.44 24.68 C51.04 27.46 55.72 30.06 60.46 32.61 C63.81 34.45 67.07 36.43 70.34 38.42 C72.9 39.94 75.49 41.38 78.11 42.79 C83.85 45.91 89.56 49.1 95.25 52.31 C96.25 52.88 97.25 53.44 98.28 54.02 C104.6 57.6 110.86 61.27 117.06 65.04 C121.35 67.64 125.71 70.04 130.13 72.41 C133.62 74.35 137.03 76.42 140.44 78.5 C146.8 82.37 153.27 85.8 160 89 C160 89.66 160 90.32 160 91 C160.74 91.11 161.48 91.22 162.25 91.33 C165.14 92.03 166.68 92.94 169.06 94.69 C173.52 97.79 178.16 100.17 183.05 102.54 C187.11 104.55 191.06 106.75 195 109 C195 109.66 195 110.32 195 111 C195.74 111.11 196.48 111.22 197.25 111.33 C200.14 112.03 201.68 112.94 204.06 114.69 C208.52 117.79 213.16 120.17 218.05 122.54 C222.11 124.55 226.06 126.75 230 129 C230 129.66 230 130.32 230 131 C230.74 131.11 231.48 131.22 232.25 131.33 C235.14 132.03 236.68 132.94 239.06 134.69 C244.41 138.42 250.13 141.2 256 144 C256 144.66 256 145.32 256 146 C257.65 146.33 259.3 146.66 261 147 C261 147.66 261 148.32 261 149 C262.32 149 263.64 149 265 149 C265 149.66 265 150.32 265 151 C265.74 151.11 266.48 151.22 267.25 151.33 C270.14 152.03 271.68 152.94 274.06 154.69 C279.41 158.42 285.13 161.2 291 164 C291 164.66 291 165.32 291 166 C292.65 166.33 294.3 166.66 296 167 C296 167.66 296 168.32 296 169 C296.56 169.11 297.12 169.22 297.7 169.34 C300.35 170.1 302.47 171.22 304.88 172.56 C305.84 173.1 306.8 173.63 307.79 174.18 C312.45 176.82 317.1 179.49 321.74 182.17 C324.78 183.88 327.86 185.47 331 187 C331 187.66 331 188.32 331 189 C331.99 189.15 331.99 189.15 333 189.31 C336 190 336 190 339.38 191.56 C347.88 194.79 357.41 194.05 365.69 190.62 C367.47 189.78 369.25 188.91 371 188 C372.15 187.42 372.15 187.42 373.33 186.84 C373.88 186.56 374.43 186.28 375 186 C375 185.34 375 184.68 375 184 C375.66 184 376.32 184 377 184 C377 183.34 377 182.68 377 182 C378.38 180.38 378.38 180.38 380 179 C380.66 179 381.32 179 382 179 C382.37 177.93 382.37 177.93 382.75 176.83 C384.14 173.69 385.84 171.36 388 168.69 C388.7 167.8 389.4 166.92 390.12 166.01 C390.74 165.35 391.36 164.68 392 164 C392.66 164 393.32 164 394 164 C394.25 163.28 394.5 162.56 394.75 161.81 C396.12 158.72 397.72 156.49 400 154 C400.66 154 401.32 154 402 154 C402.23 153.29 402.47 152.58 402.71 151.85 C404.24 148.48 406.19 146.17 408.62 143.38 C412.88 138.44 416.7 133.36 420.41 127.98 C420.93 127.33 421.46 126.67 422 126 C422.66 126 423.32 126 424 126 C424.34 125.21 424.34 125.21 424.68 124.41 C426.47 121.14 428.76 118.3 431.06 115.38 C434.32 111.38 434.32 111.38 437 107 C437.66 107 438.32 107 439 107 C439.31 106.38 439.62 105.76 439.94 105.12 C440.62 103.75 441.31 102.38 442 101 C442.66 101 443.32 101 444 101 C444.25 100.46 444.5 99.93 444.75 99.38 C446.31 96.42 448.03 93.7 450 91 C450.66 91 451.32 91 452 91 C452.27 90.26 452.54 89.51 452.81 88.75 C453.95 86.11 455.09 84.14 457 82 C457.66 82 458.32 82 459 82 C459.31 81.38 459.62 80.76 459.94 80.12 C460.62 78.75 461.31 77.38 462 76 C462.66 76 463.32 76 464 76 C464.25 75.46 464.5 74.93 464.75 74.38 C466.31 71.42 468.03 68.7 470 66 C470.66 66 471.32 66 472 66 C472.31 64.98 472.31 64.98 472.62 63.94 C474.45 60.03 477.1 57.16 480 54 C480.99 54.33 481.98 54.66 483 55 C483 202.84 483 350.68 483 503 C480 504 480 504 476.85 502.56 C475.58 501.86 474.32 501.15 473.06 500.44 C471.7 499.68 470.34 498.93 468.97 498.18 C468.3 497.81 467.62 497.44 466.93 497.05 C464.32 495.63 461.67 494.31 459 493 C453.97 490.51 449.01 487.9 444.07 485.25 C438 481.99 431.89 478.78 425.78 475.59 C421.18 473.17 416.61 470.69 412.08 468.14 C409.95 466.97 407.8 465.88 405.62 464.81 C400.62 462.34 395.69 459.74 390.75 457.12 C382.89 452.97 374.98 448.93 367 445 C367 444.34 367 443.68 367 443 C366.26 442.88 365.53 442.76 364.77 442.64 C362.02 442 360.16 441.15 357.74 439.73 C353.26 437.15 348.71 434.71 344.12 432.31 C342.45 431.43 340.78 430.55 339.1 429.68 C338.25 429.23 337.41 428.79 336.54 428.33 C332.52 426.22 328.51 424.11 324.5 422 C322.92 421.17 321.33 420.33 319.75 419.5 C303.92 411.17 288.08 402.83 272.25 394.5 C271.47 394.09 270.68 393.67 269.87 393.25 C268.3 392.42 266.72 391.59 265.15 390.76 C261.07 388.61 256.98 386.47 252.9 384.32 C252.06 383.88 251.22 383.44 250.35 382.99 C248.76 382.15 247.17 381.32 245.58 380.49 C241 378.08 236.46 375.6 231.96 373.06 C229.7 371.84 227.41 370.86 225 370 C225 369.34 225 368.68 225 368 C224.26 367.88 223.53 367.76 222.77 367.63 C220.09 367.02 218.12 366.21 215.71 364.93 C214.92 364.51 214.13 364.09 213.31 363.66 C212.49 363.22 211.66 362.77 210.81 362.31 C209.96 361.86 209.1 361.4 208.22 360.93 C204.03 358.69 199.9 356.4 195.88 353.88 C190.83 350.74 185.47 348.32 180.06 345.89 C175.74 343.92 171.94 341.68 168 339 C165.96 337.92 163.89 336.88 161.81 335.88 C156.1 333.07 150.44 330.16 144.81 327.19 C144.01 326.77 143.22 326.34 142.39 325.91 C139.1 324.17 135.81 322.43 132.52 320.69 C122.41 315.34 112.27 310.06 102 305 C102 304.34 102 303.68 102 303 C101.36 302.93 100.72 302.86 100.06 302.79 C95.69 301.66 92.01 299.53 88.06 297.38 C86.37 296.47 84.68 295.56 82.98 294.66 C82.15 294.21 81.31 293.76 80.45 293.3 C75.02 290.42 69.51 287.71 64 285 C64 284.34 64 283.68 64 283 C63.27 282.89 62.54 282.77 61.78 282.65 C58.94 281.99 56.99 281.04 54.5 279.56 C51.4 277.77 48.39 276.2 45 275 C45 274.34 45 273.68 45 273 C44.26 272.89 43.53 272.78 42.77 272.66 C39.89 271.97 38.15 271.04 35.69 269.44 C29.34 265.49 22.68 262.26 15.98 258.97 C12.98 257.5 9.99 256 7 254.5 C5.55 253.77 5.55 253.77 4.06 253.03 C3.38 252.69 2.7 252.35 2 252 C2 251.34 2 250.68 2 250 C1.01 249.67 0.02 249.34 -1 249 C-1.02 217.71 -1.04 186.42 -1.05 155.14 C-1.05 151.44 -1.05 147.75 -1.05 144.06 C-1.06 143.33 -1.06 142.59 -1.06 141.84 C-1.06 129.93 -1.07 118.02 -1.08 106.11 C-1.09 93.89 -1.09 81.68 -1.09 69.46 C-1.1 61.92 -1.1 54.38 -1.11 46.84 C-1.11 41.07 -1.11 35.29 -1.11 29.51 C-1.11 27.14 -1.12 24.77 -1.12 22.39 C-1.12 19.16 -1.12 15.93 -1.12 12.7 C-1.12 11.75 -1.13 10.8 -1.13 9.83 C-1.13 8.53 -1.13 8.53 -1.12 7.21 C-1.12 6.46 -1.12 5.72 -1.12 4.95 C-1 3 -1 3 0 0 Z " fill="#000000" transform="translate(120,678)"/>
<path d="M0 0 C0.11 29.98 0.2 59.96 0.26 89.94 C0.26 93.48 0.27 97.02 0.27 100.56 C0.28 101.26 0.28 101.96 0.28 102.69 C0.3 114.1 0.34 125.51 0.39 136.92 C0.43 148.63 0.46 160.33 0.47 172.04 C0.48 178.61 0.49 185.19 0.53 191.77 C0.56 197.95 0.57 204.14 0.57 210.32 C0.57 212.6 0.58 214.87 0.6 217.14 C0.62 220.24 0.61 223.34 0.6 226.44 C0.62 227.34 0.63 228.25 0.65 229.18 C0.59 233.6 0.47 235.41 -2.36 238.98 C-5.03 241.03 -7.66 242.73 -10.62 244.31 C-11.57 244.82 -12.51 245.34 -13.48 245.86 C-16 247 -16 247 -19 247 C-19 247.66 -19 248.32 -19 249 C-20.6 249.84 -22.21 250.67 -23.81 251.5 C-24.71 251.96 -25.6 252.43 -26.52 252.91 C-29 254 -29 254 -32 254 C-32 254.66 -32 255.32 -32 256 C-32.62 256.3 -33.23 256.61 -33.87 256.92 C-40.81 260.35 -47.56 264.01 -54.25 267.88 C-60.76 271.64 -67.28 275.19 -74.04 278.48 C-78.32 280.67 -82.41 283.16 -86.5 285.68 C-89 287 -89 287 -92 287 C-92 287.66 -92 288.32 -92 289 C-92.83 289.41 -93.66 289.82 -94.52 290.24 C-95.61 290.78 -96.69 291.32 -97.81 291.88 C-98.89 292.41 -99.97 292.94 -101.08 293.49 C-104.08 294.97 -104.08 294.97 -107 297 C-107.99 297 -108.98 297 -110 297 C-110 297.66 -110 298.32 -110 299 C-111.32 299 -112.64 299 -114 299 C-114 299.66 -114 300.32 -114 301 C-114.62 301.3 -115.23 301.61 -115.87 301.92 C-122.81 305.35 -129.56 309.01 -136.25 312.88 C-141.75 316.06 -147.22 319.16 -152.94 321.94 C-158.29 324.55 -163.33 327.56 -168.41 330.67 C-173.34 333.67 -178.4 336.31 -183.61 338.81 C-186.17 340.02 -186.17 340.02 -189 342 C-189.99 342 -190.98 342 -192 342 C-192 342.66 -192 343.32 -192 344 C-193.11 344.55 -193.11 344.55 -194.24 345.1 C-203.03 349.46 -211.65 354.06 -220.14 358.97 C-220.74 359.31 -221.33 359.65 -221.94 360 C-222.53 360.34 -223.13 360.69 -223.74 361.04 C-227.41 363.14 -231.13 365.09 -234.94 366.94 C-240.29 369.55 -245.33 372.56 -250.41 375.67 C-255.34 378.67 -260.4 381.31 -265.61 383.81 C-268.17 385.02 -268.17 385.02 -271 387 C-271.99 387 -272.98 387 -274 387 C-274 387.66 -274 388.32 -274 389 C-275.41 389.84 -276.83 390.67 -278.25 391.5 C-279.04 391.96 -279.83 392.43 -280.64 392.91 C-283 394 -283 394 -287 394 C-287 394.66 -287 395.32 -287 396 C-287.62 396.3 -288.23 396.61 -288.87 396.92 C-295.81 400.35 -302.56 404.01 -309.25 407.88 C-315.76 411.64 -322.28 415.19 -329.04 418.48 C-333.32 420.67 -337.41 423.16 -341.5 425.68 C-344 427 -344 427 -347 427 C-347 427.66 -347 428.32 -347 429 C-347.83 429.41 -348.66 429.82 -349.52 430.24 C-351.15 431.05 -351.15 431.05 -352.81 431.88 C-353.89 432.41 -354.97 432.94 -356.08 433.49 C-359.08 434.97 -359.08 434.97 -362 437 C-362.99 437 -363.98 437 -365 437 C-365 437.66 -365 438.32 -365 439 C-366.32 439 -367.64 439 -369 439 C-369 439.66 -369 440.32 -369 441 C-369.62 441.3 -370.23 441.61 -370.87 441.92 C-377.81 445.35 -384.56 449.01 -391.25 452.88 C-396.75 456.06 -402.22 459.16 -407.94 461.94 C-413.29 464.55 -418.33 467.56 -423.41 470.67 C-428.34 473.67 -433.4 476.31 -438.61 478.81 C-441.17 480.02 -441.17 480.02 -444 482 C-444.99 482 -445.98 482 -447 482 C-447 482.66 -447 483.32 -447 484 C-448.11 484.55 -448.11 484.55 -449.24 485.1 C-454.38 487.65 -459.48 490.23 -464.5 493 C-470.25 496.17 -476.11 499.1 -482 502 C-484.44 499.56 -484.24 498.27 -484.26 494.94 C-484.26 494.23 -484.25 493.52 -484.25 492.79 C-484.25 492.03 -484.25 491.28 -484.25 490.5 C-484.26 487.94 -484.25 485.39 -484.24 482.83 C-484.24 480.99 -484.24 479.14 -484.25 477.3 C-484.25 472.22 -484.24 467.14 -484.23 462.06 C-484.22 456.59 -484.23 451.12 -484.23 445.65 C-484.23 436.16 -484.22 426.68 -484.21 417.19 C-484.2 403.48 -484.19 389.76 -484.19 376.05 C-484.18 353.8 -484.17 331.55 -484.15 309.3 C-484.13 287.68 -484.12 266.06 -484.11 244.44 C-484.11 243.78 -484.11 243.11 -484.11 242.42 C-484.11 235.07 -484.1 227.72 -484.1 220.37 C-484.08 164.91 -484.04 109.46 -484 54 C-482.51 53.5 -482.51 53.5 -481 53 C-474.84 60.21 -468.74 67.44 -463 75 C-462.42 75.75 -461.84 76.49 -461.24 77.26 C-460.41 78.34 -460.41 78.34 -459.56 79.44 C-459.07 80.08 -458.58 80.71 -458.07 81.37 C-457 83 -457 83 -457 85 C-455.51 85.5 -455.51 85.5 -454 86 C-452.81 88.56 -452.81 88.56 -452 91 C-451.34 91 -450.68 91 -450 91 C-448.49 92.68 -448.49 92.68 -446.88 94.88 C-446.34 95.59 -445.8 96.31 -445.24 97.05 C-444 99 -444 99 -444 101 C-443.34 101 -442.68 101 -442 101 C-440.71 102.46 -440.71 102.46 -439.38 104.38 C-438.93 105 -438.48 105.63 -438.02 106.27 C-437 108 -437 108 -437 110 C-436.34 110 -435.68 110 -435 110 C-432 113.46 -432 113.46 -432 116 C-431.34 116 -430.68 116 -430 116 C-429.67 117.32 -429.34 118.64 -429 120 C-428.34 120 -427.68 120 -427 120 C-424 123.46 -424 123.46 -424 126 C-423.34 126 -422.68 126 -422 126 C-420.71 127.46 -420.71 127.46 -419.38 129.38 C-418.93 130 -418.48 130.63 -418.02 131.27 C-417 133 -417 133 -417 135 C-416.34 135 -415.68 135 -415 135 C-413.49 136.68 -413.49 136.68 -411.88 138.88 C-411.34 139.59 -410.8 140.31 -410.24 141.05 C-409 143 -409 143 -409 145 C-408.34 145 -407.68 145 -407 145 C-404 148.46 -404 148.46 -404 151 C-403.34 151 -402.68 151 -402 151 C-400.71 152.46 -400.71 152.46 -399.38 154.38 C-398.93 155 -398.48 155.63 -398.02 156.27 C-397 158 -397 158 -397 160 C-396.34 160 -395.68 160 -395 160 C-393.49 161.68 -393.49 161.68 -391.88 163.88 C-391.34 164.59 -390.8 165.31 -390.24 166.05 C-389 168 -389 168 -389 170 C-388.34 170 -387.68 170 -387 170 C-385.41 171.79 -385.41 171.79 -383.62 174.19 C-383 175.01 -382.38 175.83 -381.74 176.67 C-380.43 178.43 -379.12 180.18 -377.81 181.94 C-375.98 184.02 -374.56 184.99 -372 186 C-372 186.66 -372 187.32 -372 188 C-371.41 188.13 -370.82 188.27 -370.21 188.4 C-368 189 -368 189 -364.69 190.56 C-354.85 194.24 -344.41 192.56 -335.02 188.51 C-331.24 186.62 -327.65 184.54 -324.12 182.23 C-322.05 181.03 -320.34 180.45 -318 180 C-318 179.34 -318 178.68 -318 178 C-317.26 177.65 -316.52 177.3 -315.76 176.93 C-309.41 173.84 -303.46 170.47 -297.54 166.61 C-292.95 163.7 -288.34 161.2 -283 160 C-283 159.34 -283 158.68 -283 158 C-282.26 157.65 -281.52 157.3 -280.76 156.93 C-274.44 153.86 -268.5 150.51 -262.61 146.68 C-252.22 140 -252.22 140 -248 140 C-248 139.34 -248 138.68 -248 138 C-247.26 137.65 -246.52 137.3 -245.76 136.93 C-239.44 133.86 -233.5 130.51 -227.61 126.68 C-217.22 120 -217.22 120 -213 120 C-213 119.34 -213 118.68 -213 118 C-212.3 117.67 -211.59 117.34 -210.87 117 C-204.21 113.8 -198.04 110.26 -191.9 106.16 C-182.62 100 -182.62 100 -178 100 C-178 99.34 -178 98.68 -178 98 C-177.3 97.67 -176.59 97.34 -175.87 97 C-169.97 94.16 -164.46 91.11 -159 87.5 C-153.76 84.04 -148.45 81.12 -142.79 78.39 C-137.28 75.65 -132.11 72.33 -126.91 69.05 C-120.68 65.16 -114.43 61.64 -107.83 58.42 C-102.31 55.65 -97.13 52.34 -91.91 49.05 C-85.6 45.11 -79.27 41.55 -72.57 38.3 C-69.53 36.76 -66.81 34.91 -64 33 C-62.36 32.09 -60.71 31.2 -59.06 30.31 C-54.47 27.85 -50.01 25.21 -45.56 22.5 C-40.07 19.15 -34.49 16.2 -28.69 13.39 C-26.17 12.09 -23.89 10.67 -21.56 9.06 C-17.88 6.53 -14.09 4.24 -10.19 2.06 C-9.11 1.46 -8.03 0.85 -6.92 0.22 C-3.77 -1.1 -3.09 -0.98 0 0 Z " fill="#000000" transform="translate(1160,679)"/>
<path d="M0 0 C3.31 0.65 3.57 1.21 5.41 3.91 C6.29 5.36 7.16 6.82 8.02 8.3 C8.46 9.03 8.91 9.76 9.37 10.51 C11.37 13.84 12.96 16.71 13.77 20.55 C14.43 20.55 15.09 20.55 15.77 20.55 C17.81 23.45 18.77 24.95 18.77 28.55 C19.43 28.55 20.09 28.55 20.77 28.55 C21.31 29.52 21.85 30.5 22.41 31.5 C25.37 36.69 28.72 41.62 32.05 46.58 C32.53 47.31 33.01 48.03 33.5 48.78 C33.94 49.43 34.37 50.09 34.82 50.76 C35.77 52.55 35.77 52.55 35.77 55.55 C36.43 55.55 37.09 55.55 37.77 55.55 C38.97 57.19 38.97 57.19 40.3 59.5 C40.8 60.34 41.29 61.18 41.8 62.05 C42.33 62.96 42.85 63.86 43.39 64.8 C47.49 71.79 51.68 78.6 56.34 85.23 C57.68 87.4 58.33 89.06 58.77 91.55 C59.43 91.55 60.09 91.55 60.77 91.55 C61.57 93 61.57 93 62.39 94.48 C64.07 97.43 65.87 100.24 67.77 103.05 C75.01 113.81 75.01 113.81 75.77 118.55 C76.43 118.55 77.09 118.55 77.77 118.55 C78.97 120.19 78.97 120.19 80.3 122.5 C80.8 123.34 81.29 124.18 81.8 125.05 C82.33 125.96 82.85 126.86 83.39 127.8 C87.49 134.79 91.68 141.57 96.44 148.14 C98.03 151.02 98.58 152.33 97.77 155.55 C95.51 157.32 93.51 158.63 91.02 159.98 C90.34 160.37 89.66 160.76 88.96 161.16 C83.86 164.04 78.65 166.67 73.38 169.23 C70.49 170.69 67.79 172.32 65.07 174.07 C56.41 179.61 47.63 184.73 38.38 189.23 C35.49 190.69 32.79 192.32 30.07 194.07 C21.32 199.67 12.46 204.9 3.06 209.36 C0.65 210.46 0.65 210.46 -1.23 212.55 C-2.22 212.55 -3.21 212.55 -4.23 212.55 C-4.23 213.21 -4.23 213.87 -4.23 214.55 C-4.93 214.88 -5.62 215.2 -6.33 215.54 C-13.22 218.89 -19.76 222.56 -26.24 226.65 C-30.92 229.55 -30.92 229.55 -34.23 229.55 C-34.23 230.21 -34.23 230.87 -34.23 231.55 C-35.88 231.88 -37.53 232.21 -39.23 232.55 C-39.23 233.21 -39.23 233.87 -39.23 234.55 C-39.98 234.91 -40.73 235.27 -41.51 235.65 C-49.22 239.44 -56.61 243.56 -63.83 248.22 C-66.23 249.55 -66.23 249.55 -69.23 249.55 C-69.23 250.21 -69.23 250.87 -69.23 251.55 C-70.88 251.88 -72.53 252.21 -74.23 252.55 C-74.23 253.21 -74.23 253.87 -74.23 254.55 C-74.97 254.9 -75.71 255.25 -76.47 255.61 C-82.88 258.73 -88.92 262.1 -94.86 266.03 C-100.37 269.55 -100.37 269.55 -104.23 269.55 C-104.23 270.21 -104.23 270.87 -104.23 271.55 C-105.88 271.88 -107.53 272.21 -109.23 272.55 C-109.23 273.21 -109.23 273.87 -109.23 274.55 C-109.94 274.88 -110.64 275.2 -111.37 275.54 C-117.27 278.39 -122.78 281.44 -128.23 285.05 C-133.47 288.51 -138.78 291.43 -144.44 294.16 C-149.95 296.9 -155.12 300.22 -160.32 303.49 C-166.55 307.39 -172.8 310.91 -179.41 314.12 C-184.92 316.9 -190.11 320.21 -195.32 323.49 C-201.55 327.39 -207.8 330.91 -214.41 334.12 C-219.92 336.9 -225.11 340.21 -230.32 343.49 C-236.55 347.39 -242.8 350.91 -249.41 354.12 C-254.92 356.9 -260.11 360.21 -265.32 363.49 C-271.63 367.43 -277.95 370.99 -284.64 374.24 C-287.72 375.79 -290.42 377.56 -293.23 379.55 C-297.84 382.55 -297.84 382.55 -301.23 382.55 C-301.23 383.21 -301.23 383.87 -301.23 384.55 C-302.36 385.09 -302.36 385.09 -303.51 385.65 C-311.22 389.44 -318.61 393.56 -325.83 398.22 C-328.23 399.55 -328.23 399.55 -331.23 399.55 C-331.23 400.21 -331.23 400.87 -331.23 401.55 C-332.88 401.88 -334.53 402.21 -336.23 402.55 C-336.23 403.21 -336.23 403.87 -336.23 404.55 C-337.34 405.07 -337.34 405.07 -338.47 405.61 C-344.88 408.73 -350.92 412.1 -356.86 416.03 C-362.44 419.59 -362.44 419.59 -365.3 419.42 C-367.83 418.28 -368.81 416.9 -370.23 414.55 C-370.23 413.89 -370.23 413.23 -370.23 412.55 C-371.22 412.22 -372.21 411.89 -373.23 411.55 C-374.42 408.98 -374.42 408.98 -375.23 406.55 C-375.89 406.55 -376.55 406.55 -377.23 406.55 C-378.74 404.87 -378.74 404.87 -380.36 402.67 C-380.9 401.95 -381.44 401.23 -381.99 400.49 C-383.23 398.55 -383.23 398.55 -383.23 396.55 C-383.89 396.55 -384.55 396.55 -385.23 396.55 C-386.52 395.09 -386.52 395.09 -387.86 393.17 C-388.31 392.55 -388.75 391.92 -389.21 391.27 C-390.23 389.55 -390.23 389.55 -390.23 387.55 C-390.89 387.55 -391.55 387.55 -392.23 387.55 C-395.23 384.09 -395.23 384.09 -395.23 381.55 C-395.89 381.55 -396.55 381.55 -397.23 381.55 C-397.56 380.23 -397.89 378.91 -398.23 377.55 C-398.89 377.55 -399.55 377.55 -400.23 377.55 C-403.23 374.09 -403.23 374.09 -403.23 371.55 C-403.89 371.55 -404.55 371.55 -405.23 371.55 C-406.52 370.09 -406.52 370.09 -407.86 368.17 C-408.31 367.55 -408.75 366.92 -409.21 366.27 C-410.23 364.55 -410.23 364.55 -410.23 362.55 C-410.89 362.55 -411.55 362.55 -412.23 362.55 C-413.74 360.87 -413.74 360.87 -415.36 358.67 C-415.9 357.95 -416.44 357.23 -416.99 356.49 C-418.23 354.55 -418.23 354.55 -418.23 352.55 C-418.89 352.55 -419.55 352.55 -420.23 352.55 C-423.23 349.09 -423.23 349.09 -423.23 346.55 C-423.89 346.55 -424.55 346.55 -425.23 346.55 C-426.57 344.89 -427.83 343.17 -429.05 341.42 C-431.34 338.17 -433.62 334.99 -436.23 331.98 C-438.23 329.55 -438.23 329.55 -438.23 327.55 C-438.89 327.55 -439.55 327.55 -440.23 327.55 C-441.44 326.24 -441.44 326.24 -442.77 324.4 C-443.27 323.73 -443.76 323.06 -444.27 322.36 C-444.8 321.64 -445.32 320.92 -445.86 320.17 C-446.94 318.7 -448.02 317.23 -449.1 315.77 C-449.9 314.68 -449.9 314.68 -450.71 313.58 C-453.33 310.08 -456.11 306.72 -458.91 303.37 C-460.23 301.55 -460.23 301.55 -460.23 299.55 C-461.22 299.22 -462.21 298.89 -463.23 298.55 C-464.91 296.58 -466.46 294.62 -467.98 292.55 C-468.87 291.36 -469.76 290.18 -470.65 289 C-471.08 288.41 -471.52 287.83 -471.97 287.22 C-474.26 284.18 -476.66 281.22 -479.05 278.25 C-480.23 276.55 -480.23 276.55 -480.23 274.55 C-480.89 274.55 -481.55 274.55 -482.23 274.55 C-484.37 272.41 -485.19 271.15 -485.42 268.11 C-482.45 261.69 -473.25 259.03 -467.24 256.08 C-464.49 254.68 -461.87 253.17 -459.23 251.55 C-455.75 249.4 -452.23 247.52 -448.55 245.73 C-443.78 243.4 -439.26 240.82 -434.73 238.05 C-429.33 234.74 -423.87 231.78 -418.16 229.03 C-413.89 226.86 -409.82 224.37 -405.73 221.87 C-403.23 220.55 -403.23 220.55 -400.23 220.55 C-400.23 219.89 -400.23 219.23 -400.23 218.55 C-399.5 218.18 -398.76 217.82 -398 217.45 C-389.25 213.11 -380.62 208.65 -372.3 203.55 C-367.72 200.76 -362.98 198.4 -358.17 196.05 C-355.44 194.65 -352.84 193.15 -350.23 191.55 C-346.69 189.37 -343.1 187.44 -339.36 185.61 C-335.21 183.58 -331.21 181.41 -327.23 179.05 C-322.3 176.11 -317.26 173.54 -312.1 171.01 C-308.54 169.19 -305.18 167.13 -301.78 165.04 C-299.09 163.46 -296.35 162.09 -293.55 160.73 C-288.78 158.4 -284.26 155.82 -279.73 153.05 C-274.33 149.74 -268.87 146.78 -263.16 144.03 C-258.89 141.86 -254.82 139.37 -250.73 136.87 C-248.23 135.55 -248.23 135.55 -245.23 135.55 C-245.23 134.89 -245.23 134.23 -245.23 133.55 C-244.5 133.18 -243.76 132.82 -243 132.45 C-234.25 128.11 -225.62 123.65 -217.3 118.55 C-212.72 115.76 -207.98 113.4 -203.17 111.05 C-200.44 109.65 -197.84 108.15 -195.23 106.55 C-191.69 104.37 -188.1 102.44 -184.36 100.61 C-180.21 98.58 -176.21 96.41 -172.23 94.05 C-167.3 91.11 -162.26 88.54 -157.1 86.01 C-153.54 84.19 -150.18 82.13 -146.78 80.04 C-144.09 78.46 -141.35 77.09 -138.55 75.73 C-133.78 73.4 -129.26 70.82 -124.73 68.05 C-119.33 64.74 -113.87 61.78 -108.16 59.03 C-103.89 56.86 -99.82 54.37 -95.73 51.87 C-93.23 50.55 -93.23 50.55 -90.23 50.55 C-90.23 49.89 -90.23 49.23 -90.23 48.55 C-89.13 48 -89.13 48 -88 47.45 C-79.2 43.09 -70.59 38.49 -62.09 33.58 C-61.5 33.24 -60.91 32.9 -60.3 32.55 C-59.7 32.2 -59.11 31.86 -58.49 31.51 C-54.82 29.4 -51.1 27.46 -47.3 25.61 C-41.83 22.94 -36.66 19.89 -31.48 16.71 C-21.45 10.55 -21.45 10.55 -17.23 10.55 C-17.23 9.89 -17.23 9.23 -17.23 8.55 C-16.24 8.05 -15.24 7.56 -14.21 7.05 C-12.9 6.4 -11.6 5.76 -10.3 5.11 C-9.64 4.78 -8.98 4.46 -8.3 4.12 C-0.02 0 -0.02 0 0 0 Z " fill="#000000" transform="translate(1182.234375,368.453125)"/>
<path d="M0 0 C3.7 0.56 6.19 1.53 9.31 3.56 C13.54 6.18 17.85 8.5 22.31 10.69 C32.3 15.61 42.15 20.81 52 26 C53.63 26.86 55.26 27.72 56.89 28.57 C60.82 30.64 64.74 32.7 68.66 34.77 C71.02 36.01 73.38 37.25 75.74 38.5 C76.53 38.91 77.31 39.32 78.12 39.75 C79.7 40.58 81.28 41.41 82.86 42.24 C86.89 44.36 90.91 46.48 94.93 48.61 C104.23 53.52 113.56 58.35 123 63 C123 63.66 123 64.32 123 65 C123.74 65.12 124.48 65.24 125.24 65.36 C127.97 65.99 129.79 66.83 132.19 68.25 C135.31 70.05 138.44 71.74 141.69 73.31 C145.8 75.34 149.78 77.57 153.75 79.88 C162.21 84.77 170.86 89.5 180 93 C180 93.66 180 94.32 180 95 C181.1 95.17 181.1 95.17 182.23 95.34 C185.11 96.03 186.85 96.96 189.31 98.56 C195.66 102.51 202.32 105.74 209.02 109.03 C212.02 110.5 215.01 112 218 113.5 C219.45 114.23 219.45 114.23 220.94 114.97 C221.62 115.31 222.3 115.65 223 116 C223 116.66 223 117.32 223 118 C223.68 118.09 224.36 118.18 225.06 118.27 C228.73 119.18 231.79 120.86 235.06 122.69 C236.4 123.42 237.73 124.14 239.06 124.87 C239.72 125.23 240.39 125.59 241.07 125.96 C243.86 127.46 246.71 128.86 249.56 130.25 C252.68 131.79 255.65 133.33 258.5 135.31 C260.77 136.85 262.32 137.59 265 138 C265 138.66 265 139.32 265 140 C265.64 140.07 266.28 140.14 266.94 140.21 C271.31 141.34 274.99 143.47 278.94 145.62 C280.63 146.53 282.32 147.44 284.02 148.34 C284.85 148.79 285.69 149.24 286.55 149.7 C291.98 152.58 297.49 155.29 303 158 C303 158.66 303 159.32 303 160 C304.1 160.17 304.1 160.17 305.23 160.34 C308.11 161.03 309.85 161.96 312.31 163.56 C316.54 166.18 320.85 168.5 325.31 170.69 C331.69 173.83 338.02 177.07 344.31 180.38 C345.2 180.84 346.08 181.3 346.99 181.78 C351.36 184.08 355.71 186.38 360.07 188.68 C369.33 193.57 378.61 198.37 388 203 C388 203.66 388 204.32 388 205 C389.07 205.17 389.07 205.17 390.17 205.34 C393.19 206.04 395.56 207.13 398.31 208.56 C399.2 209.02 400.08 209.47 400.99 209.94 C401.98 210.47 401.98 210.47 403 211 C403 211.66 403 212.32 403 213 C403.67 213.08 404.34 213.16 405.02 213.25 C408.94 214.24 412.12 216.04 415.62 218 C420.66 220.82 420.66 220.82 426 223 C426 223.66 426 224.32 426 225 C426.73 225.11 427.46 225.23 428.22 225.35 C431.06 226.01 433.01 226.96 435.5 228.44 C438.6 230.23 441.61 231.8 445 233 C445 233.66 445 234.32 445 235 C445.74 235.12 446.47 235.24 447.23 235.37 C449.91 235.98 451.88 236.79 454.29 238.07 C455.08 238.49 455.87 238.91 456.69 239.34 C457.93 240.01 457.93 240.01 459.19 240.69 C460.04 241.14 460.89 241.59 461.76 242.06 C466.91 244.82 471.96 247.68 476.91 250.76 C479.08 252.05 481.29 253.16 483.56 254.25 C487 256 487 256 488 258 C485.71 261.52 483.34 264.98 480.88 268.38 C480.13 269.41 480.13 269.41 479.37 270.46 C478.92 270.97 478.46 271.48 478 272 C477.34 272 476.68 272 476 272 C475.75 272.54 475.5 273.07 475.25 273.62 C473.69 276.58 471.97 279.3 470 282 C469.34 282 468.68 282 468 282 C467.73 282.74 467.46 283.49 467.19 284.25 C466.05 286.89 464.91 288.86 463 291 C462.34 291 461.68 291 461 291 C460.69 291.62 460.38 292.24 460.06 292.88 C459.38 294.25 458.69 295.62 458 297 C457.34 297 456.68 297 456 297 C455.75 297.54 455.5 298.07 455.25 298.62 C453.69 301.58 451.97 304.3 450 307 C449.34 307 448.68 307 448 307 C447.73 307.74 447.46 308.49 447.19 309.25 C446.05 311.89 444.91 313.86 443 316 C442.34 316 441.68 316 441 316 C440.75 316.54 440.5 317.07 440.25 317.62 C438.69 320.58 436.97 323.3 435 326 C434.34 326 433.68 326 433 326 C432.73 326.8 432.46 327.61 432.19 328.44 C431.8 329.28 431.4 330.13 431 331 C430.01 331.33 429.02 331.66 428 332 C427.32 333.66 426.66 335.33 426 337 C424.52 338.94 422.97 340.84 421.38 342.69 C420.47 343.75 419.56 344.81 418.66 345.88 C418.21 346.41 417.76 346.93 417.29 347.47 C414.1 351.24 411.07 355.14 408 359 C407.41 359.73 406.82 360.46 406.22 361.21 C401.16 367.49 396.23 373.86 391.3 380.24 C386.99 385.78 382.56 391.19 377.99 396.52 C375.93 398.97 375.93 398.97 374.36 401.82 C373.91 402.54 373.46 403.26 373 404 C372.34 404 371.68 404 371 404 C370.75 404.64 370.5 405.28 370.25 405.94 C369 408 369 408 367.14 408.74 C364.51 409.06 363.64 408.58 361.43 407.16 C360.78 406.76 360.13 406.35 359.46 405.94 C358.79 405.5 358.13 405.07 357.44 404.62 C356.1 403.78 354.77 402.94 353.43 402.1 C352.85 401.72 352.26 401.35 351.65 400.96 C349.85 399.84 349.85 399.84 347 399 C347 398.34 347 397.68 347 397 C346.13 396.81 346.13 396.81 345.24 396.63 C342.96 395.99 341.19 395.15 339.13 394 C338.4 393.59 337.66 393.18 336.91 392.76 C335.75 392.11 335.75 392.11 334.56 391.44 C333.36 390.76 333.36 390.76 332.13 390.08 C326.31 386.79 320.61 383.35 314.95 379.8 C311.28 377.56 307.53 375.52 303.75 373.5 C300.79 371.89 297.9 370.2 295 368.5 C291.26 366.3 287.51 364.17 283.69 362.12 C279.22 359.72 274.89 357.14 270.56 354.5 C265.07 351.15 259.49 348.2 253.7 345.39 C250.36 343.67 247.34 341.63 244.26 339.49 C240.96 337.32 237.5 335.49 234.02 333.63 C226.51 329.58 219.11 325.3 211.81 320.88 C207.6 318.33 203.3 315.96 198.97 313.62 C190.65 309.08 182.47 304.3 174.38 299.38 C168.95 296.07 163.42 293.17 157.7 290.39 C154.36 288.67 151.35 286.63 148.27 284.5 C144.93 282.29 141.41 280.45 137.89 278.57 C134.89 276.94 131.94 275.23 129 273.5 C125.26 271.3 121.51 269.17 117.69 267.12 C113.22 264.72 108.89 262.14 104.56 259.5 C98.2 255.63 91.73 252.2 85 249 C85 248.34 85 247.68 85 247 C84.26 246.89 83.52 246.78 82.75 246.67 C79.86 245.97 78.32 245.06 75.94 243.31 C71.48 240.21 66.84 237.83 61.95 235.46 C57.89 233.45 53.94 231.25 50 229 C50 228.34 50 227.68 50 227 C49.43 226.89 48.87 226.78 48.28 226.67 C45.68 225.91 43.79 224.77 41.5 223.31 C37.73 220.99 33.93 218.93 29.94 217 C25.44 214.8 21.37 212.34 17.26 209.49 C13.96 207.32 10.5 205.49 7.02 203.63 C-0.49 199.58 -7.89 195.3 -15.19 190.88 C-19.4 188.33 -23.69 185.97 -28.01 183.63 C-35.49 179.54 -42.9 175.3 -50.19 170.88 C-54.4 168.33 -58.69 165.97 -63.01 163.63 C-66.38 161.79 -69.73 159.9 -73.06 158 C-73.66 157.66 -74.25 157.32 -74.86 156.97 C-79.23 154.47 -83.54 151.88 -87.82 149.23 C-90.15 147.92 -92.5 146.94 -95 146 C-95 144.02 -95 142.04 -95 140 C-94.34 140 -93.68 140 -93 140 C-92.54 138.82 -92.54 138.82 -92.06 137.62 C-91 135 -91 135 -90 133 C-89.34 133 -88.68 133 -88 133 C-87.86 132.19 -87.86 132.19 -87.71 131.36 C-86.79 128.3 -85.28 125.94 -83.56 123.25 C-82.95 122.27 -82.33 121.28 -81.69 120.27 C-81.13 119.52 -80.58 118.77 -80 118 C-79.34 118 -78.68 118 -78 118 C-77.91 117.46 -77.81 116.92 -77.71 116.36 C-76.79 113.3 -75.28 110.94 -73.56 108.25 C-72.95 107.27 -72.33 106.28 -71.69 105.27 C-71.13 104.52 -70.58 103.77 -70 103 C-69.34 103 -68.68 103 -68 103 C-67.91 102.46 -67.81 101.92 -67.71 101.36 C-66.79 98.3 -65.28 95.94 -63.56 93.25 C-62.95 92.27 -62.33 91.28 -61.69 90.27 C-61.13 89.52 -60.58 88.77 -60 88 C-59.34 88 -58.68 88 -58 88 C-57.91 87.46 -57.81 86.92 -57.71 86.36 C-56.79 83.3 -55.28 80.94 -53.56 78.25 C-52.95 77.27 -52.33 76.28 -51.69 75.27 C-51.13 74.52 -50.58 73.77 -50 73 C-49.34 73 -48.68 73 -48 73 C-48 72.01 -48 71.02 -48 70 C-47.34 70 -46.68 70 -46 70 C-45.89 69.43 -45.77 68.86 -45.65 68.27 C-44.94 65.79 -43.93 63.94 -42.56 61.75 C-42.13 61.04 -41.7 60.34 -41.25 59.61 C-40.84 59.08 -40.43 58.55 -40 58 C-39.34 58 -38.68 58 -38 58 C-38 57.01 -38 56.02 -38 55 C-37.34 55 -36.68 55 -36 55 C-35.89 54.43 -35.77 53.86 -35.65 53.27 C-34.94 50.79 -33.93 48.94 -32.56 46.75 C-32.13 46.04 -31.7 45.34 -31.25 44.61 C-30.84 44.08 -30.43 43.55 -30 43 C-29.34 43 -28.68 43 -28 43 C-28 42.01 -28 41.02 -28 40 C-27.34 40 -26.68 40 -26 40 C-25.89 39.43 -25.77 38.86 -25.65 38.27 C-24.94 35.79 -23.93 33.94 -22.56 31.75 C-22.13 31.04 -21.7 30.34 -21.25 29.61 C-20.63 28.81 -20.63 28.81 -20 28 C-19.34 28 -18.68 28 -18 28 C-18 27.01 -18 26.02 -18 25 C-17.34 25 -16.68 25 -16 25 C-15.63 23.98 -15.63 23.98 -15.25 22.94 C-13.76 19.43 -11.93 16.28 -10 13 C-9.34 13 -8.68 13 -8 13 C-8 12.01 -8 11.02 -8 10 C-7.34 10 -6.68 10 -6 10 C-5.63 8.92 -5.63 8.92 -5.25 7.81 C-3.89 4.75 -2.17 2.53 0 0 Z " fill="#000000" transform="translate(95,379)"/>
</svg>
