<?xml version="1.0" encoding="UTF-8"?>
<!-- Generator: visioncortex VTracer 0.6.3 -->
<svg version="1.1" xmlns="http://www.w3.org/2000/svg" width="1280" height="1280">
<path d="M0 0 C9.33 -0.26 17.57 0.35 26.5 3.06 C30.19 4.05 33.66 4.39 37.45 4.72 C42.58 5.28 47.51 6.54 52.44 8.06 C56.13 9.03 59.59 9.39 63.38 9.72 C68.71 10.29 73.95 11.27 79 13.06 C82.49 14.15 85.78 14.41 89.42 14.72 C94.05 15.22 98.53 16.34 103.02 17.54 C107.26 18.66 111.35 19.3 115.71 19.72 C120.79 20.34 125.74 21.67 130.68 22.97 C136.07 24.32 141.53 25.06 147.02 25.86 C151.82 26.58 156.33 27.64 161 29 C162.62 29.22 164.25 29.39 165.88 29.5 C171.93 30.02 177.63 31.27 183.44 33.06 C187.15 34.04 190.64 34.39 194.45 34.72 C199.62 35.29 204.58 36.58 209.56 38.06 C212.26 38.8 214.63 39.25 217.38 39.56 C221 40 221 40 222 41 C222.2 42.63 222.35 44.26 222.46 45.9 C222.54 46.93 222.62 47.96 222.7 49.02 C222.78 50.12 222.86 51.23 222.94 52.38 C223.56 60.57 224.21 68.76 225.06 76.94 C225.14 77.73 225.22 78.52 225.3 79.34 C225.67 83.29 225.67 83.29 227 87 C227.16 88.33 227.28 89.67 227.39 91.01 C227.92 96.17 229.26 100.88 230.81 105.81 C231.22 107.12 231.22 107.12 231.63 108.46 C233.99 116.09 236.42 123.7 239.17 131.2 C240 134 240 134 239 136 C238.34 136 237.68 136 237 136 C236.73 136.58 236.46 137.15 236.19 137.75 C234.97 140.06 233.7 142.02 232 144 C231.34 144 230.68 144 230 144 C229.74 144.7 229.48 145.39 229.21 146.11 C227.87 149.3 226.26 152.23 224.56 155.25 C218.15 167.15 214.86 180.36 216 194 C216.14 195.64 216.14 195.64 216.28 197.32 C217.95 212.81 223.16 225.89 233 238 C233 238.66 233 239.32 233 240 C233.66 240 234.32 240 235 240 C236.69 241.98 238.35 243.98 240 246 C240.66 246.33 241.32 246.66 242 247 C242 247.66 242 248.32 242 249 C242.56 249.27 243.12 249.54 243.7 249.82 C246.13 251.07 248.43 252.45 250.75 253.88 C269.8 265.34 289.13 268.13 311 264 C317.77 262.01 323.99 258.59 330.24 255.37 C332.79 254.11 335.34 253.02 338 252 C338 251.34 338 250.68 338 250 C343.48 245 343.48 245 346 245 C346.23 244.46 346.45 243.93 346.69 243.38 C347.85 241.27 349.02 239.69 350.56 237.88 C352.96 235.28 352.96 235.28 354 233 C354.66 233 355.32 233 356 233 C356.12 232.43 356.23 231.85 356.35 231.26 C357.05 228.81 358.06 226.99 359.38 224.81 C365.34 214.29 367.39 202.68 367.31 190.69 C367.31 189.31 367.31 189.31 367.3 187.91 C366.94 166.95 357.79 148.64 343 134 C342.34 133.67 341.68 133.34 341 133 C341 132.34 341 131.68 341 131 C340.44 130.74 339.88 130.48 339.31 130.21 C336.75 128.87 334.45 127.31 332.06 125.69 C319.48 117.64 306.39 114.62 291.62 114.81 C290.17 114.81 290.17 114.81 288.68 114.81 C283.7 114.76 283.7 114.76 278.83 115.61 C277.92 115.8 277.92 115.8 277 116 C273.61 113.42 272.26 110.79 270.94 106.81 C270.61 105.83 270.28 104.85 269.94 103.84 C269.63 102.91 269.32 101.97 269 101 C268.73 100.29 268.46 99.58 268.19 98.84 C264.45 88.71 263.11 77.68 261.81 67 C261.73 66.32 261.64 65.64 261.56 64.94 C261.03 60.26 260.93 55.7 261 51 C268.11 46.97 277.54 50.07 285 52 C286.73 52.53 286.73 52.53 288.5 53.06 C291.92 53.98 295.1 54.38 298.61 54.72 C304.01 55.35 309.3 56.48 314.5 58.06 C318.19 59.05 321.66 59.39 325.45 59.72 C330.58 60.28 335.51 61.54 340.44 63.06 C344.16 64.04 347.66 64.39 351.48 64.73 C354.51 65.06 357.38 65.69 360.34 66.41 C363.1 67.02 365.88 67.49 368.68 67.96 C376.95 69.37 384.27 71.65 392 75 C392 75.66 392 76.32 392 77 C393.02 77.28 393.02 77.28 394.06 77.56 C398.14 79.56 401.2 82.43 404 86 C404.7 88.23 404.7 88.23 405 90 C405.66 90 406.32 90 407 90 C412.1 100.9 413.83 112.06 415.6 123.87 C415.91 126.04 415.91 126.04 417 128 C417.28 130.4 417.45 132.79 417.62 135.2 C417.94 138.1 417.94 138.1 418.94 141.24 C420.4 146.42 421.09 151.65 421.86 156.97 C422.39 160.58 423 163.99 424 167.5 C425.45 172.59 426.1 177.75 426.86 182.97 C427.39 186.58 428 189.99 429 193.5 C430.45 198.59 431.1 203.75 431.86 208.97 C432.57 213.79 433.58 218.33 435 223 C436.19 228.03 437.05 233.03 437.5 238.19 C437.87 242.33 438.77 246.02 440 250 C441.42 255.47 442.28 260.81 442.66 266.45 C442.95 269.14 442.95 269.14 443.94 272.21 C445.39 277.41 446.09 282.64 446.86 287.97 C447.39 291.58 448 294.99 449 298.5 C450.45 303.59 451.1 308.75 451.86 313.97 C452.58 318.8 453.65 323.31 455 328 C455.56 330.99 456 333.99 456.44 337 C457.93 350.89 457.93 350.89 462 364 C462.35 365.79 462.65 367.58 462.94 369.38 C463.11 370.44 463.28 371.51 463.46 372.61 C463.82 374.87 464.18 377.13 464.54 379.39 C464.71 380.46 464.88 381.53 465.06 382.62 C465.22 383.61 465.37 384.59 465.54 385.6 C465.89 388 465.89 388 467 390 C467.28 392.4 467.45 394.79 467.62 397.2 C467.94 400.1 467.94 400.1 468.94 403.24 C470.4 408.42 471.09 413.65 471.86 418.97 C472.39 422.58 473 425.99 474 429.5 C475.45 434.59 476.1 439.75 476.86 444.97 C477.57 449.79 478.57 454.33 480 459 C481.87 466.24 482.77 473.53 482 481 C481.34 481.99 480.68 482.98 480 484 C479.34 484 478.68 484 478 484 C477.67 484.99 477.34 485.98 477 487 C476.34 487 475.68 487 475 487 C475 487.66 475 488.32 475 489 C474.34 489 473.68 489 473 489 C472.67 489.99 472.34 490.98 472 492 C471.34 492 470.68 492 470 492 C470 492.66 470 493.32 470 494 C469.34 494 468.68 494 468 494 C467.67 494.99 467.34 495.98 467 497 C466.34 497 465.68 497 465 497 C465 497.66 465 498.32 465 499 C464.34 499 463.68 499 463 499 C462.67 499.99 462.34 500.98 462 502 C461.34 502 460.68 502 460 502 C460 502.66 460 503.32 460 504 C459.34 504 458.68 504 458 504 C457.67 504.99 457.34 505.98 457 507 C456.34 507 455.68 507 455 507 C455 507.66 455 508.32 455 509 C454.34 509 453.68 509 453 509 C452.67 509.99 452.34 510.98 452 512 C451.34 512 450.68 512 450 512 C450 512.66 450 513.32 450 514 C449.34 514 448.68 514 448 514 C447.67 514.99 447.34 515.98 447 517 C446.34 517 445.68 517 445 517 C445 517.66 445 518.32 445 519 C444.34 519 443.68 519 443 519 C442.67 519.99 442.34 520.98 442 522 C441.34 522 440.68 522 440 522 C440 522.66 440 523.32 440 524 C439.34 524 438.68 524 438 524 C437.67 524.99 437.34 525.98 437 527 C436.34 527 435.68 527 435 527 C435 527.66 435 528.32 435 529 C434.34 529 433.68 529 433 529 C432.67 529.99 432.34 530.98 432 532 C431.34 532 430.68 532 430 532 C430 532.66 430 533.32 430 534 C429.34 534 428.68 534 428 534 C427.67 534.99 427.34 535.98 427 537 C426.34 537 425.68 537 425 537 C425 537.66 425 538.32 425 539 C424.34 539 423.68 539 423 539 C422.67 539.99 422.34 540.98 422 542 C421.34 542 420.68 542 420 542 C420 542.66 420 543.32 420 544 C419.34 544 418.68 544 418 544 C417.67 544.99 417.34 545.98 417 547 C416.34 547 415.68 547 415 547 C415 547.66 415 548.32 415 549 C414.34 549 413.68 549 413 549 C412.67 549.99 412.34 550.98 412 552 C411.34 552 410.68 552 410 552 C410 552.66 410 553.32 410 554 C409.34 554 408.68 554 408 554 C407.67 554.99 407.34 555.98 407 557 C406.34 557 405.68 557 405 557 C405 557.66 405 558.32 405 559 C404.34 559 403.68 559 403 559 C402.67 559.99 402.34 560.98 402 562 C401.34 562 400.68 562 400 562 C400 562.66 400 563.32 400 564 C399.34 564 398.68 564 398 564 C397.67 564.99 397.34 565.98 397 567 C396.34 567 395.68 567 395 567 C395 567.66 395 568.32 395 569 C394.34 569 393.68 569 393 569 C392.67 569.99 392.34 570.98 392 572 C391.34 572 390.68 572 390 572 C390 572.66 390 573.32 390 574 C389.34 574 388.68 574 388 574 C387.67 574.99 387.34 575.98 387 577 C386.34 577 385.68 577 385 577 C385 577.66 385 578.32 385 579 C384.34 579 383.68 579 383 579 C382.67 579.99 382.34 580.98 382 582 C381.34 582 380.68 582 380 582 C380 582.66 380 583.32 380 584 C379.34 584 378.68 584 378 584 C377.67 584.99 377.34 585.98 377 587 C376.34 587 375.68 587 375 587 C375 587.66 375 588.32 375 589 C374.34 589 373.68 589 373 589 C372.67 589.99 372.34 590.98 372 592 C371.34 592 370.68 592 370 592 C370 592.66 370 593.32 370 594 C369.34 594 368.68 594 368 594 C367.67 594.99 367.34 595.98 367 597 C366.34 597 365.68 597 365 597 C365 597.66 365 598.32 365 599 C364.34 599 363.68 599 363 599 C362.67 599.99 362.34 600.98 362 602 C361.34 602 360.68 602 360 602 C360 602.66 360 603.32 360 604 C359.34 604 358.68 604 358 604 C357.67 604.99 357.34 605.98 357 607 C356.34 607 355.68 607 355 607 C355 607.66 355 608.32 355 609 C354.34 609 353.68 609 353 609 C352.67 609.99 352.34 610.98 352 612 C351.34 612 350.68 612 350 612 C350 612.66 350 613.32 350 614 C349.34 614 348.68 614 348 614 C347.67 614.99 347.34 615.98 347 617 C346.34 617 345.68 617 345 617 C345 617.66 345 618.32 345 619 C344.34 619 343.68 619 343 619 C342.67 619.99 342.34 620.98 342 622 C341.34 622 340.68 622 340 622 C340 622.66 340 623.32 340 624 C339.34 624 338.68 624 338 624 C337.67 624.99 337.34 625.98 337 627 C336.34 627 335.68 627 335 627 C335 627.66 335 628.32 335 629 C334.34 629 333.68 629 333 629 C332.67 629.99 332.34 630.98 332 632 C331.34 632 330.68 632 330 632 C330 632.66 330 633.32 330 634 C329.34 634 328.68 634 328 634 C327.67 634.99 327.34 635.98 327 637 C326.34 637 325.68 637 325 637 C325 637.66 325 638.32 325 639 C324.34 639 323.68 639 323 639 C322.67 639.99 322.34 640.98 322 642 C321.34 642 320.68 642 320 642 C320 642.66 320 643.32 320 644 C319.34 644 318.68 644 318 644 C317.67 644.99 317.34 645.98 317 647 C316.34 647 315.68 647 315 647 C315 647.66 315 648.32 315 649 C314.34 649 313.68 649 313 649 C312.67 649.99 312.34 650.98 312 652 C311.34 652 310.68 652 310 652 C310 652.66 310 653.32 310 654 C309.34 654 308.68 654 308 654 C307.67 654.99 307.34 655.98 307 657 C306.34 657 305.68 657 305 657 C305 657.66 305 658.32 305 659 C304.34 659 303.68 659 303 659 C302.67 659.99 302.34 660.98 302 662 C301.34 662 300.68 662 300 662 C300 662.66 300 663.32 300 664 C299.34 664 298.68 664 298 664 C297.67 664.99 297.34 665.98 297 667 C296.34 667 295.68 667 295 667 C295 667.66 295 668.32 295 669 C294.34 669 293.68 669 293 669 C292.67 669.99 292.34 670.98 292 672 C291.34 672 290.68 672 290 672 C290 672.66 290 673.32 290 674 C289.34 674 288.68 674 288 674 C287.67 674.99 287.34 675.98 287 677 C286.34 677 285.68 677 285 677 C285 677.66 285 678.32 285 679 C284.34 679 283.68 679 283 679 C282.67 679.99 282.34 680.98 282 682 C281.34 682 280.68 682 280 682 C280 682.66 280 683.32 280 684 C279.34 684 278.68 684 278 684 C277.67 684.99 277.34 685.98 277 687 C276.34 687 275.68 687 275 687 C275 687.66 275 688.32 275 689 C274.34 689 273.68 689 273 689 C272.67 689.99 272.34 690.98 272 692 C271.34 692 270.68 692 270 692 C270 692.66 270 693.32 270 694 C269.34 694 268.68 694 268 694 C267.67 694.99 267.34 695.98 267 697 C266.34 697 265.68 697 265 697 C265 697.66 265 698.32 265 699 C264.34 699 263.68 699 263 699 C262.67 699.99 262.34 700.98 262 702 C261.34 702 260.68 702 260 702 C260 702.66 260 703.32 260 704 C259.34 704 258.68 704 258 704 C257.67 704.99 257.34 705.98 257 707 C256.34 707 255.68 707 255 707 C255 707.66 255 708.32 255 709 C254.34 709 253.68 709 253 709 C252.67 709.99 252.34 710.98 252 712 C251.34 712 250.68 712 250 712 C250 712.66 250 713.32 250 714 C249.34 714 248.68 714 248 714 C247.67 714.99 247.34 715.98 247 717 C246.34 717 245.68 717 245 717 C245 717.66 245 718.32 245 719 C244.34 719 243.68 719 243 719 C242.67 719.99 242.34 720.98 242 722 C241.34 722 240.68 722 240 722 C240 722.66 240 723.32 240 724 C239.34 724 238.68 724 238 724 C237.67 724.99 237.34 725.98 237 727 C236.34 727 235.68 727 235 727 C235 727.66 235 728.32 235 729 C234.34 729 233.68 729 233 729 C232.67 729.99 232.34 730.98 232 732 C231.34 732 230.68 732 230 732 C230 732.66 230 733.32 230 734 C229.34 734 228.68 734 228 734 C227.67 734.99 227.34 735.98 227 737 C226.34 737 225.68 737 225 737 C225 737.66 225 738.32 225 739 C224.34 739 223.68 739 223 739 C222.67 739.99 222.34 740.98 222 742 C221.34 742 220.68 742 220 742 C220 742.66 220 743.32 220 744 C219.34 744 218.68 744 218 744 C217.67 744.99 217.34 745.98 217 747 C216.34 747 215.68 747 215 747 C215 747.66 215 748.32 215 749 C214.34 749 213.68 749 213 749 C212.67 749.99 212.34 750.98 212 752 C211.34 752 210.68 752 210 752 C210 752.66 210 753.32 210 754 C209.34 754 208.68 754 208 754 C207.67 754.99 207.34 755.98 207 757 C206.34 757 205.68 757 205 757 C205 757.66 205 758.32 205 759 C204.34 759 203.68 759 203 759 C202.67 759.99 202.34 760.98 202 762 C201.34 762 200.68 762 200 762 C200 762.66 200 763.32 200 764 C199.34 764 198.68 764 198 764 C197.67 764.99 197.34 765.98 197 767 C196.34 767 195.68 767 195 767 C195 767.66 195 768.32 195 769 C194.34 769 193.68 769 193 769 C192.67 769.99 192.34 770.98 192 772 C191.34 772 190.68 772 190 772 C190 772.66 190 773.32 190 774 C189.34 774 188.68 774 188 774 C187.67 774.99 187.34 775.98 187 777 C186.34 777 185.68 777 185 777 C185 777.66 185 778.32 185 779 C184.34 779 183.68 779 183 779 C182.67 779.99 182.34 780.98 182 782 C181.34 782 180.68 782 180 782 C180 782.66 180 783.32 180 784 C179.34 784 178.68 784 178 784 C177.67 784.99 177.34 785.98 177 787 C176.34 787 175.68 787 175 787 C175 787.66 175 788.32 175 789 C174.34 789 173.68 789 173 789 C172.67 789.99 172.34 790.98 172 792 C171.34 792 170.68 792 170 792 C170 792.66 170 793.32 170 794 C169.34 794 168.68 794 168 794 C167.67 794.99 167.34 795.98 167 797 C166.34 797 165.68 797 165 797 C165 797.66 165 798.32 165 799 C164.34 799 163.68 799 163 799 C162.67 799.99 162.34 800.98 162 802 C161.34 802 160.68 802 160 802 C160 802.66 160 803.32 160 804 C159.34 804 158.68 804 158 804 C157.67 804.99 157.34 805.98 157 807 C156.34 807 155.68 807 155 807 C155 807.66 155 808.32 155 809 C154.34 809 153.68 809 153 809 C152.67 809.99 152.34 810.98 152 812 C151.34 812 150.68 812 150 812 C150 812.66 150 813.32 150 814 C149.34 814 148.68 814 148 814 C147.67 814.99 147.34 815.98 147 817 C146.34 817 145.68 817 145 817 C145 817.66 145 818.32 145 819 C144.34 819 143.68 819 143 819 C142.67 819.99 142.34 820.98 142 822 C141.34 822 140.68 822 140 822 C140 822.66 140 823.32 140 824 C139.34 824 138.68 824 138 824 C137.67 824.99 137.34 825.98 137 827 C136.34 827 135.68 827 135 827 C135 827.66 135 828.32 135 829 C134.34 829 133.68 829 133 829 C132.67 829.99 132.34 830.98 132 832 C131.34 832 130.68 832 130 832 C130 832.66 130 833.32 130 834 C129.34 834 128.68 834 128 834 C127.67 834.99 127.34 835.98 127 837 C126.34 837 125.68 837 125 837 C125 837.66 125 838.32 125 839 C124.34 839 123.68 839 123 839 C122.67 839.99 122.34 840.98 122 842 C121.34 842 120.68 842 120 842 C120 842.66 120 843.32 120 844 C119.34 844 118.68 844 118 844 C117.67 844.99 117.34 845.98 117 847 C116.34 847 115.68 847 115 847 C115 847.66 115 848.32 115 849 C114.34 849 113.68 849 113 849 C112.67 849.99 112.34 850.98 112 852 C111.34 852 110.68 852 110 852 C110 852.66 110 853.32 110 854 C109.34 854 108.68 854 108 854 C107.67 854.99 107.34 855.98 107 857 C106.34 857 105.68 857 105 857 C105 857.66 105 858.32 105 859 C104.34 859 103.68 859 103 859 C102.67 859.99 102.34 860.98 102 862 C101.34 862 100.68 862 100 862 C100 862.66 100 863.32 100 864 C99.34 864 98.68 864 98 864 C97.67 864.99 97.34 865.98 97 867 C96.34 867 95.68 867 95 867 C95 867.66 95 868.32 95 869 C94.34 869 93.68 869 93 869 C92.67 869.99 92.34 870.98 92 872 C91.34 872 90.68 872 90 872 C90 872.66 90 873.32 90 874 C89.34 874 88.68 874 88 874 C87.67 874.99 87.34 875.98 87 877 C86.34 877 85.68 877 85 877 C85 877.66 85 878.32 85 879 C84.34 879 83.68 879 83 879 C82.67 879.99 82.34 880.98 82 882 C81.34 882 80.68 882 80 882 C80 882.66 80 883.32 80 884 C79.34 884 78.68 884 78 884 C77.67 884.99 77.34 885.98 77 887 C76.34 887 75.68 887 75 887 C75 887.66 75 888.32 75 889 C74.34 889 73.68 889 73 889 C72.67 889.99 72.34 890.98 72 892 C71.34 892 70.68 892 70 892 C70 892.66 70 893.32 70 894 C69.34 894 68.68 894 68 894 C67.67 894.99 67.34 895.98 67 897 C66.34 897 65.68 897 65 897 C65 897.66 65 898.32 65 899 C64.34 899 63.68 899 63 899 C62.67 899.99 62.34 900.98 62 902 C61.34 902 60.68 902 60 902 C60 902.66 60 903.32 60 904 C59.34 904 58.68 904 58 904 C57.67 904.99 57.34 905.98 57 907 C56.34 907 55.68 907 55 907 C55 907.66 55 908.32 55 909 C54.34 909 53.68 909 53 909 C52.67 909.99 52.34 910.98 52 912 C51.34 912 50.68 912 50 912 C50 912.66 50 913.32 50 914 C49.34 914 48.68 914 48 914 C47.67 914.99 47.34 915.98 47 917 C46.34 917 45.68 917 45 917 C45 917.66 45 918.32 45 919 C44.34 919 43.68 919 43 919 C42.67 919.99 42.34 920.98 42 922 C41.34 922 40.68 922 40 922 C40 922.66 40 923.32 40 924 C39.34 924 38.68 924 38 924 C37.67 924.99 37.34 925.98 37 927 C36.34 927 35.68 927 35 927 C35 927.66 35 928.32 35 929 C34.34 929 33.68 929 33 929 C32.67 929.99 32.34 930.98 32 932 C31.34 932 30.68 932 30 932 C30 932.66 30 933.32 30 934 C29.34 934 28.68 934 28 934 C27.67 934.99 27.34 935.98 27 937 C26.34 937 25.68 937 25 937 C25 937.66 25 938.32 25 939 C24.34 939 23.68 939 23 939 C22.67 939.99 22.34 940.98 22 942 C21.34 942 20.68 942 20 942 C20 942.66 20 943.32 20 944 C19.34 944 18.68 944 18 944 C17.67 944.99 17.34 945.98 17 947 C16.34 947 15.68 947 15 947 C15 947.66 15 948.32 15 949 C14.34 949 13.68 949 13 949 C12.67 949.99 12.34 950.98 12 952 C11.34 952 10.68 952 10 952 C10 952.66 10 953.32 10 954 C9.34 954 8.68 954 8 954 C7.67 954.99 7.34 955.98 7 957 C6.34 957 5.68 957 5 957 C5 957.66 5 958.32 5 959 C4.34 959 3.68 959 3 959 C2.67 959.99 2.34 960.98 2 962 C1.34 962 0.68 962 0 962 C0 962.66 0 963.32 0 964 C-0.66 964 -1.32 964 -2 964 C-2.33 964.99 -2.66 965.98 -3 967 C-3.66 967 -4.32 967 -5 967 C-5 967.66 -5 968.32 -5 969 C-5.66 969 -6.32 969 -7 969 C-7.33 969.99 -7.66 970.98 -8 972 C-8.66 972 -9.32 972 -10 972 C-10 972.66 -10 973.32 -10 974 C-10.66 974 -11.32 974 -12 974 C-12.33 974.99 -12.66 975.98 -13 977 C-13.66 977 -14.32 977 -15 977 C-15 977.66 -15 978.32 -15 979 C-15.66 979 -16.32 979 -17 979 C-17.33 979.99 -17.66 980.98 -18 982 C-18.66 982 -19.32 982 -20 982 C-20 982.66 -20 983.32 -20 984 C-20.66 984 -21.32 984 -22 984 C-22.33 984.99 -22.66 985.98 -23 987 C-23.66 987 -24.32 987 -25 987 C-25 987.66 -25 988.32 -25 989 C-25.66 989 -26.32 989 -27 989 C-27.33 989.99 -27.66 990.98 -28 992 C-28.66 992 -29.32 992 -30 992 C-30 992.66 -30 993.32 -30 994 C-30.66 994 -31.32 994 -32 994 C-32.33 994.99 -32.66 995.98 -33 997 C-33.66 997 -34.32 997 -35 997 C-35 997.66 -35 998.32 -35 999 C-35.66 999 -36.32 999 -37 999 C-37.33 999.99 -37.66 1000.98 -38 1002 C-38.66 1002 -39.32 1002 -40 1002 C-40 1002.66 -40 1003.32 -40 1004 C-40.66 1004 -41.32 1004 -42 1004 C-42.33 1004.99 -42.66 1005.98 -43 1007 C-43.66 1007 -44.32 1007 -45 1007 C-45 1007.66 -45 1008.32 -45 1009 C-45.66 1009 -46.32 1009 -47 1009 C-47.33 1009.99 -47.66 1010.98 -48 1012 C-48.66 1012 -49.32 1012 -50 1012 C-50 1012.66 -50 1013.32 -50 1014 C-50.66 1014 -51.32 1014 -52 1014 C-52.33 1014.99 -52.66 1015.98 -53 1017 C-53.66 1017 -54.32 1017 -55 1017 C-55 1017.66 -55 1018.32 -55 1019 C-55.66 1019 -56.32 1019 -57 1019 C-57.33 1019.99 -57.66 1020.98 -58 1022 C-58.66 1022 -59.32 1022 -60 1022 C-60 1022.66 -60 1023.32 -60 1024 C-60.66 1024 -61.32 1024 -62 1024 C-62.33 1024.99 -62.66 1025.98 -63 1027 C-63.66 1027 -64.32 1027 -65 1027 C-65 1027.66 -65 1028.32 -65 1029 C-65.66 1029 -66.32 1029 -67 1029 C-67.33 1029.99 -67.66 1030.98 -68 1032 C-68.66 1032 -69.32 1032 -70 1032 C-70 1032.66 -70 1033.32 -70 1034 C-70.66 1034 -71.32 1034 -72 1034 C-72.33 1034.99 -72.66 1035.98 -73 1037 C-73.66 1037 -74.32 1037 -75 1037 C-75 1037.66 -75 1038.32 -75 1039 C-75.66 1039 -76.32 1039 -77 1039 C-77.33 1039.99 -77.66 1040.98 -78 1042 C-78.66 1042 -79.32 1042 -80 1042 C-80 1042.66 -80 1043.32 -80 1044 C-80.66 1044 -81.32 1044 -82 1044 C-82.33 1044.99 -82.66 1045.98 -83 1047 C-83.66 1047 -84.32 1047 -85 1047 C-85 1047.66 -85 1048.32 -85 1049 C-85.66 1049 -86.32 1049 -87 1049 C-87.33 1049.99 -87.66 1050.98 -88 1052 C-88.66 1052 -89.32 1052 -90 1052 C-90 1052.66 -90 1053.32 -90 1054 C-90.66 1054 -91.32 1054 -92 1054 C-92.33 1054.99 -92.66 1055.98 -93 1057 C-93.66 1057 -94.32 1057 -95 1057 C-95 1057.66 -95 1058.32 -95 1059 C-95.66 1059 -96.32 1059 -97 1059 C-97.33 1059.99 -97.66 1060.98 -98 1062 C-98.66 1062 -99.32 1062 -100 1062 C-100 1062.66 -100 1063.32 -100 1064 C-100.66 1064 -101.32 1064 -102 1064 C-102.33 1064.99 -102.66 1065.98 -103 1067 C-103.66 1067 -104.32 1067 -105 1067 C-105 1067.66 -105 1068.32 -105 1069 C-105.66 1069 -106.32 1069 -107 1069 C-107.33 1069.99 -107.66 1070.98 -108 1072 C-108.66 1072 -109.32 1072 -110 1072 C-110 1072.66 -110 1073.32 -110 1074 C-110.66 1074 -111.32 1074 -112 1074 C-112.33 1074.99 -112.66 1075.98 -113 1077 C-113.66 1077 -114.32 1077 -115 1077 C-115 1077.66 -115 1078.32 -115 1079 C-115.66 1079 -116.32 1079 -117 1079 C-117.33 1079.99 -117.66 1080.98 -118 1082 C-118.66 1082 -119.32 1082 -120 1082 C-120 1082.66 -120 1083.32 -120 1084 C-120.66 1084 -121.32 1084 -122 1084 C-122.33 1084.99 -122.66 1085.98 -123 1087 C-123.66 1087 -124.32 1087 -125 1087 C-125 1087.66 -125 1088.32 -125 1089 C-125.66 1089 -126.32 1089 -127 1089 C-127.33 1089.99 -127.66 1090.98 -128 1092 C-128.66 1092 -129.32 1092 -130 1092 C-130 1092.66 -130 1093.32 -130 1094 C-130.66 1094 -131.32 1094 -132 1094 C-132.33 1094.99 -132.66 1095.98 -133 1097 C-133.66 1097 -134.32 1097 -135 1097 C-135 1097.66 -135 1098.32 -135 1099 C-135.66 1099 -136.32 1099 -137 1099 C-137.33 1099.99 -137.66 1100.98 -138 1102 C-138.66 1102 -139.32 1102 -140 1102 C-140 1102.66 -140 1103.32 -140 1104 C-140.66 1104 -141.32 1104 -142 1104 C-142 1104.66 -142 1105.32 -142 1106 C-143.72 1107.4 -145.5 1108.72 -147.31 1110 C-148.3 1110.7 -149.28 1111.4 -150.3 1112.12 C-156.25 1116.26 -156.25 1116.26 -161 1116 C-161 1116.66 -161 1117.32 -161 1118 C-164.98 1118.12 -168.96 1118.19 -172.94 1118.25 C-174.05 1118.28 -175.17 1118.32 -176.32 1118.35 C-185.32 1118.46 -192.08 1116.73 -199.19 1111.06 C-199.83 1110.55 -200.47 1110.04 -201.14 1109.52 C-201.75 1109.02 -202.37 1108.52 -203 1108 C-203.91 1107.29 -203.91 1107.29 -204.83 1106.57 C-206.27 1105.44 -207.64 1104.22 -209 1103 C-209 1102.34 -209 1101.68 -209 1101 C-209.66 1101 -210.32 1101 -211 1101 C-212.62 1099.62 -212.62 1099.62 -214 1098 C-214 1097.34 -214 1096.68 -214 1096 C-214.66 1096 -215.32 1096 -216 1096 C-217.62 1094.62 -217.62 1094.62 -219 1093 C-219 1092.34 -219 1091.68 -219 1091 C-219.66 1091 -220.32 1091 -221 1091 C-222.62 1089.62 -222.62 1089.62 -224 1088 C-224 1087.34 -224 1086.68 -224 1086 C-224.66 1086 -225.32 1086 -226 1086 C-227.62 1084.62 -227.62 1084.62 -229 1083 C-229 1082.34 -229 1081.68 -229 1081 C-229.66 1081 -230.32 1081 -231 1081 C-232.62 1079.62 -232.62 1079.62 -234 1078 C-234 1077.34 -234 1076.68 -234 1076 C-234.66 1076 -235.32 1076 -236 1076 C-237.62 1074.62 -237.62 1074.62 -239 1073 C-239 1072.34 -239 1071.68 -239 1071 C-239.66 1071 -240.32 1071 -241 1071 C-242.62 1069.62 -242.62 1069.62 -244 1068 C-244 1067.34 -244 1066.68 -244 1066 C-244.66 1066 -245.32 1066 -246 1066 C-247.62 1064.62 -247.62 1064.62 -249 1063 C-249 1062.34 -249 1061.68 -249 1061 C-249.66 1061 -250.32 1061 -251 1061 C-252.62 1059.62 -252.62 1059.62 -254 1058 C-254 1057.34 -254 1056.68 -254 1056 C-254.66 1056 -255.32 1056 -256 1056 C-257.62 1054.62 -257.62 1054.62 -259 1053 C-259 1052.34 -259 1051.68 -259 1051 C-259.66 1051 -260.32 1051 -261 1051 C-262.62 1049.62 -262.62 1049.62 -264 1048 C-264 1047.34 -264 1046.68 -264 1046 C-264.66 1046 -265.32 1046 -266 1046 C-267.62 1044.62 -267.62 1044.62 -269 1043 C-269 1042.34 -269 1041.68 -269 1041 C-269.66 1041 -270.32 1041 -271 1041 C-272.62 1039.62 -272.62 1039.62 -274 1038 C-274 1037.34 -274 1036.68 -274 1036 C-274.66 1036 -275.32 1036 -276 1036 C-277.62 1034.62 -277.62 1034.62 -279 1033 C-279 1032.34 -279 1031.68 -279 1031 C-279.66 1031 -280.32 1031 -281 1031 C-282.62 1029.62 -282.62 1029.62 -284 1028 C-284 1027.34 -284 1026.68 -284 1026 C-284.66 1026 -285.32 1026 -286 1026 C-287.62 1024.62 -287.62 1024.62 -289 1023 C-289 1022.34 -289 1021.68 -289 1021 C-289.66 1021 -290.32 1021 -291 1021 C-292.62 1019.62 -292.62 1019.62 -294 1018 C-294 1017.34 -294 1016.68 -294 1016 C-294.66 1016 -295.32 1016 -296 1016 C-297.62 1014.62 -297.62 1014.62 -299 1013 C-299 1012.34 -299 1011.68 -299 1011 C-299.66 1011 -300.32 1011 -301 1011 C-302.62 1009.62 -302.62 1009.62 -304 1008 C-304 1007.34 -304 1006.68 -304 1006 C-304.66 1006 -305.32 1006 -306 1006 C-307.62 1004.62 -307.62 1004.62 -309 1003 C-309 1002.34 -309 1001.68 -309 1001 C-309.66 1001 -310.32 1001 -311 1001 C-312.62 999.62 -312.62 999.62 -314 998 C-314 997.34 -314 996.68 -314 996 C-314.66 996 -315.32 996 -316 996 C-317.62 994.62 -317.62 994.62 -319 993 C-319 992.34 -319 991.68 -319 991 C-319.66 991 -320.32 991 -321 991 C-322.62 989.62 -322.62 989.62 -324 988 C-324 987.34 -324 986.68 -324 986 C-324.66 986 -325.32 986 -326 986 C-327.62 984.62 -327.62 984.62 -329 983 C-329 982.34 -329 981.68 -329 981 C-329.66 981 -330.32 981 -331 981 C-332.62 979.62 -332.62 979.62 -334 978 C-334 977.34 -334 976.68 -334 976 C-334.66 976 -335.32 976 -336 976 C-337.62 974.62 -337.62 974.62 -339 973 C-339 972.34 -339 971.68 -339 971 C-339.66 971 -340.32 971 -341 971 C-342.62 969.62 -342.62 969.62 -344 968 C-344 967.34 -344 966.68 -344 966 C-344.66 966 -345.32 966 -346 966 C-347.62 964.62 -347.62 964.62 -349 963 C-349 962.34 -349 961.68 -349 961 C-349.66 961 -350.32 961 -351 961 C-352.62 959.62 -352.62 959.62 -354 958 C-354 957.34 -354 956.68 -354 956 C-354.66 956 -355.32 956 -356 956 C-357.62 954.62 -357.62 954.62 -359 953 C-359 952.34 -359 951.68 -359 951 C-359.66 951 -360.32 951 -361 951 C-362.62 949.62 -362.62 949.62 -364 948 C-364 947.34 -364 946.68 -364 946 C-364.66 946 -365.32 946 -366 946 C-367.62 944.62 -367.62 944.62 -369 943 C-369 942.34 -369 941.68 -369 941 C-369.66 941 -370.32 941 -371 941 C-372.62 939.62 -372.62 939.62 -374 938 C-374 937.34 -374 936.68 -374 936 C-374.66 936 -375.32 936 -376 936 C-377.62 934.62 -377.62 934.62 -379 933 C-379 932.34 -379 931.68 -379 931 C-379.66 931 -380.32 931 -381 931 C-382.63 929.62 -382.63 929.62 -384 928 C-384 927.34 -384 926.68 -384 926 C-384.66 926 -385.32 926 -386 926 C-387.63 924.62 -387.63 924.62 -389 923 C-389 922.34 -389 921.68 -389 921 C-389.66 921 -390.32 921 -391 921 C-392.63 919.62 -392.63 919.62 -394 918 C-394 917.34 -394 916.68 -394 916 C-394.66 916 -395.32 916 -396 916 C-397.63 914.62 -397.63 914.62 -399 913 C-399 912.34 -399 911.68 -399 911 C-399.66 911 -400.32 911 -401 911 C-402.63 909.62 -402.63 909.62 -404 908 C-404 907.34 -404 906.68 -404 906 C-404.66 906 -405.32 906 -406 906 C-407.63 904.62 -407.63 904.62 -409 903 C-409 902.34 -409 901.68 -409 901 C-409.66 901 -410.32 901 -411 901 C-412.63 899.62 -412.63 899.62 -414 898 C-414 897.34 -414 896.68 -414 896 C-414.66 896 -415.32 896 -416 896 C-417.63 894.62 -417.63 894.62 -419 893 C-419 892.34 -419 891.68 -419 891 C-419.66 891 -420.32 891 -421 891 C-422.63 889.62 -422.63 889.62 -424 888 C-424 887.34 -424 886.68 -424 886 C-424.66 886 -425.32 886 -426 886 C-427.63 884.62 -427.63 884.62 -429 883 C-429 882.34 -429 881.68 -429 881 C-429.66 881 -430.32 881 -431 881 C-432.63 879.62 -432.63 879.62 -434 878 C-434 877.34 -434 876.68 -434 876 C-434.66 876 -435.32 876 -436 876 C-437.63 874.62 -437.63 874.62 -439 873 C-439 872.34 -439 871.68 -439 871 C-439.66 871 -440.32 871 -441 871 C-442.63 869.62 -442.63 869.62 -444 868 C-444 867.34 -444 866.68 -444 866 C-444.66 866 -445.32 866 -446 866 C-447.63 864.62 -447.63 864.62 -449 863 C-449 862.34 -449 861.68 -449 861 C-449.66 861 -450.32 861 -451 861 C-452.63 859.62 -452.63 859.62 -454 858 C-454 857.34 -454 856.68 -454 856 C-454.66 856 -455.32 856 -456 856 C-457.63 854.62 -457.63 854.62 -459 853 C-459 852.34 -459 851.68 -459 851 C-459.66 851 -460.32 851 -461 851 C-462.63 849.62 -462.63 849.62 -464 848 C-464 847.34 -464 846.68 -464 846 C-464.66 846 -465.32 846 -466 846 C-467.63 844.62 -467.63 844.62 -469 843 C-469 842.34 -469 841.68 -469 841 C-469.66 841 -470.32 841 -471 841 C-472.63 839.62 -472.63 839.62 -474 838 C-474 837.34 -474 836.68 -474 836 C-474.66 836 -475.32 836 -476 836 C-477.63 834.62 -477.63 834.62 -479 833 C-479 832.34 -479 831.68 -479 831 C-479.66 831 -480.32 831 -481 831 C-482.63 829.62 -482.63 829.62 -484 828 C-484 827.34 -484 826.68 -484 826 C-484.66 826 -485.32 826 -486 826 C-487.63 824.62 -487.63 824.62 -489 823 C-489 822.34 -489 821.68 -489 821 C-489.66 821 -490.32 821 -491 821 C-492.63 819.62 -492.63 819.62 -494 818 C-494 817.34 -494 816.68 -494 816 C-494.66 816 -495.32 816 -496 816 C-497.63 814.62 -497.63 814.62 -499 813 C-499 812.34 -499 811.68 -499 811 C-499.66 811 -500.32 811 -501 811 C-502.63 809.62 -502.63 809.62 -504 808 C-504 807.34 -504 806.68 -504 806 C-504.66 806 -505.32 806 -506 806 C-507.63 804.62 -507.63 804.62 -509 803 C-509 802.34 -509 801.68 -509 801 C-509.66 801 -510.32 801 -511 801 C-512.62 799.62 -512.62 799.62 -514 798 C-514 797.34 -514 796.68 -514 796 C-514.66 796 -515.32 796 -516 796 C-517.62 794.62 -517.62 794.62 -519 793 C-519 792.34 -519 791.68 -519 791 C-519.66 791 -520.32 791 -521 791 C-522.62 789.62 -522.62 789.62 -524 788 C-524 787.34 -524 786.68 -524 786 C-524.66 786 -525.32 786 -526 786 C-527.62 784.62 -527.62 784.62 -529 783 C-529 782.34 -529 781.68 -529 781 C-529.66 781 -530.32 781 -531 781 C-532.62 779.62 -532.62 779.62 -534 778 C-534 777.34 -534 776.68 -534 776 C-534.66 776 -535.32 776 -536 776 C-537.62 774.62 -537.62 774.62 -539 773 C-539 772.34 -539 771.68 -539 771 C-539.66 771 -540.32 771 -541 771 C-542.62 769.62 -542.62 769.62 -544 768 C-544 767.34 -544 766.68 -544 766 C-544.66 766 -545.32 766 -546 766 C-547.62 764.62 -547.62 764.62 -549 763 C-549 762.34 -549 761.68 -549 761 C-549.66 761 -550.32 761 -551 761 C-552.62 759.62 -552.62 759.62 -554 758 C-554 757.34 -554 756.68 -554 756 C-554.66 756 -555.32 756 -556 756 C-557.62 754.62 -557.62 754.62 -559 753 C-559 752.34 -559 751.68 -559 751 C-559.66 751 -560.32 751 -561 751 C-562.62 749.62 -562.62 749.62 -564 748 C-564 747.34 -564 746.68 -564 746 C-564.66 746 -565.32 746 -566 746 C-567.62 744.62 -567.62 744.62 -569 743 C-569 742.34 -569 741.68 -569 741 C-569.66 741 -570.32 741 -571 741 C-572.62 739.62 -572.62 739.62 -574 738 C-574 737.34 -574 736.68 -574 736 C-574.66 736 -575.32 736 -576 736 C-577.62 734.62 -577.62 734.62 -579 733 C-579 732.34 -579 731.68 -579 731 C-579.66 731 -580.32 731 -581 731 C-582.62 729.62 -582.62 729.62 -584 728 C-584 727.34 -584 726.68 -584 726 C-584.66 726 -585.32 726 -586 726 C-587.62 724.62 -587.62 724.62 -589 723 C-589 722.34 -589 721.68 -589 721 C-589.66 721 -590.32 721 -591 721 C-592.62 719.62 -592.62 719.62 -594 718 C-594 717.34 -594 716.68 -594 716 C-594.66 716 -595.32 716 -596 716 C-597.62 714.62 -597.62 714.62 -599 713 C-599 712.34 -599 711.68 -599 711 C-599.66 711 -600.32 711 -601 711 C-602.62 709.62 -602.62 709.62 -604 708 C-604 707.34 -604 706.68 -604 706 C-604.66 706 -605.32 706 -606 706 C-607.62 704.62 -607.62 704.62 -609 703 C-609 702.34 -609 701.68 -609 701 C-609.66 701 -610.32 701 -611 701 C-612.62 699.62 -612.62 699.62 -614 698 C-614 697.34 -614 696.68 -614 696 C-614.66 696 -615.32 696 -616 696 C-617.62 694.62 -617.62 694.62 -619 693 C-619 692.34 -619 691.68 -619 691 C-619.66 691 -620.32 691 -621 691 C-629.25 683.2 -635.86 673.81 -636.37 662.3 C-636.4 660.11 -636.43 657.93 -636.44 655.75 C-636.47 654.67 -636.5 653.59 -636.54 652.47 C-636.6 642.58 -633.45 635.57 -627.31 627.88 C-626.73 627.13 -626.15 626.38 -625.55 625.62 C-625.04 625.08 -624.53 624.55 -624 624 C-623.34 624 -622.68 624 -622 624 C-622 623.34 -622 622.68 -622 622 C-621.34 622 -620.68 622 -620 622 C-620 621.34 -620 620.68 -620 620 C-618.62 618.38 -618.62 618.38 -617 617 C-616.34 617 -615.68 617 -615 617 C-614.67 616.01 -614.34 615.02 -614 614 C-613.34 614 -612.68 614 -612 614 C-612 613.34 -612 612.68 -612 612 C-610.62 610.38 -610.62 610.38 -609 609 C-608.34 609 -607.68 609 -607 609 C-607 608.34 -607 607.68 -607 607 C-606.34 607 -605.68 607 -605 607 C-605 606.34 -605 605.68 -605 605 C-603.62 603.38 -603.62 603.38 -602 602 C-601.34 602 -600.68 602 -600 602 C-600 601.34 -600 600.68 -600 600 C-598.35 598.65 -596.68 597.31 -595 596 C-594.67 595.34 -594.34 594.68 -594 594 C-593.34 594 -592.68 594 -592 594 C-592 593.34 -592 592.68 -592 592 C-589.63 589.38 -589.63 589.38 -587 587 C-586.34 587 -585.68 587 -585 587 C-584.67 586.01 -584.34 585.02 -584 584 C-583.34 584 -582.68 584 -582 584 C-582 583.34 -582 582.68 -582 582 C-581.34 582 -580.68 582 -580 582 C-580 581.34 -580 580.68 -580 580 C-578.62 578.38 -578.62 578.38 -577 577 C-576.34 577 -575.68 577 -575 577 C-574.67 576.01 -574.34 575.02 -574 574 C-573.34 574 -572.68 574 -572 574 C-572 573.34 -572 572.68 -572 572 C-571.34 572 -570.68 572 -570 572 C-569.67 571.01 -569.34 570.02 -569 569 C-568.34 569 -567.68 569 -567 569 C-567 568.34 -567 567.68 -567 567 C-566.34 567 -565.68 567 -565 567 C-564.67 566.01 -564.34 565.02 -564 564 C-563.34 564 -562.68 564 -562 564 C-562 563.34 -562 562.68 -562 562 C-561.34 562 -560.68 562 -560 562 C-559.67 561.01 -559.34 560.02 -559 559 C-558.34 559 -557.68 559 -557 559 C-557 558.34 -557 557.68 -557 557 C-556.34 557 -555.68 557 -555 557 C-554.67 556.01 -554.34 555.02 -554 554 C-553.34 554 -552.68 554 -552 554 C-552 553.34 -552 552.68 -552 552 C-551.34 552 -550.68 552 -550 552 C-550 551.34 -550 550.68 -550 550 C-548.68 548.74 -548.68 548.74 -546.88 547.31 C-543.68 544.67 -541.06 541.86 -538.41 538.68 C-536.4 536.28 -534.31 534.12 -532 532 C-531.34 532 -530.68 532 -530 532 C-530 531.34 -530 530.68 -530 530 C-528.62 528.38 -528.62 528.38 -527 527 C-526.34 527 -525.68 527 -525 527 C-524.67 526.01 -524.34 525.02 -524 524 C-523.34 524 -522.68 524 -522 524 C-522 523.34 -522 522.68 -522 522 C-520.62 520.38 -520.62 520.38 -519 519 C-518.34 519 -517.68 519 -517 519 C-517 518.34 -517 517.68 -517 517 C-516.34 517 -515.68 517 -515 517 C-515 516.34 -515 515.68 -515 515 C-513.62 513.38 -513.62 513.38 -512 512 C-511.34 512 -510.68 512 -510 512 C-509.67 511.01 -509.34 510.02 -509 509 C-508.34 509 -507.68 509 -507 509 C-507 508.34 -507 507.68 -507 507 C-506.34 507 -505.68 507 -505 507 C-505 506.34 -505 505.68 -505 505 C-503.63 503.38 -503.63 503.38 -502 502 C-501.34 502 -500.68 502 -500 502 C-499.67 501.01 -499.34 500.02 -499 499 C-498.34 499 -497.68 499 -497 499 C-497 498.34 -497 497.68 -497 497 C-496.34 497 -495.68 497 -495 497 C-495 496.34 -495 495.68 -495 495 C-493.5 493.56 -493.5 493.56 -491.56 492 C-488.85 489.85 -488.85 489.85 -487 487 C-486.34 487 -485.68 487 -485 487 C-484.67 486.01 -484.34 485.02 -484 484 C-483.34 484 -482.68 484 -482 484 C-482 483.34 -482 482.68 -482 482 C-481.34 482 -480.68 482 -480 482 C-479.67 481.01 -479.34 480.02 -479 479 C-478.34 479 -477.68 479 -477 479 C-477 478.34 -477 477.68 -477 477 C-476.34 477 -475.68 477 -475 477 C-474.67 476.01 -474.34 475.02 -474 474 C-473.34 474 -472.68 474 -472 474 C-472 473.34 -472 472.68 -472 472 C-470.63 470.38 -470.63 470.38 -469 469 C-468.34 469 -467.68 469 -467 469 C-467 468.34 -467 467.68 -467 467 C-465.63 465.38 -465.63 465.38 -464 464 C-463.34 464 -462.68 464 -462 464 C-462 463.34 -462 462.68 -462 462 C-461.34 462 -460.68 462 -460 462 C-460 461.34 -460 460.68 -460 460 C-458.63 458.38 -458.63 458.38 -457 457 C-456.34 457 -455.68 457 -455 457 C-454.67 456.01 -454.34 455.02 -454 454 C-453.34 454 -452.68 454 -452 454 C-452 453.34 -452 452.68 -452 452 C-451.34 452 -450.68 452 -450 452 C-449.67 451.01 -449.34 450.02 -449 449 C-448.34 449 -447.68 449 -447 449 C-447 448.34 -447 447.68 -447 447 C-446.34 447 -445.68 447 -445 447 C-445 446.34 -445 445.68 -445 445 C-443.63 443.38 -443.63 443.38 -442 442 C-441.34 442 -440.68 442 -440 442 C-440 441.34 -440 440.68 -440 440 C-438.68 438.74 -438.68 438.74 -436.88 437.31 C-434.33 435.21 -432.15 433.11 -430.06 430.56 C-427.29 427.2 -424.19 424.44 -420.88 421.62 C-418.46 419.54 -416.23 417.29 -414 415 C-404 405 -404 405 -401.31 402.38 C-398.89 400.03 -398.89 400.03 -397 397 C-396.34 397 -395.68 397 -395 397 C-394.67 396.01 -394.34 395.02 -394 394 C-393.34 394 -392.68 394 -392 394 C-392 393.34 -392 392.68 -392 392 C-390.63 390.38 -390.63 390.38 -389 389 C-388.34 389 -387.68 389 -387 389 C-387 388.34 -387 387.68 -387 387 C-386.34 387 -385.68 387 -385 387 C-384.67 386.01 -384.34 385.02 -384 384 C-383.34 384 -382.68 384 -382 384 C-382 383.34 -382 382.68 -382 382 C-381.34 382 -380.68 382 -380 382 C-379.67 381.01 -379.34 380.02 -379 379 C-378.34 379 -377.68 379 -377 379 C-377 378.34 -377 377.68 -377 377 C-375.62 375.38 -375.62 375.38 -374 374 C-373.34 374 -372.68 374 -372 374 C-372 373.34 -372 372.68 -372 372 C-371.34 372 -370.68 372 -370 372 C-369.67 371.01 -369.34 370.02 -369 369 C-368.34 369 -367.68 369 -367 369 C-367 368.34 -367 367.68 -367 367 C-366.34 367 -365.68 367 -365 367 C-364.67 366.01 -364.34 365.02 -364 364 C-363.34 364 -362.68 364 -362 364 C-362 363.34 -362 362.68 -362 362 C-361.34 362 -360.68 362 -360 362 C-359.67 361.01 -359.34 360.02 -359 359 C-358.34 359 -357.68 359 -357 359 C-357 358.34 -357 357.68 -357 357 C-356.34 357 -355.68 357 -355 357 C-354.67 356.01 -354.34 355.02 -354 354 C-353.34 354 -352.68 354 -352 354 C-352 353.34 -352 352.68 -352 352 C-351.34 352 -350.68 352 -350 352 C-349.67 351.01 -349.34 350.02 -349 349 C-348.34 349 -347.68 349 -347 349 C-347 348.34 -347 347.68 -347 347 C-346.34 347 -345.68 347 -345 347 C-344.67 346.01 -344.34 345.02 -344 344 C-343.34 344 -342.68 344 -342 344 C-342 343.34 -342 342.68 -342 342 C-340.62 340.38 -340.62 340.38 -339 339 C-338.34 339 -337.68 339 -337 339 C-337 338.34 -337 337.68 -337 337 C-336.34 337 -335.68 337 -335 337 C-334.67 336.01 -334.34 335.02 -334 334 C-333.34 334 -332.68 334 -332 334 C-332 333.34 -332 332.68 -332 332 C-331.34 332 -330.68 332 -330 332 C-329.67 331.01 -329.34 330.02 -329 329 C-328.34 329 -327.68 329 -327 329 C-327 328.34 -327 327.68 -327 327 C-326.34 327 -325.68 327 -325 327 C-324.67 326.01 -324.34 325.02 -324 324 C-323.34 324 -322.68 324 -322 324 C-322 323.34 -322 322.68 -322 322 C-321.34 322 -320.68 322 -320 322 C-319.67 321.01 -319.34 320.02 -319 319 C-318.34 319 -317.68 319 -317 319 C-317 318.34 -317 317.68 -317 317 C-316.34 317 -315.68 317 -315 317 C-314.67 316.01 -314.34 315.02 -314 314 C-313.34 314 -312.68 314 -312 314 C-312 313.34 -312 312.68 -312 312 C-311.34 312 -310.68 312 -310 312 C-309.67 311.01 -309.34 310.02 -309 309 C-308.34 309 -307.68 309 -307 309 C-307 308.34 -307 307.68 -307 307 C-306.34 307 -305.68 307 -305 307 C-304.63 306.13 -304.63 306.13 -304.25 305.25 C-302.82 302.67 -301.22 300.94 -299 299 C-298.34 299 -297.68 299 -297 299 C-297 298.34 -297 297.68 -297 297 C-295.43 295.45 -295.43 295.45 -293.31 293.69 C-290.05 290.92 -286.99 288.07 -284 285 C-274 275 -274 275 -271.75 272.81 C-269.52 270.54 -267.43 268.22 -265.32 265.83 C-259.18 258.99 -252.69 252.5 -246.19 246 C-244.04 243.85 -241.9 241.69 -239.76 239.53 C-238.39 238.16 -237.03 236.8 -235.66 235.43 C-235.02 234.78 -234.38 234.14 -233.72 233.47 C-229.23 229 -229.23 229 -227 229 C-226.73 228.36 -226.46 227.72 -226.19 227.06 C-225 225 -225 225 -222 224 C-221.71 223.4 -221.42 222.8 -221.12 222.19 C-219.63 219.29 -217.55 218.04 -215 216 C-214.06 214.95 -213.15 213.88 -212.25 212.8 C-206.87 206.58 -201 200.82 -195.19 195.01 C-193.17 192.98 -191.16 190.95 -189.14 188.92 C-187.86 187.63 -186.58 186.35 -185.29 185.06 C-184.39 184.15 -184.39 184.15 -183.47 183.22 C-179.23 179 -179.23 179 -177 179 C-176.77 178.45 -176.55 177.9 -176.32 177.33 C-174.6 174.3 -172.43 172.2 -169.95 169.75 C-169.45 169.26 -168.96 168.77 -168.45 168.26 C-166.86 166.69 -165.28 165.13 -163.69 163.56 C-162.63 162.52 -161.57 161.47 -160.52 160.42 C-158.56 158.48 -156.61 156.55 -154.65 154.62 C-149.91 149.97 -149.91 149.97 -145.31 145.19 C-144 144 -144 144 -142 144 C-141.75 143.42 -141.49 142.84 -141.23 142.24 C-138.31 136.92 -133.07 132.84 -128.44 129 C-125.98 126.94 -123.88 124.79 -121.8 122.34 C-117.94 117.88 -113.86 113.68 -109.69 109.5 C-108.97 108.77 -108.26 108.05 -107.52 107.3 C-106.5 106.27 -106.5 106.27 -105.45 105.22 C-104.53 104.29 -104.53 104.29 -103.58 103.34 C-102 102 -102 102 -100 102 C-99.75 101.42 -99.5 100.85 -99.25 100.25 C-97.82 97.67 -96.22 95.94 -94 94 C-93.34 94 -92.68 94 -92 94 C-91.79 93.46 -91.59 92.93 -91.38 92.38 C-89.47 89.08 -86.95 86.41 -84 84 C-83.34 84 -82.68 84 -82 84 C-81.63 83.14 -81.63 83.14 -81.25 82.27 C-79.79 79.62 -78.07 77.81 -75.94 75.67 C-75.14 74.87 -74.34 74.07 -73.52 73.25 C-72.69 72.43 -71.86 71.6 -71 70.75 C-70.17 69.91 -69.33 69.07 -68.48 68.2 C-67.68 67.41 -66.88 66.62 -66.06 65.8 C-65.33 65.07 -64.6 64.34 -63.85 63.59 C-62 62 -62 62 -60 62 C-59.79 61.46 -59.59 60.93 -59.38 60.38 C-57.47 57.08 -54.95 54.41 -52 52 C-51.34 52 -50.68 52 -50 52 C-49.73 51.36 -49.46 50.72 -49.19 50.06 C-48 48 -48 48 -45 47 C-44.67 46.01 -44.34 45.02 -44 44 C-43.34 44 -42.68 44 -42 44 C-41.73 43.4 -41.46 42.8 -41.19 42.19 C-40 40 -38.9 38.59 -37 37 C-36.34 37 -35.68 37 -35 37 C-34.67 36.01 -34.34 35.02 -34 34 C-33.34 34 -32.68 34 -32 34 C-32 33.34 -32 32.68 -32 32 C-31.34 32 -30.68 32 -30 32 C-29.73 31.36 -29.46 30.72 -29.19 30.06 C-28 28 -28 28 -25 27 C-24.67 26.34 -24.34 25.68 -24 25 C-23 23 -23 23 -20 22 C-19.32 20.68 -18.65 19.34 -18 18 C-16 15.75 -16 15.75 -14 14 C-13.34 14 -12.68 14 -12 14 C-12 13.34 -12 12.68 -12 12 C-11.34 12 -10.68 12 -10 12 C-9.73 11.36 -9.46 10.72 -9.19 10.06 C-8 8 -8 8 -5 7 C-4.67 6.01 -4.34 5.02 -4 4 C-3.34 4 -2.68 4 -2 4 C-1.34 2.68 -0.68 1.36 0 0 Z M78.25 251.38 C77.03 252.59 77.03 252.59 75.79 253.83 C73.14 256.47 70.5 259.12 67.87 261.77 C66.02 263.62 64.17 265.46 62.33 267.31 C58.47 271.16 54.63 275.02 50.78 278.88 C46.34 283.35 41.89 287.8 37.43 292.26 C33.13 296.55 28.83 300.85 24.54 305.15 C22.72 306.98 20.89 308.81 19.07 310.63 C16.53 313.17 13.99 315.72 11.46 318.26 C10.7 319.02 9.94 319.78 9.16 320.56 C8.47 321.25 7.79 321.94 7.08 322.66 C6.48 323.26 5.89 323.86 5.27 324.48 C3.79 325.93 3.79 325.93 4 328 C3.34 328 2.68 328 2 328 C-2.44 332.8 -3.84 337 -4.19 343.44 C-3.51 356.37 7.88 365.17 16.52 373.77 C17.67 374.93 18.82 376.09 19.97 377.24 C23.08 380.36 26.19 383.47 29.31 386.58 C32.58 389.84 35.84 393.11 39.11 396.38 C44.59 401.86 50.07 407.34 55.56 412.82 C61.89 419.14 68.22 425.47 74.54 431.81 C79.98 437.26 85.43 442.7 90.88 448.15 C94.13 451.4 97.38 454.64 100.62 457.89 C103.67 460.95 106.72 464 109.78 467.04 C110.9 468.16 112.02 469.28 113.13 470.39 C123.93 481.78 123.93 481.78 138.38 486.25 C144.21 485.85 149.23 483.33 154 480 C154 479.34 154 478.68 154 478 C154.58 477.74 155.17 477.48 155.77 477.21 C158.16 475.91 159.75 474.51 161.67 472.59 C162.39 471.88 163.1 471.17 163.84 470.45 C165 469.28 165 469.28 166.18 468.1 C167 467.28 167.82 466.46 168.67 465.62 C171.39 462.92 174.1 460.21 176.81 457.49 C178.22 456.08 179.63 454.68 181.04 453.27 C185.48 448.84 189.91 444.41 194.34 439.97 C198.9 435.41 203.47 430.85 208.04 426.3 C211.97 422.39 215.9 418.47 219.82 414.54 C222.16 412.2 224.51 409.86 226.85 407.53 C229.47 404.92 232.08 402.3 234.69 399.68 C235.46 398.92 236.23 398.15 237.03 397.37 C244.54 389.81 244.54 389.81 248.56 380.17 C248.52 379.37 248.48 378.57 248.44 377.75 C248.42 376.94 248.39 376.13 248.37 375.3 C247.98 372.86 247.22 371.13 246 369 C245.34 369 244.68 369 244 369 C243.67 368.01 243.34 367.02 243 366 C242.34 366 241.68 366 241 366 C241 365.34 241 364.68 241 364 C235.2 362.1 230.95 361.62 225.21 363.88 C220.28 366.39 215.68 369.85 212 374 C212 374.66 212 375.32 212 376 C211.34 376 210.68 376 210 376 C208.33 377.33 208.33 377.33 207 379 C207 379.66 207 380.32 207 381 C206.34 381 205.68 381 205 381 C203.33 382.33 203.33 382.33 202 384 C202 384.66 202 385.32 202 386 C201.34 386 200.68 386 200 386 C198.33 387.33 198.33 387.33 197 389 C197 389.66 197 390.32 197 391 C196.34 391 195.68 391 195 391 C193.33 392.33 193.33 392.33 192 394 C192 394.66 192 395.32 192 396 C191.34 396 190.68 396 190 396 C188.33 397.33 188.33 397.33 187 399 C187 399.66 187 400.32 187 401 C186.34 401 185.68 401 185 401 C183.33 402.33 183.33 402.33 182 404 C182 404.66 182 405.32 182 406 C181.34 406 180.68 406 180 406 C178.33 407.33 178.33 407.33 177 409 C177 409.66 177 410.32 177 411 C176.34 411 175.68 411 175 411 C173.33 412.33 173.33 412.33 172 414 C172 414.66 172 415.32 172 416 C171.34 416 170.68 416 170 416 C168.33 417.33 168.33 417.33 167 419 C167 419.66 167 420.32 167 421 C166.34 421 165.68 421 165 421 C163.33 422.33 163.33 422.33 162 424 C162 424.66 162 425.32 162 426 C161.34 426 160.68 426 160 426 C158.33 427.33 158.33 427.33 157 429 C157 429.66 157 430.32 157 431 C156.34 431 155.68 431 155 431 C153.33 432.33 153.33 432.33 152 434 C152 434.66 152 435.32 152 436 C151.34 436 150.68 436 150 436 C148.33 437.33 148.33 437.33 147 439 C147 439.66 147 440.32 147 441 C143.09 439.67 140.69 438.07 137.78 435.16 C136.98 434.38 136.18 433.59 135.36 432.78 C134.51 431.93 133.67 431.07 132.8 430.2 C131.48 428.88 131.48 428.88 130.14 427.54 C127.81 425.22 125.49 422.89 123.17 420.55 C121.75 419.12 120.32 417.7 118.89 416.28 C116.14 413.55 113.41 410.81 110.67 408.07 C109.82 407.22 108.96 406.37 108.08 405.5 C107.3 404.71 106.51 403.91 105.71 403.09 C105.01 402.4 104.32 401.7 103.61 400.99 C101.95 398.94 101.4 397.58 101 395 C101.66 395 102.32 395 103 395 C104.67 393.67 104.67 393.67 106 392 C106 391.34 106 390.68 106 390 C106.66 390 107.32 390 108 390 C109.67 388.67 109.67 388.67 111 387 C111 386.34 111 385.68 111 385 C111.66 385 112.32 385 113 385 C114.67 383.67 114.67 383.67 116 382 C116 381.34 116 380.68 116 380 C116.66 380 117.32 380 118 380 C119.67 378.67 119.67 378.67 121 377 C121 376.34 121 375.68 121 375 C121.66 375 122.32 375 123 375 C124.67 373.67 124.67 373.67 126 372 C126 371.34 126 370.68 126 370 C126.66 370 127.32 370 128 370 C129.67 368.67 129.67 368.67 131 367 C131 366.34 131 365.68 131 365 C131.66 365 132.32 365 133 365 C134.67 363.67 134.67 363.67 136 362 C136 361.34 136 360.68 136 360 C136.66 360 137.32 360 138 360 C139.67 358.67 139.67 358.67 141 357 C141 356.34 141 355.68 141 355 C141.66 355 142.32 355 143 355 C144.67 353.67 144.67 353.67 146 352 C146 351.34 146 350.68 146 350 C146.66 350 147.32 350 148 350 C149.67 348.67 149.67 348.67 151 347 C151 346.34 151 345.68 151 345 C151.66 345 152.32 345 153 345 C154.67 343.67 154.67 343.67 156 342 C156 341.34 156 340.68 156 340 C156.66 340 157.32 340 158 340 C159.67 338.67 159.67 338.67 161 337 C161 336.34 161 335.68 161 335 C161.66 335 162.32 335 163 335 C164.67 333.67 164.67 333.67 166 332 C166 331.34 166 330.68 166 330 C166.66 330 167.32 330 168 330 C170.94 326.16 171.41 323.21 171.38 318.44 C171.38 317.32 171.39 316.21 171.4 315.06 C170.97 311.76 170.34 310.33 168 308 C167.34 308 166.68 308 166 308 C166 307.34 166 306.68 166 306 C162.74 304.06 160.27 303.73 156.5 303.75 C155.09 303.74 155.09 303.74 153.66 303.73 C150.96 304 149.31 304.63 147 306 C147 306.66 147 307.32 147 308 C146.47 308.21 145.93 308.41 145.38 308.62 C142.02 310.57 139.53 313.26 136.84 316.03 C136.24 316.64 135.63 317.26 135 317.89 C133.69 319.23 132.37 320.57 131.06 321.91 C128.99 324.03 126.9 326.14 124.82 328.25 C118.89 334.24 112.97 340.25 107.07 346.27 C103.46 349.95 99.84 353.62 96.21 357.29 C94.82 358.68 93.45 360.09 92.07 361.5 C90.16 363.47 88.23 365.42 86.29 367.36 C85.72 367.95 85.16 368.54 84.58 369.15 C80.7 372.99 80.7 372.99 77.33 373.04 C74.86 371.94 73.34 370.85 71.42 368.95 C70.76 368.31 70.1 367.67 69.43 367.01 C68.73 366.31 68.04 365.61 67.33 364.89 C66.61 364.18 65.88 363.46 65.14 362.72 C63.61 361.2 62.09 359.68 60.58 358.16 C58.26 355.82 55.92 353.52 53.57 351.21 C52.09 349.73 50.62 348.25 49.14 346.77 C48.44 346.08 47.74 345.39 47.02 344.69 C43.35 340.95 41.12 338.5 41 333 C41.99 332.67 42.98 332.34 44 332 C44 331.34 44 330.68 44 330 C44.66 330 45.32 330 46 330 C46 329.34 46 328.68 46 328 C46.99 327.67 47.98 327.34 49 327 C49 326.34 49 325.68 49 325 C49.66 325 50.32 325 51 325 C51 324.34 51 323.68 51 323 C51.99 322.67 52.98 322.34 54 322 C54 321.34 54 320.68 54 320 C54.66 320 55.32 320 56 320 C56 319.34 56 318.68 56 318 C56.99 317.67 57.98 317.34 59 317 C59 316.34 59 315.68 59 315 C59.66 315 60.32 315 61 315 C61 314.34 61 313.68 61 313 C61.99 312.67 62.98 312.34 64 312 C64 311.34 64 310.68 64 310 C64.66 310 65.32 310 66 310 C66 309.34 66 308.68 66 308 C66.99 307.67 67.98 307.34 69 307 C69 306.34 69 305.68 69 305 C69.66 305 70.32 305 71 305 C71 304.34 71 303.68 71 303 C71.99 302.67 72.98 302.34 74 302 C74 301.34 74 300.68 74 300 C74.66 300 75.32 300 76 300 C76 299.34 76 298.68 76 298 C76.99 297.67 77.98 297.34 79 297 C79 296.34 79 295.68 79 295 C79.66 295 80.32 295 81 295 C81 294.34 81 293.68 81 293 C81.99 292.67 82.98 292.34 84 292 C84 291.34 84 290.68 84 290 C84.66 290 85.32 290 86 290 C86 289.34 86 288.68 86 288 C86.99 287.67 87.98 287.34 89 287 C89 286.34 89 285.68 89 285 C89.66 285 90.32 285 91 285 C91 284.34 91 283.68 91 283 C91.99 282.67 92.98 282.34 94 282 C94 281.34 94 280.68 94 280 C94.66 280 95.32 280 96 280 C96 279.34 96 278.68 96 278 C96.99 277.67 97.98 277.34 99 277 C99 276.34 99 275.68 99 275 C99.66 275 100.32 275 101 275 C101 274.34 101 273.68 101 273 C101.99 272.67 102.98 272.34 104 272 C104 271.34 104 270.68 104 270 C104.66 270 105.32 270 106 270 C106 269.34 106 268.68 106 268 C106.99 267.67 107.98 267.34 109 267 C109 266.34 109 265.68 109 265 C109.66 265 110.32 265 111 265 C116.24 259.64 116.54 255.34 116.47 247.99 C115.96 244.77 115.28 243.3 113 241 C112.34 241 111.68 241 111 241 C111 240.34 111 239.68 111 239 C107.46 236.03 104.07 235.26 99.57 235.49 C91.18 237.16 84.05 245.52 78.25 251.38 Z M-132.43 457.64 C-135.83 462.49 -135.9 468.3 -135 474 C-130.04 485.17 -119.65 493.51 -111.12 502.07 C-109.95 503.25 -108.79 504.42 -107.62 505.6 C-103.82 509.42 -100.02 513.24 -96.22 517.05 C-94.91 518.37 -93.59 519.69 -92.27 521.02 C-86.8 526.51 -81.32 532.01 -75.84 537.5 C-68.02 545.34 -60.21 553.18 -52.41 561.04 C-46.9 566.59 -41.38 572.12 -35.86 577.65 C-32.57 580.95 -29.28 584.24 -26.01 587.55 C-22.93 590.66 -19.84 593.76 -16.73 596.85 C-15.6 597.98 -14.48 599.11 -13.36 600.25 C-6.37 607.34 0.45 614.11 10.69 615.5 C14.6 614.91 17.45 613.74 21 612 C21 611.34 21 610.68 21 610 C22.13 609.6 22.13 609.6 23.27 609.2 C26.01 607.99 27.51 606.87 29.6 604.78 C30.28 604.11 30.95 603.45 31.64 602.76 C32.37 602.03 33.09 601.31 33.83 600.56 C34.61 599.79 35.38 599.02 36.17 598.23 C38.73 595.69 41.27 593.14 43.81 590.59 C45.59 588.81 47.36 587.04 49.14 585.27 C52.86 581.56 56.57 577.83 60.28 574.11 C64.56 569.82 68.85 565.53 73.14 561.26 C77.28 557.13 81.42 552.99 85.55 548.86 C87.3 547.1 89.05 545.35 90.81 543.6 C93.27 541.15 95.72 538.69 98.17 536.22 C99.25 535.15 99.25 535.15 100.36 534.05 C108.59 525.8 108.59 525.8 111.69 515 C111.34 508.28 107.58 504.36 102.81 500 C98.23 498.37 93.75 497.94 89 499 C80.57 503.21 74.21 510.45 67.72 517.09 C65.7 519.15 63.67 521.2 61.64 523.25 C56.6 528.34 51.58 533.44 46.56 538.54 C42.3 542.87 38.04 547.19 33.76 551.5 C31.76 553.52 29.77 555.56 27.79 557.59 C26.57 558.82 25.34 560.06 24.12 561.29 C23.29 562.14 23.29 562.14 22.46 563.01 C19.45 566.01 17.31 567.71 13 568 C13 567.34 13 566.68 13 566 C12.34 566 11.68 566 11 566 C11 565.34 11 564.68 11 564 C9.67 562.33 9.67 562.33 8 561 C7.34 561 6.68 561 6 561 C6 560.34 6 559.68 6 559 C4.67 557.33 4.67 557.33 3 556 C2.34 556 1.68 556 1 556 C1 555.34 1 554.68 1 554 C-0.33 552.33 -0.33 552.33 -2 551 C-2.66 551 -3.32 551 -4 551 C-4 550.34 -4 549.68 -4 549 C-5.33 547.33 -5.33 547.33 -7 546 C-7.66 546 -8.32 546 -9 546 C-9 545.34 -9 544.68 -9 544 C-10.33 542.33 -10.33 542.33 -12 541 C-12.66 541 -13.32 541 -14 541 C-14 540.34 -14 539.68 -14 539 C-15.33 537.33 -15.33 537.33 -17 536 C-17.66 536 -18.32 536 -19 536 C-19 535.34 -19 534.68 -19 534 C-20.33 532.33 -20.33 532.33 -22 531 C-22.66 531 -23.32 531 -24 531 C-24 530.34 -24 529.68 -24 529 C-25.33 527.33 -25.33 527.33 -27 526 C-27.66 526 -28.32 526 -29 526 C-29 525.34 -29 524.68 -29 524 C-30.33 522.33 -30.33 522.33 -32 521 C-32.66 521 -33.32 521 -34 521 C-34 520.34 -34 519.68 -34 519 C-35.33 517.33 -35.33 517.33 -37 516 C-37.66 516 -38.32 516 -39 516 C-39 515.34 -39 514.68 -39 514 C-40.33 512.33 -40.33 512.33 -42 511 C-42.66 511 -43.32 511 -44 511 C-44 510.34 -44 509.68 -44 509 C-45.33 507.33 -45.33 507.33 -47 506 C-47.66 506 -48.32 506 -49 506 C-49 505.34 -49 504.68 -49 504 C-50.33 502.33 -50.33 502.33 -52 501 C-52.66 501 -53.32 501 -54 501 C-54 500.34 -54 499.68 -54 499 C-55.33 497.33 -55.33 497.33 -57 496 C-57.66 496 -58.32 496 -59 496 C-59 495.34 -59 494.68 -59 494 C-60.33 492.33 -60.33 492.33 -62 491 C-62.66 491 -63.32 491 -64 491 C-64 490.34 -64 489.68 -64 489 C-65.33 487.33 -65.33 487.33 -67 486 C-67.66 486 -68.32 486 -69 486 C-69 485.34 -69 484.68 -69 484 C-70.33 482.33 -70.33 482.33 -72 481 C-72.66 481 -73.32 481 -74 481 C-74 480.34 -74 479.68 -74 479 C-75.33 477.33 -75.33 477.33 -77 476 C-77.66 476 -78.32 476 -79 476 C-79 475.34 -79 474.68 -79 474 C-80.33 472.33 -80.33 472.33 -82 471 C-82.66 471 -83.32 471 -84 471 C-84 470.34 -84 469.68 -84 469 C-85.33 467.33 -85.33 467.33 -87 466 C-87.66 466 -88.32 466 -89 466 C-89 465.34 -89 464.68 -89 464 C-90.33 462.33 -90.33 462.33 -92 461 C-92.66 461 -93.32 461 -94 461 C-94 460.34 -94 459.68 -94 459 C-96.11 457.02 -96.11 457.02 -98.75 455 C-99.63 454.3 -100.51 453.6 -101.42 452.88 C-112.39 444.9 -123.97 447.97 -132.43 457.64 Z M-237.28 562.22 C-244.44 569.99 -245.64 576.17 -245.38 586.51 C-244.78 596.54 -239.96 605.38 -235.4 614.14 C-234.05 616.89 -233 619.61 -232 622.5 C-230.61 626.52 -228.95 630.22 -227 634 C-224.6 638.65 -222.77 643.28 -221.06 648.22 C-219.9 651.27 -218.49 654.1 -217 657 C-214.6 661.65 -212.77 666.28 -211.06 671.22 C-209.9 674.27 -208.49 677.1 -207 680 C-204.6 684.65 -202.77 689.28 -201.06 694.22 C-199.9 697.27 -198.49 700.1 -197 703 C-194.6 707.65 -192.77 712.28 -191.06 717.22 C-189.9 720.27 -188.49 723.1 -187 726 C-185.05 729.78 -183.39 733.48 -182 737.5 C-180.24 742.61 -177.92 747.29 -175.44 752.09 C-174.12 754.75 -173.03 757.4 -172 760.19 C-168.59 768.98 -163.81 774.79 -156 780 C-149.46 781.13 -144.11 780.66 -138.5 777 C-133.68 773.13 -130.48 769.33 -129.79 763.05 C-130.27 752.04 -136.65 740.34 -141.62 730.75 C-145.06 723.9 -149 715.79 -149 708 C-148.01 707.67 -147.02 707.34 -146 707 C-146 706.34 -146 705.68 -146 705 C-145.34 705 -144.68 705 -144 705 C-144 704.34 -144 703.68 -144 703 C-143.01 702.67 -142.02 702.34 -141 702 C-141 701.34 -141 700.68 -141 700 C-140.34 700 -139.68 700 -139 700 C-139 699.34 -139 698.68 -139 698 C-138.01 697.67 -137.02 697.34 -136 697 C-136 696.34 -136 695.68 -136 695 C-135.34 695 -134.68 695 -134 695 C-134 694.34 -134 693.68 -134 693 C-133.01 692.67 -132.02 692.34 -131 692 C-131 691.34 -131 690.68 -131 690 C-130.34 690 -129.68 690 -129 690 C-129 689.34 -129 688.68 -129 688 C-128.01 687.67 -127.02 687.34 -126 687 C-126 686.34 -126 685.68 -126 685 C-125.34 685 -124.68 685 -124 685 C-124 684.34 -124 683.68 -124 683 C-123.01 682.67 -122.02 682.34 -121 682 C-121 681.34 -121 680.68 -121 680 C-120.34 680 -119.68 680 -119 680 C-119 679.34 -119 678.68 -119 678 C-118.01 677.67 -117.02 677.34 -116 677 C-116 676.34 -116 675.68 -116 675 C-115.04 674.6 -115.04 674.6 -114.06 674.19 C-111.67 673.11 -111.67 673.11 -111 670 C-110.34 670 -109.68 670 -109 670 C-109 669.34 -109 668.68 -109 668 C-108.01 667.67 -107.02 667.34 -106 667 C-106 666.34 -106 665.68 -106 665 C-105.34 665 -104.68 665 -104 665 C-104 664.34 -104 663.68 -104 663 C-103.01 662.67 -102.02 662.34 -101 662 C-101 661.34 -101 660.68 -101 660 C-100.34 660 -99.68 660 -99 660 C-99 659.34 -99 658.68 -99 658 C-98.01 657.67 -97.02 657.34 -96 657 C-96 656.34 -96 655.68 -96 655 C-95.04 654.6 -95.04 654.6 -94.06 654.19 C-91.67 653.11 -91.67 653.11 -91 650 C-86.42 648.56 -84.1 649.52 -79.88 651.62 C-78.73 652.18 -77.59 652.74 -76.41 653.31 C-74.72 654.15 -74.72 654.15 -73 655 C-66.59 658.03 -60.18 660.77 -53.47 663.09 C-51 664 -51 664 -47.69 665.75 C-41.63 667.8 -33.59 668.51 -27.57 665.98 C-27.05 665.66 -26.54 665.33 -26 665 C-26 664.34 -26 663.68 -26 663 C-25.4 662.75 -24.8 662.5 -24.19 662.25 C-21.58 660.76 -20.56 659.57 -19 657 C-18.35 653.94 -18.35 653.94 -18.19 650.62 C-18.1 649.52 -18.01 648.42 -17.92 647.29 C-18.07 641.37 -19.96 637.29 -24 633 C-24.66 633 -25.32 633 -26 633 C-26 632.34 -26 631.68 -26 631 C-26.99 631 -27.98 631 -29 631 C-29 630.34 -29 629.68 -29 629 C-29.89 628.62 -29.89 628.62 -30.8 628.24 C-33.53 627.08 -36.27 625.91 -39 624.75 C-39.93 624.35 -40.87 623.96 -41.83 623.55 C-46.74 621.46 -51.54 619.26 -56.28 616.84 C-58.53 615.74 -60.82 614.92 -63.19 614.12 C-68.59 612.23 -73.7 609.88 -78.88 607.44 C-82.37 605.83 -85.9 604.39 -89.48 602.99 C-94.35 601.07 -99.17 599.02 -104 597 C-106 596.17 -108 595.33 -110 594.5 C-110.99 594.09 -111.98 593.67 -113 593.25 C-114.99 592.42 -116.98 591.6 -118.96 590.79 C-124.24 588.61 -129.45 586.35 -134.62 583.94 C-139.2 581.81 -143.78 579.83 -148.48 577.99 C-153.35 576.07 -158.17 574.02 -163 572 C-165 571.17 -167 570.33 -169 569.5 C-169.99 569.09 -170.98 568.67 -172 568.25 C-174 567.42 -176 566.6 -178 565.79 C-183.11 563.7 -188.01 561.49 -192.88 558.88 C-208.04 551.13 -224.64 549.91 -237.28 562.22 Z M-360 689 C-360 689.66 -360 690.32 -360 691 C-360.85 691.14 -360.85 691.14 -361.71 691.29 C-364.54 692.17 -366.27 693.57 -368.56 695.44 C-371.01 697.41 -373.38 699.26 -376 701 C-376 701.66 -376 702.32 -376 703 C-376.54 703.21 -377.07 703.41 -377.62 703.62 C-380.92 705.53 -383.59 708.05 -386 711 C-386 711.66 -386 712.32 -386 713 C-386.66 713 -387.32 713 -388 713 C-391.64 716.48 -391.64 716.48 -393 721 C-393.66 721 -394.32 721 -395 721 C-397.61 724.48 -399.76 728.27 -402 732 C-402.53 732.85 -403.07 733.7 -403.62 734.58 C-411.81 748.4 -415.26 764.04 -412.49 779.94 C-410.56 787.07 -407.09 793.87 -403 800 C-402.34 800 -401.68 800 -401 800 C-400.74 800.58 -400.48 801.16 -400.22 801.76 C-396.04 809.44 -388.4 813.87 -381 818 C-380.01 818.66 -379.02 819.32 -378 820 C-375.67 820.36 -373.34 820.7 -371 821 C-370.67 821.33 -370.34 821.66 -370 822 C-359.64 822.94 -348.75 822.82 -339 819 C-338.08 818.65 -337.15 818.3 -336.2 817.93 C-327.99 814.64 -320 810.79 -312 807 C-312 806.34 -312 805.68 -312 805 C-311.47 804.91 -310.93 804.82 -310.38 804.73 C-307.2 803.75 -304.74 802.1 -301.94 800.31 C-296.08 796.63 -290.14 793.2 -284 790 C-283.43 789.7 -282.86 789.4 -282.27 789.1 C-280.44 788.14 -278.6 787.19 -276.75 786.25 C-275.63 785.68 -274.51 785.11 -273.36 784.52 C-265.68 781.05 -257.34 778.99 -249.21 782.05 C-246.75 783.28 -244.37 784.6 -242 786 C-240.67 786.68 -239.34 787.35 -238 788 C-238 788.66 -238 789.32 -238 790 C-237.34 790 -236.68 790 -236 790 C-235.31 791.66 -234.65 793.33 -234 795 C-233.74 795.67 -233.47 796.33 -233.2 797.02 C-229.72 806.44 -230.45 814.64 -234 824 C-240.58 837.94 -251.34 850.28 -265.86 856.16 C-279.71 860.38 -292.25 857.05 -305 851 C-310.79 848.43 -316.76 848.31 -323 849 C-328.28 851.54 -331.54 855.22 -334.25 860.38 C-336.03 866.61 -335.03 871.35 -332 877 C-322.07 888.97 -306.13 893.75 -291.19 895.29 C-274.87 895.82 -260.56 889.8 -246.75 881.81 C-245.99 881.37 -245.22 880.93 -244.43 880.48 C-242.59 879.38 -240.79 878.2 -239 877 C-239 876.34 -239 875.68 -239 875 C-238.47 874.78 -237.93 874.56 -237.38 874.34 C-234.16 872.53 -231.57 870.12 -228.88 867.62 C-228.07 866.9 -228.07 866.9 -227.25 866.16 C-224.52 863.66 -222.34 861.49 -221 858 C-220.34 858 -219.68 858 -219 858 C-217.34 856.12 -215.82 854.25 -214.31 852.25 C-213.87 851.67 -213.42 851.08 -212.96 850.48 C-208.82 844.93 -205.27 839.11 -202 833 C-201.5 832.07 -200.99 831.13 -200.48 830.17 C-193.64 815.48 -191.29 798.67 -195.9 782.96 C-199.57 773.07 -204.46 763.53 -212 756 C-212.66 756 -213.32 756 -214 756 C-214 755.34 -214 754.68 -214 754 C-224.7 743.68 -236.61 738.62 -251.38 738.75 C-252.27 738.74 -253.16 738.73 -254.09 738.73 C-261.53 738.75 -268.68 739.58 -275.44 742.88 C-278.57 744.35 -281.7 745.66 -284.94 746.88 C-289.42 748.65 -293.38 750.9 -297.46 753.45 C-299.95 754.97 -302.48 756.37 -305.06 757.75 C-309.91 760.36 -314.64 763.13 -319.38 765.94 C-349.15 783.57 -349.15 783.57 -365.12 780.38 C-370.39 777.86 -374.62 774.67 -376.94 769.19 C-379.85 759.46 -377.16 751.06 -373 742 C-371.69 740.31 -370.36 738.64 -369 737 C-369 736.34 -369 735.68 -369 735 C-368.34 735 -367.68 735 -367 735 C-365.49 733.47 -365.49 733.47 -364 731.56 C-361.2 728.1 -361.2 728.1 -359 727 C-359 726.34 -359 725.68 -359 725 C-358.43 724.72 -357.86 724.44 -357.27 724.16 C-355.02 723.01 -352.86 721.77 -350.69 720.5 C-339.35 714.22 -330.02 715.78 -318 719 C-316.27 719.55 -314.54 720.12 -312.81 720.69 C-306.52 722.61 -300.71 723.33 -294.69 720.38 C-290.31 716.51 -286.93 713.51 -286.06 707.56 C-285.65 700.47 -287.95 694.54 -292.56 689.19 C-293.95 687.79 -293.95 687.79 -296 688 C-296 687.34 -296 686.68 -296 686 C-317.34 674.33 -339.14 677.99 -360 689 Z " fill="#000000" transform="translate(636,162)"/>
<path d="M0 0 C1.7 -0 1.7 -0 3.44 -0.01 C5.28 -0.01 5.28 -0.01 7.17 -0 C8.42 -0 9.68 -0.01 10.98 -0.01 C13.64 -0.01 16.3 -0.01 18.97 -0 C22.38 0 25.8 0 29.22 -0 C32.47 -0.01 35.72 -0.01 38.98 -0 C40.21 -0.01 41.44 -0.01 42.71 -0.01 C43.84 -0.01 44.98 -0 46.14 0 C47.15 0 48.15 0 49.18 0 C51.57 0.13 51.57 0.13 53.57 1.13 C55.01 1.29 56.45 1.41 57.88 1.5 C74.45 3.01 74.45 3.01 77.57 6.13 C79.03 6.28 79.03 6.28 80.51 6.44 C84.49 6.97 87.87 8.34 91.56 9.89 C93.87 10.84 96.18 11.73 98.53 12.59 C99.57 12.97 99.57 12.97 100.64 13.36 C102.02 13.86 103.4 14.36 104.78 14.85 C109.36 16.53 113.37 18.65 117.57 21.13 C119.9 22.15 122.23 23.15 124.57 24.13 C126.58 25.11 128.58 26.11 130.57 27.13 C130.57 27.79 130.57 28.45 130.57 29.13 C131.12 29.23 131.67 29.33 132.24 29.43 C137.15 30.91 141.33 34.31 145.57 37.13 C146.7 37.87 146.7 37.87 147.85 38.63 C149.46 39.74 151.03 40.93 152.57 42.13 C152.57 42.79 152.57 43.45 152.57 44.13 C153.66 44.5 153.66 44.5 154.76 44.88 C157.85 46.25 160.08 47.85 162.57 50.13 C162.57 50.79 162.57 51.45 162.57 52.13 C163.15 52.38 163.73 52.64 164.33 52.9 C166.8 54.26 168.47 55.77 170.46 57.75 C171.53 58.81 171.53 58.81 172.61 59.9 C173.71 61 173.71 61 174.82 62.13 C175.57 62.87 176.31 63.6 177.08 64.36 C177.78 65.07 178.49 65.78 179.21 66.5 C179.86 67.15 180.5 67.8 181.17 68.47 C182.57 70.13 182.57 70.13 182.57 72.13 C183.23 72.13 183.89 72.13 184.57 72.13 C186.08 73.81 186.08 73.81 187.7 76 C188.24 76.72 188.77 77.44 189.33 78.18 C190.57 80.13 190.57 80.13 190.57 82.13 C191.23 82.13 191.89 82.13 192.57 82.13 C194.3 84.33 195.92 86.52 197.51 88.82 C197.95 89.44 198.4 90.07 198.85 90.71 C205.57 100.28 205.57 100.28 205.57 104.13 C206.23 104.13 206.89 104.13 207.57 104.13 C210.7 109.43 213.34 114.7 215.48 120.48 C216.39 122.69 217.39 124.73 218.49 126.85 C220.74 131.28 222.27 135.84 223.76 140.57 C225.02 145.74 225.02 145.74 227.57 150.13 C228.05 152.22 228.52 154.31 228.97 156.4 C229.61 159.31 230.37 162.18 231.13 165.07 C232.33 169.78 233.03 174.32 233.36 179.17 C233.47 181.21 233.47 181.21 234.57 183.13 C234.67 184.91 234.7 186.69 234.7 188.47 C234.7 189.58 234.71 190.69 234.71 191.84 C234.71 193.66 234.71 193.66 234.71 195.5 C234.71 197.36 234.71 197.36 234.71 199.25 C234.71 202.54 234.7 205.82 234.7 209.11 C234.7 211.13 234.7 213.14 234.7 215.16 C234.71 219.03 234.71 222.89 234.71 226.75 C234.71 227.96 234.71 229.17 234.71 230.42 C234.71 231.53 234.7 232.65 234.7 233.79 C234.7 235.27 234.7 235.27 234.7 236.78 C234.57 239.13 234.57 239.13 233.57 241.13 C233.44 242.71 233.34 244.29 233.26 245.88 C232.78 251.73 231.31 257.04 229.61 262.64 C228.65 265.87 227.84 269.1 227.07 272.38 C225.94 277 224.45 281.28 222.59 285.65 C221.55 288.18 220.69 290.73 219.82 293.32 C217.17 300.65 213.39 307.36 209.57 314.13 C208.92 315.28 208.92 315.28 208.26 316.46 C206.92 318.84 205.56 321.2 204.2 323.57 C203.77 324.32 203.34 325.07 202.9 325.85 C201.85 327.64 200.72 329.39 199.57 331.13 C198.91 331.13 198.25 331.13 197.57 331.13 C197.45 331.73 197.32 332.33 197.2 332.94 C196.57 335.13 196.57 335.13 194.57 338.13 C193.91 338.13 193.25 338.13 192.57 338.13 C192.32 338.84 192.08 339.56 191.82 340.3 C190.43 343.44 188.73 345.77 186.57 348.44 C185.87 349.32 185.17 350.21 184.45 351.12 C183.83 351.78 183.21 352.45 182.57 353.13 C181.91 353.13 181.25 353.13 180.57 353.13 C180.24 354.12 179.91 355.11 179.57 356.13 C178.91 356.13 178.25 356.13 177.57 356.13 C177.57 356.79 177.57 357.45 177.57 358.13 C176.91 358.13 176.25 358.13 175.57 358.13 C175.24 359.12 174.91 360.11 174.57 361.13 C173.91 361.13 173.25 361.13 172.57 361.13 C172.57 361.79 172.57 362.45 172.57 363.13 C171.91 363.13 171.25 363.13 170.57 363.13 C170.24 364.12 169.91 365.11 169.57 366.13 C168.91 366.13 168.25 366.13 167.57 366.13 C167.57 366.79 167.57 367.45 167.57 368.13 C165.9 369.65 164.16 371.1 162.38 372.5 C161.42 373.28 160.46 374.05 159.47 374.84 C158.51 375.6 157.56 376.35 156.57 377.13 C155.67 377.88 154.76 378.64 153.83 379.42 C151.57 381.13 151.57 381.13 149.57 381.13 C149.57 381.79 149.57 382.45 149.57 383.13 C145.19 386.13 145.19 386.13 142.57 386.13 C142.57 386.79 142.57 387.45 142.57 388.13 C141.62 388.67 140.67 389.2 139.7 389.75 C137.59 390.95 135.5 392.17 133.44 393.45 C119.63 402 105.13 408.61 89.55 413.2 C86.82 414.05 84.22 415.06 81.57 416.13 C80.04 416.61 78.5 417.05 76.95 417.44 C76.19 417.64 75.44 417.85 74.66 418.06 C72.57 418.13 72.57 418.13 70.87 417.05 C69.11 414.44 68.86 412.17 68.45 409.07 C67.96 404.96 67.96 404.96 66.57 401.13 C66.39 399.57 66.25 398.01 66.13 396.44 C65.85 393.23 65.42 390.62 64.51 387.5 C63.38 383.43 63.29 380.34 63.57 376.13 C66.06 373.64 67.72 373.5 71.13 372.75 C75.84 371.64 80.02 370.23 84.38 368.15 C86.66 367.09 88.97 366.2 91.32 365.32 C104.58 360.01 116.69 352.07 127.91 343.3 C129.57 342.13 129.57 342.13 131.57 342.13 C131.57 341.47 131.57 340.81 131.57 340.13 C132.94 338.79 132.94 338.79 134.88 337.19 C144.77 328.74 152.92 319.58 160.57 309.13 C161.41 308 161.41 308 162.27 306.86 C164.16 304.29 165.56 302.17 166.57 299.13 C167.23 299.13 167.89 299.13 168.57 299.13 C168.68 298.58 168.79 298.02 168.9 297.45 C169.7 294.69 170.95 292.5 172.38 290 C175.25 284.82 177.53 279.68 179.57 274.13 C180.04 272.97 180.5 271.8 180.97 270.6 C188.63 250.87 191.04 231.59 191.07 210.57 C191.08 209.67 191.08 208.78 191.09 207.86 C191.11 196.24 190.11 185.47 187.57 174.13 C187.26 172.51 186.94 170.88 186.63 169.25 C185.69 165.12 184.14 161.3 182.51 157.4 C181.39 154.68 180.5 151.91 179.57 149.13 C175.52 137.65 169.69 126.66 162.6 116.77 C161.57 115.13 161.57 115.13 161.57 113.13 C160.91 113.13 160.25 113.13 159.57 113.13 C158.04 111.24 156.61 109.36 155.2 107.38 C153.01 104.35 150.94 101.5 148.28 98.86 C146.57 97.13 146.57 97.13 146.57 95.13 C145.91 95.13 145.25 95.13 144.57 95.13 C141.95 92.75 141.95 92.75 139.57 90.13 C139.57 89.47 139.57 88.81 139.57 88.13 C139.02 87.89 138.46 87.66 137.88 87.41 C134.08 85.3 131.17 82.19 128.01 79.22 C125.89 77.4 124.12 76.21 121.57 75.13 C121.57 74.47 121.57 73.81 121.57 73.13 C120.85 72.87 120.13 72.6 119.38 72.33 C116.53 71.11 114.2 69.67 111.63 67.94 C101.02 61.06 89.42 55.31 77.2 52 C70.68 50.23 70.68 50.23 69.57 49.13 C54.28 44.06 38.45 43.63 22.51 43.63 C21.59 43.63 20.68 43.62 19.73 43.62 C7.99 43.59 -2.97 44.46 -14.43 47.13 C-15.32 47.33 -16.22 47.54 -17.14 47.75 C-19.32 48.27 -21.47 48.84 -23.62 49.44 C-24.74 49.76 -24.74 49.76 -25.88 50.07 C-31.69 51.77 -37.09 54.04 -42.53 56.72 C-45.27 58.05 -48.02 59.17 -50.87 60.25 C-53.79 61.38 -56.3 62.58 -58.87 64.38 C-61.43 66.13 -61.43 66.13 -64.43 66.13 C-64.43 66.79 -64.43 67.45 -64.43 68.13 C-67.33 70.17 -68.83 71.13 -72.43 71.13 C-72.43 71.79 -72.43 72.45 -72.43 73.13 C-73.96 74.34 -75.56 75.47 -77.18 76.57 C-93.42 88.06 -93.42 88.06 -105.43 103.13 C-106.09 103.13 -106.75 103.13 -107.43 103.13 C-107.67 103.84 -107.91 104.55 -108.17 105.28 C-109.6 108.52 -111.42 110.91 -113.62 113.69 C-125.56 129.19 -134.62 147.62 -138.75 166.77 C-139.43 169.13 -139.43 169.13 -141.43 171.13 C-146.99 171.51 -151.06 170.73 -156.43 169.13 C-157.86 168.93 -159.3 168.77 -160.74 168.63 C-178.67 166.89 -178.67 166.89 -183.43 162.13 C-182.82 153.03 -179.27 143.61 -175.46 135.41 C-174.38 133.03 -173.43 130.63 -172.49 128.19 C-170.76 123.83 -168.78 119.66 -166.63 115.48 C-165.9 114.06 -165.19 112.63 -164.5 111.18 C-162.36 106.68 -159.88 102.4 -157.3 98.13 C-156.95 97.54 -156.6 96.95 -156.24 96.34 C-155.36 94.9 -154.4 93.51 -153.43 92.13 C-152.77 92.13 -152.11 92.13 -151.43 92.13 C-151.1 91.11 -151.1 91.11 -150.76 90.06 C-149.05 86.3 -146.71 83.39 -144.12 80.19 C-143.64 79.6 -143.17 79 -142.68 78.39 C-141.74 77.21 -140.79 76.03 -139.83 74.86 C-138.89 73.7 -137.95 72.53 -137.03 71.35 C-135.87 69.91 -134.66 68.51 -133.43 67.13 C-132.77 67.13 -132.11 67.13 -131.43 67.13 C-130.93 65.64 -130.93 65.64 -130.43 64.13 C-129.77 64.13 -129.11 64.13 -128.43 64.13 C-128.16 63.49 -127.89 62.85 -127.62 62.19 C-126.43 60.13 -126.43 60.13 -123.43 59.13 C-123.43 58.47 -123.43 57.81 -123.43 57.13 C-122.77 57.13 -122.11 57.13 -121.43 57.13 C-121.1 56.14 -120.77 55.15 -120.43 54.13 C-119.77 54.13 -119.11 54.13 -118.43 54.13 C-118.43 53.47 -118.43 52.81 -118.43 52.13 C-116.31 50.18 -116.31 50.18 -113.55 48 C-112.65 47.28 -111.74 46.56 -110.81 45.81 C-108.43 44.13 -108.43 44.13 -106.43 44.13 C-106.43 43.47 -106.43 42.81 -106.43 42.13 C-105.44 42.13 -104.45 42.13 -103.43 42.13 C-103.43 41.47 -103.43 40.81 -103.43 40.13 C-100.87 37.83 -99.95 37.13 -96.43 37.13 C-96.43 36.47 -96.43 35.81 -96.43 35.13 C-94.01 33.4 -94.01 33.4 -90.68 31.38 C-90.09 31.03 -89.51 30.67 -88.91 30.31 C-84.08 27.43 -79.12 24.88 -74.06 22.43 C-71.92 21.37 -69.9 20.25 -67.87 19 C-64.08 16.94 -60.3 15.54 -56.24 14.13 C-53.66 13.21 -51.14 12.19 -48.62 11.13 C-42.37 8.61 -35.92 6.87 -29.43 5.13 C-28.37 4.84 -27.31 4.55 -26.22 4.25 C-20.6 2.76 -15.19 1.73 -9.39 1.34 C-6.04 0.98 -3.56 0 0 0 Z " fill="#000000" transform="translate(1045.427734375,-0.12939453125)"/>
<path d="M0 0 C4.19 -0.51 6.49 0.7 10.02 2.88 C12.11 4.06 14.18 4.9 16.44 5.75 C20.88 7.46 25.08 9.52 29.31 11.69 C36.64 15.44 44.13 18.71 51.73 21.85 C55.55 23.45 59.24 25.06 62.82 27.14 C65.5 28.71 67.97 29.88 70.88 30.94 C75.86 32.86 80.41 35.29 85 38 C85 42.08 83.74 42.99 81 46 C79.02 47.81 76.99 49.56 74.95 51.3 C72.51 53.42 70.25 55.69 68 58 C59 67 50 76 41 85 C40.01 85 39.02 85 38 85 C35.74 82.05 34.51 78.81 33.19 75.38 C31.71 71.57 30 68.06 28 64.5 C25.62 60.27 23.78 56.06 22.06 51.53 C20.89 48.73 19.49 46.15 18 43.5 C16.13 40.16 14.48 36.9 13.12 33.31 C11.38 28.71 9.23 24.38 7 20 C0.31 6.82 0.31 6.82 -1 2 C-0.67 1.34 -0.34 0.68 0 0 Z " fill="#000000" transform="translate(432,757)"/>
<path d="M0 0 C2.34 2.28 4.51 4.69 6.69 7.12 C10.84 11.73 14.93 15.87 19.81 19.69 C23.54 22.93 24.68 25.07 25.19 30 C25.17 32 25.12 34 25 36 C25.02 36.77 25.03 37.55 25.05 38.34 C24.86 46.38 20.14 53.47 14.93 59.32 C10.16 63.8 10.16 63.8 6.62 64.41 C3.05 63.85 1.06 62.29 -1.81 60.12 C-2.79 59.41 -3.76 58.69 -4.77 57.95 C-5.51 57.3 -6.24 56.66 -7 56 C-7 55.34 -7 54.68 -7 54 C-7.88 53.62 -7.88 53.62 -8.77 53.22 C-11.19 51.89 -12.73 50.43 -14.62 48.44 C-17.05 45.86 -17.05 45.86 -20 44 C-20 43.34 -20 42.68 -20 42 C-20.66 42 -21.32 42 -22 42 C-23.62 40.62 -23.62 40.62 -25 39 C-25 38.34 -25 37.68 -25 37 C-25.66 37 -26.32 37 -27 37 C-32 31.52 -32 31.52 -32 29 C-32.66 29 -33.32 29 -34 29 C-35.91 26.73 -35.91 26.73 -38.06 23.75 C-38.78 22.78 -39.49 21.8 -40.22 20.8 C-42.79 16.76 -42.79 16.76 -43 14 C-41.19 10.75 -41.19 10.75 -39 8 C-38.34 8 -37.68 8 -37 8 C-36.67 7.01 -36.34 6.02 -36 5 C-25.69 -2.63 -11.52 -8.22 0 0 Z " fill="#000000" transform="translate(939,319)"/>
</svg>
