<?xml version="1.0" encoding="UTF-8"?>
<!-- Generator: visioncortex VTracer 0.6.3 -->
<svg version="1.1" xmlns="http://www.w3.org/2000/svg" width="1280" height="1280">
<path d="M0 0 C1.09 -0.01 1.09 -0.01 2.2 -0.01 C3.72 -0.02 5.25 -0.02 6.78 -0.01 C9.09 -0.01 11.4 -0.04 13.71 -0.06 C21.08 -0.09 27.41 0.01 34.16 3.3 C36.95 4.29 39.75 5.27 42.55 6.24 C45.3 7.36 47.71 8.61 50.16 10.3 C50.16 10.96 50.16 11.62 50.16 12.3 C51.06 12.49 51.06 12.49 51.97 12.68 C54.16 13.3 54.16 13.3 57.16 15.3 C57.16 15.96 57.16 16.62 57.16 17.3 C57.86 17.53 58.56 17.76 59.29 17.99 C62.74 19.56 65.34 21.76 68.16 24.24 C71.01 26.72 73.76 29.07 77.04 30.99 C77.74 31.42 78.44 31.86 79.16 32.3 C79.16 32.96 79.16 33.62 79.16 34.3 C79.78 34.61 80.4 34.92 81.04 35.24 C82.41 35.93 83.79 36.61 85.16 37.3 C85.16 37.96 85.16 38.62 85.16 39.3 C85.7 39.55 86.23 39.8 86.79 40.05 C89.74 41.61 92.46 43.34 95.16 45.3 C95.16 45.96 95.16 46.62 95.16 47.3 C95.87 47.54 96.59 47.78 97.32 48.03 C100.59 49.49 102.87 51.35 105.6 53.68 C108.6 56.2 111.52 58.65 114.85 60.74 C115.61 61.25 116.37 61.77 117.16 62.3 C117.16 62.96 117.16 63.62 117.16 64.3 C117.96 64.67 117.96 64.67 118.79 65.05 C121.74 66.61 124.46 68.34 127.16 70.3 C127.16 70.96 127.16 71.62 127.16 72.3 C127.82 72.49 128.48 72.67 129.16 72.86 C132.83 74.62 135.41 77 138.39 79.74 C140.09 81.37 140.09 81.37 142.16 82.3 C142.16 82.96 142.16 83.62 142.16 84.3 C142.68 84.53 143.2 84.77 143.73 85.01 C146.32 86.39 148.68 88 151.08 89.68 C175.99 106.96 205.01 113.89 235.11 110.82 C241.66 110.21 248.21 109.99 254.79 109.8 C256.06 109.76 257.33 109.72 258.64 109.68 C263.35 109.53 268.06 109.38 272.76 109.24 C277.4 109.1 282.03 108.95 286.66 108.8 C288.47 108.75 288.47 108.75 290.31 108.69 C296.17 108.51 301.95 108.16 307.78 107.52 C311.97 107.13 316.16 107.12 320.38 107.1 C321.31 107.09 322.25 107.09 323.21 107.08 C325.18 107.07 327.14 107.06 329.11 107.06 C332.09 107.05 335.06 107.02 338.04 106.99 C356.51 106.88 356.51 106.88 365.16 110.3 C366.38 110.76 367.6 111.22 368.86 111.69 C369.85 112.12 370.83 112.55 371.85 112.99 C372.86 113.43 373.88 113.86 374.92 114.31 C375.66 114.64 376.4 114.96 377.16 115.3 C377.16 115.96 377.16 116.62 377.16 117.3 C378.03 117.49 378.03 117.49 378.91 117.68 C381.18 118.31 383.09 119.19 385.16 120.3 C385.16 120.96 385.16 121.62 385.16 122.3 C385.72 122.38 386.27 122.47 386.85 122.55 C391.94 124.2 395.24 128.35 398.47 132.43 C399.17 133.29 399.87 134.16 400.59 135.06 C402.16 137.3 402.16 137.3 402.16 139.3 C402.82 139.3 403.48 139.3 404.16 139.3 C406.2 142.21 407.16 143.7 407.16 147.3 C407.82 147.3 408.48 147.3 409.16 147.3 C411.36 151.43 412.88 155.36 414.1 159.86 C415.39 164.53 416.72 169.18 418.16 173.8 C421.64 185.02 424.74 196.34 427.87 207.65 C428.72 210.73 429.58 213.81 430.45 216.89 C432.88 225.54 435.17 234.2 437.27 242.95 C438.05 245.87 439.02 248.51 440.16 251.3 C440.79 253.38 441.39 255.46 441.97 257.55 C442.32 258.78 442.67 260.01 443.03 261.27 C443.61 263.33 444.18 265.38 444.75 267.43 C447.62 277.77 451.02 287.25 455.97 296.8 C457.16 299.3 457.16 299.3 457.16 302.3 C457.82 302.3 458.48 302.3 459.16 302.3 C460.18 303.82 461.12 305.4 462.04 306.99 C465.08 311.94 468.51 316.17 472.47 320.43 C473 320.99 473.53 321.56 474.07 322.15 C476.81 325.11 476.81 325.11 480.16 327.3 C480.16 327.96 480.16 328.62 480.16 329.3 C480.7 329.55 481.25 329.79 481.81 330.05 C484.68 331.58 487.18 333.43 489.79 335.36 C493.34 338.06 493.34 338.06 497.16 340.3 C497.16 340.96 497.16 341.62 497.16 342.3 C497.7 342.39 498.24 342.49 498.8 342.59 C501.86 343.51 504.22 345.03 506.91 346.74 C507.89 347.36 508.88 347.97 509.89 348.61 C510.64 349.17 511.39 349.73 512.16 350.3 C512.16 350.96 512.16 351.62 512.16 352.3 C512.7 352.39 513.24 352.49 513.8 352.59 C516.86 353.51 519.22 355.03 521.91 356.74 C522.89 357.36 523.88 357.97 524.89 358.61 C525.64 359.17 526.39 359.73 527.16 360.3 C527.16 360.96 527.16 361.62 527.16 362.3 C527.7 362.39 528.24 362.49 528.8 362.59 C531.86 363.51 534.22 365.03 536.91 366.74 C537.89 367.36 538.88 367.97 539.89 368.61 C540.64 369.17 541.39 369.73 542.16 370.3 C542.16 370.96 542.16 371.62 542.16 372.3 C542.7 372.39 543.24 372.49 543.8 372.59 C546.86 373.51 549.22 375.03 551.91 376.74 C552.89 377.36 553.88 377.97 554.89 378.61 C555.64 379.17 556.39 379.73 557.16 380.3 C557.16 380.96 557.16 381.62 557.16 382.3 C557.7 382.39 558.24 382.49 558.8 382.59 C561.86 383.51 564.22 385.03 566.91 386.74 C567.89 387.36 568.88 387.97 569.89 388.61 C570.64 389.17 571.39 389.73 572.16 390.3 C572.16 390.96 572.16 391.62 572.16 392.3 C572.7 392.39 573.24 392.49 573.8 392.59 C576.86 393.51 579.22 395.03 581.91 396.74 C582.89 397.36 583.88 397.97 584.89 398.61 C585.64 399.17 586.39 399.73 587.16 400.3 C587.16 400.96 587.16 401.62 587.16 402.3 C588.15 402.3 589.14 402.3 590.16 402.3 C590.16 402.96 590.16 403.62 590.16 404.3 C591.48 404.63 592.8 404.96 594.16 405.3 C594.16 405.96 594.16 406.62 594.16 407.3 C594.75 407.57 595.34 407.84 595.95 408.11 C603.15 411.99 607.84 419.62 612.16 426.3 C612.61 426.97 613.07 427.65 613.54 428.34 C620.82 440.11 622.61 452.58 622.66 466.18 C622.67 467.3 622.67 468.43 622.68 469.6 C622.53 479.73 620.15 488.05 616.16 497.3 C615.5 499.42 614.85 501.55 614.22 503.68 C612.83 508.31 611.22 512.61 609.16 516.98 C607.57 520.67 606.4 524.48 605.19 528.31 C604.25 531.05 603.14 533.67 601.98 536.32 C600.35 540.25 599.03 544.28 597.66 548.3 C595.69 554.08 593.57 559.69 591.16 565.3 C589.95 568.62 588.8 571.96 587.66 575.3 C584.37 584.93 584.37 584.93 582.57 589.02 C581.18 592.26 580.1 595.48 579.1 598.86 C578.16 602.01 577.21 605.15 576.16 608.27 C568.38 631.78 569.56 659.06 579.19 681.87 C580.18 684.34 580.93 686.8 581.66 689.36 C582.82 693.4 584.36 697.08 586.12 700.89 C587.73 704.62 588.92 708.48 590.17 712.35 C591.04 714.94 591.99 717.46 593.04 719.99 C594.9 724.54 596.54 729.16 598.16 733.8 C599.74 738.34 601.33 742.85 603.16 747.3 C605.29 752.48 607.1 757.76 608.94 763.05 C610.32 766.99 611.76 770.88 613.35 774.74 C614.98 778.71 616.25 782.72 617.44 786.84 C619.4 793.72 619.4 793.72 622.16 800.3 C624.01 824.54 621.12 844.96 605.24 863.87 C598.11 871.98 598.11 871.98 594.16 873.3 C594.16 873.96 594.16 874.62 594.16 875.3 C592.84 875.63 591.52 875.96 590.16 876.3 C590.16 876.96 590.16 877.62 590.16 878.3 C589.17 878.3 588.18 878.3 587.16 878.3 C587.16 878.96 587.16 879.62 587.16 880.3 C584.89 881.99 584.89 881.99 581.91 883.86 C580.94 884.48 579.96 885.1 578.96 885.74 C576.59 887.06 574.8 887.84 572.16 888.3 C572.16 888.96 572.16 889.62 572.16 890.3 C569.89 891.99 569.89 891.99 566.91 893.86 C565.94 894.48 564.96 895.1 563.96 895.74 C561.59 897.06 559.8 897.84 557.16 898.3 C557.16 898.96 557.16 899.62 557.16 900.3 C554.89 901.99 554.89 901.99 551.91 903.86 C550.94 904.48 549.96 905.1 548.96 905.74 C546.59 907.06 544.8 907.84 542.16 908.3 C542.16 908.96 542.16 909.62 542.16 910.3 C539.89 911.99 539.89 911.99 536.91 913.86 C535.94 914.48 534.96 915.1 533.96 915.74 C531.59 917.06 529.8 917.84 527.16 918.3 C527.16 918.96 527.16 919.62 527.16 920.3 C524.89 921.99 524.89 921.99 521.91 923.86 C520.94 924.48 519.96 925.1 518.96 925.74 C516.59 927.06 514.8 927.84 512.16 928.3 C512.16 928.96 512.16 929.62 512.16 930.3 C509.89 931.99 509.89 931.99 506.91 933.86 C505.94 934.48 504.96 935.1 503.96 935.74 C501.59 937.06 499.8 937.84 497.16 938.3 C497.16 938.96 497.16 939.62 497.16 940.3 C495.46 941.49 493.69 942.61 491.91 943.68 C488.15 945.93 485.24 948.21 482.16 951.3 C481.5 951.3 480.84 951.3 480.16 951.3 C480.16 951.96 480.16 952.62 480.16 953.3 C479.1 954.26 477.98 955.17 476.85 956.05 C472.78 959.49 469.55 963.31 466.29 967.49 C465.81 968.09 465.33 968.7 464.84 969.33 C462.63 972.19 460.6 974.96 459.16 978.3 C458.5 978.3 457.84 978.3 457.16 978.3 C457.03 978.88 456.9 979.46 456.77 980.06 C456.18 982.23 455.42 984.08 454.45 986.1 C449.94 995.76 446.65 1004.92 444.16 1015.3 C443.48 1017.85 442.76 1020.39 442.04 1022.93 C441.72 1024.03 441.41 1025.14 441.09 1026.28 C440.16 1029.3 440.16 1029.3 439.07 1032 C438.01 1034.4 438.01 1034.4 437.72 1037.55 C437.3 1040.38 436.83 1042.48 435.91 1045.11 C434.34 1049.61 433.05 1054.15 431.79 1058.74 C431.57 1059.51 431.36 1060.29 431.14 1061.08 C430.7 1062.68 430.26 1064.29 429.82 1065.89 C427.95 1072.7 426.06 1079.5 424.16 1086.3 C423.97 1086.98 423.78 1087.66 423.58 1088.37 C423.05 1090.28 422.51 1092.2 421.97 1094.11 C421.67 1095.19 421.37 1096.27 421.05 1097.38 C420.16 1100.3 420.16 1100.3 419.07 1102.99 C418.01 1105.39 418.01 1105.39 417.79 1108.49 C417.11 1112.59 415.81 1115.92 414.21 1119.73 C412.9 1122.94 411.83 1126.19 410.77 1129.49 C410.16 1131.3 410.16 1131.3 409.16 1133.3 C408.5 1133.3 407.84 1133.3 407.16 1133.3 C407.04 1133.88 406.91 1134.46 406.79 1135.05 C406.15 1137.32 405.27 1139.23 404.16 1141.3 C403.5 1141.3 402.84 1141.3 402.16 1141.3 C401.81 1142.38 401.81 1142.38 401.46 1143.48 C399.91 1146.85 397.98 1148.88 395.35 1151.49 C394.07 1152.78 394.07 1152.78 392.77 1154.09 C390.25 1156.22 388.27 1157.3 385.16 1158.3 C385.16 1158.96 385.16 1159.62 385.16 1160.3 C382.25 1162.34 380.76 1163.3 377.16 1163.3 C377.16 1163.96 377.16 1164.62 377.16 1165.3 C366.76 1170.9 355.9 1173.63 344.14 1173.53 C343.2 1173.53 342.26 1173.53 341.29 1173.53 C339.32 1173.53 337.34 1173.52 335.36 1173.51 C332.37 1173.49 329.37 1173.49 326.38 1173.49 C324.44 1173.48 322.51 1173.48 320.58 1173.47 C319.7 1173.47 318.82 1173.47 317.91 1173.47 C312.59 1173.43 307.37 1173.07 302.07 1172.55 C296.66 1172.09 291.24 1171.96 285.82 1171.8 C284.58 1171.76 283.33 1171.72 282.05 1171.68 C278.11 1171.55 274.17 1171.42 270.22 1171.3 C265.03 1171.14 259.83 1170.97 254.63 1170.8 C252.87 1170.75 252.87 1170.75 251.08 1170.69 C244.62 1170.48 238.2 1170.11 231.77 1169.52 C221.14 1168.62 210.57 1168.97 200.04 1170.61 C198.9 1170.79 198.9 1170.79 197.74 1170.97 C179.36 1174.14 160.98 1182.98 146.49 1194.58 C144.16 1196.3 144.16 1196.3 142.16 1196.3 C142.16 1196.96 142.16 1197.62 142.16 1198.3 C140.33 1199.92 140.33 1199.92 137.91 1201.74 C137.12 1202.34 136.33 1202.93 135.52 1203.55 C134.74 1204.13 133.96 1204.7 133.16 1205.3 C132.44 1205.87 131.73 1206.44 130.99 1207.02 C129.16 1208.3 129.16 1208.3 127.16 1208.3 C127.16 1208.96 127.16 1209.62 127.16 1210.3 C125.42 1211.74 123.62 1213.1 121.79 1214.43 C120.68 1215.24 119.57 1216.05 118.46 1216.86 C117.91 1217.27 117.35 1217.68 116.78 1218.1 C114.44 1219.84 112.17 1221.66 109.91 1223.49 C106.85 1225.95 103.78 1228.41 100.66 1230.8 C100.03 1231.29 99.4 1231.77 98.75 1232.27 C97.16 1233.3 97.16 1233.3 95.16 1233.3 C95.16 1233.96 95.16 1234.62 95.16 1235.3 C93.48 1236.81 93.48 1236.81 91.29 1238.43 C90.57 1238.96 89.85 1239.5 89.11 1240.06 C87.16 1241.3 87.16 1241.3 85.16 1241.3 C85.16 1241.96 85.16 1242.62 85.16 1243.3 C81.7 1246.3 81.7 1246.3 79.16 1246.3 C79.16 1246.96 79.16 1247.62 79.16 1248.3 C77.57 1249.6 75.91 1250.81 74.22 1251.99 C69.67 1255.21 65.27 1258.54 60.94 1262.05 C59.16 1263.3 59.16 1263.3 57.16 1263.3 C57.16 1263.96 57.16 1264.62 57.16 1265.3 C54.6 1267.6 53.68 1268.3 50.16 1268.3 C50.16 1268.96 50.16 1269.62 50.16 1270.3 C48.27 1271.26 46.37 1272.22 44.47 1273.18 C43.42 1273.71 42.36 1274.24 41.27 1274.79 C33.77 1278.42 26.71 1280.61 18.32 1280.6 C17.23 1280.61 17.23 1280.61 16.12 1280.61 C14.6 1280.62 13.07 1280.62 11.55 1280.62 C9.23 1280.61 6.92 1280.64 4.61 1280.66 C-2.76 1280.69 -9.09 1280.59 -15.84 1277.3 C-17.74 1276.65 -19.63 1276.01 -21.53 1275.36 C-25.66 1273.87 -28.53 1272.24 -31.84 1269.3 C-34.13 1267.88 -36.48 1266.6 -38.84 1265.3 C-38.84 1264.64 -38.84 1263.98 -38.84 1263.3 C-39.54 1263.08 -40.23 1262.85 -40.95 1262.62 C-44.5 1261 -47.14 1258.68 -50.03 1256.11 C-54.84 1251.91 -59.74 1248.13 -65.11 1244.64 C-65.97 1243.98 -65.97 1243.98 -66.84 1243.3 C-66.84 1242.64 -66.84 1241.98 -66.84 1241.3 C-67.38 1241.05 -67.91 1240.81 -68.46 1240.55 C-71.42 1238.99 -74.14 1237.27 -76.84 1235.3 C-76.84 1234.64 -76.84 1233.98 -76.84 1233.3 C-77.58 1233.03 -78.32 1232.76 -79.09 1232.49 C-81.73 1231.35 -83.7 1230.21 -85.84 1228.3 C-85.84 1227.64 -85.84 1226.98 -85.84 1226.3 C-86.38 1226.06 -86.92 1225.82 -87.48 1225.57 C-90.46 1223.97 -92.98 1222 -95.65 1219.93 C-96.21 1219.49 -96.77 1219.06 -97.34 1218.61 C-102.49 1214.61 -107.58 1210.53 -112.64 1206.41 C-115.44 1204.14 -118.23 1202.01 -121.28 1200.07 C-122.13 1199.49 -122.97 1198.9 -123.84 1198.3 C-123.84 1197.64 -123.84 1196.98 -123.84 1196.3 C-124.35 1196.07 -124.86 1195.84 -125.39 1195.6 C-128.77 1193.81 -131.87 1191.64 -135.03 1189.49 C-142.63 1184.38 -149.86 1179.64 -158.7 1176.98 C-160.84 1176.3 -160.84 1176.3 -163.2 1175.31 C-168.54 1173.27 -174.24 1172.42 -179.84 1171.3 C-180.8 1171.09 -181.76 1170.88 -182.75 1170.66 C-198.09 1167.62 -214.03 1169.42 -229.51 1170.38 C-242.98 1171.21 -256.44 1171.68 -269.94 1171.96 C-270.66 1171.98 -271.38 1171.99 -272.13 1172.01 C-274.07 1172.05 -276.01 1172.09 -277.96 1172.13 C-280.9 1172.26 -283.75 1172.49 -286.68 1172.8 C-291.81 1173.34 -296.9 1173.48 -302.05 1173.5 C-302.99 1173.51 -303.93 1173.52 -304.89 1173.52 C-306.86 1173.53 -308.82 1173.54 -310.79 1173.54 C-313.77 1173.55 -316.74 1173.58 -319.72 1173.61 C-338.19 1173.72 -338.19 1173.72 -346.84 1170.3 C-348.06 1169.84 -349.28 1169.39 -350.54 1168.91 C-351.53 1168.48 -352.51 1168.06 -353.53 1167.61 C-354.54 1167.18 -355.56 1166.74 -356.6 1166.29 C-357.71 1165.8 -357.71 1165.8 -358.84 1165.3 C-358.84 1164.64 -358.84 1163.98 -358.84 1163.3 C-359.71 1163.12 -359.71 1163.12 -360.59 1162.93 C-362.86 1162.29 -364.77 1161.41 -366.84 1160.3 C-366.84 1159.64 -366.84 1158.98 -366.84 1158.3 C-367.86 1157.99 -367.86 1157.99 -368.9 1157.68 C-375.56 1154.56 -379.96 1149.42 -383.84 1143.3 C-383.84 1142.64 -383.84 1141.98 -383.84 1141.3 C-384.5 1141.3 -385.16 1141.3 -385.84 1141.3 C-392.64 1132.47 -397.79 1119.75 -399.34 1108.74 C-399.81 1105.52 -400.63 1103.29 -401.84 1100.3 C-402.47 1098.25 -403.07 1096.18 -403.65 1094.11 C-404 1092.88 -404.35 1091.64 -404.71 1090.37 C-405.09 1089.01 -405.46 1087.66 -405.84 1086.3 C-406.13 1085.25 -406.13 1085.25 -406.43 1084.18 C-408.36 1077.28 -410.27 1070.38 -412.16 1063.47 C-412.6 1061.89 -413.03 1060.31 -413.46 1058.74 C-413.67 1057.98 -413.88 1057.22 -414.1 1056.44 C-415.35 1051.94 -416.74 1047.53 -418.29 1043.12 C-419.16 1040.24 -419.44 1037.28 -419.84 1034.3 C-420.5 1032.63 -421.17 1030.97 -421.84 1029.3 C-422.47 1027.22 -423.07 1025.14 -423.65 1023.05 C-424 1021.82 -424.35 1020.59 -424.71 1019.33 C-425.29 1017.28 -425.86 1015.22 -426.43 1013.17 C-429.3 1002.83 -432.7 993.36 -437.65 983.8 C-438.84 981.3 -438.84 981.3 -438.84 978.3 C-439.5 978.3 -440.16 978.3 -440.84 978.3 C-441.81 976.82 -442.72 975.28 -443.59 973.74 C-451.71 960.66 -464.62 946.73 -478.84 940.3 C-478.84 939.64 -478.84 938.98 -478.84 938.3 C-479.83 938.3 -480.82 938.3 -481.84 938.3 C-481.84 937.64 -481.84 936.98 -481.84 936.3 C-482.52 936.05 -483.2 935.81 -483.9 935.55 C-487.41 934.06 -490.56 932.23 -493.84 930.3 C-493.84 929.64 -493.84 928.98 -493.84 928.3 C-494.83 928.3 -495.82 928.3 -496.84 928.3 C-496.84 927.64 -496.84 926.98 -496.84 926.3 C-497.52 926.05 -498.2 925.81 -498.9 925.55 C-502.41 924.06 -505.56 922.23 -508.84 920.3 C-508.84 919.64 -508.84 918.98 -508.84 918.3 C-509.83 918.3 -510.82 918.3 -511.84 918.3 C-511.84 917.64 -511.84 916.98 -511.84 916.3 C-512.52 916.05 -513.2 915.81 -513.9 915.55 C-517.41 914.06 -520.56 912.23 -523.84 910.3 C-523.84 909.64 -523.84 908.98 -523.84 908.3 C-524.83 908.3 -525.82 908.3 -526.84 908.3 C-526.84 907.64 -526.84 906.98 -526.84 906.3 C-527.52 906.05 -528.2 905.81 -528.9 905.55 C-532.41 904.06 -535.56 902.23 -538.84 900.3 C-538.84 899.64 -538.84 898.98 -538.84 898.3 C-539.83 898.3 -540.82 898.3 -541.84 898.3 C-541.84 897.64 -541.84 896.98 -541.84 896.3 C-542.52 896.05 -543.2 895.81 -543.9 895.55 C-547.41 894.06 -550.56 892.23 -553.84 890.3 C-553.84 889.64 -553.84 888.98 -553.84 888.3 C-554.83 888.3 -555.82 888.3 -556.84 888.3 C-556.84 887.64 -556.84 886.98 -556.84 886.3 C-557.52 886.05 -558.2 885.81 -558.9 885.55 C-562.41 884.06 -565.56 882.23 -568.84 880.3 C-568.84 879.64 -568.84 878.98 -568.84 878.3 C-569.62 877.99 -570.41 877.68 -571.21 877.36 C-573.84 876.3 -573.84 876.3 -575.84 875.3 C-575.84 874.64 -575.84 873.98 -575.84 873.3 C-576.43 873.03 -577.02 872.76 -577.63 872.49 C-584.83 868.61 -589.52 860.99 -593.84 854.3 C-594.52 853.27 -594.52 853.27 -595.21 852.22 C-602.61 840.12 -604.29 828.38 -604.34 814.43 C-604.35 812.57 -604.35 812.57 -604.36 810.68 C-604.23 801.34 -602.5 793.81 -598.65 785.34 C-597.55 782.58 -596.75 779.77 -595.9 776.93 C-594.51 772.29 -592.9 767.99 -590.84 763.62 C-589.25 759.93 -588.08 756.12 -586.87 752.29 C-585.93 749.55 -584.82 746.93 -583.66 744.28 C-582.03 740.35 -580.71 736.32 -579.34 732.3 C-577.37 726.53 -575.25 720.91 -572.84 715.3 C-571.63 711.98 -570.48 708.64 -569.34 705.3 C-567.37 699.53 -565.26 693.91 -562.84 688.3 C-555.77 668.55 -553.5 651.19 -553.84 630.3 C-553.85 628.69 -553.85 628.69 -553.86 627.05 C-554.34 614.83 -558.93 602.4 -563.84 591.3 C-564.3 590.02 -564.74 588.73 -565.15 587.43 C-568.38 577.52 -571.81 567.66 -575.78 558.02 C-577.52 553.57 -579.06 549.05 -580.63 544.54 C-581.95 540.76 -583.32 537.01 -584.84 533.3 C-586.97 528.12 -588.78 522.84 -590.62 517.55 C-592 513.62 -593.44 509.72 -595.03 505.86 C-596.66 501.89 -597.93 497.89 -599.12 493.77 C-601.08 486.88 -601.08 486.88 -603.84 480.3 C-605.61 456.14 -602.86 435.69 -586.92 416.73 C-579.78 408.62 -579.78 408.62 -575.84 407.3 C-575.84 406.64 -575.84 405.98 -575.84 405.3 C-573.64 403.71 -573.64 403.71 -570.71 401.93 C-567.52 399.96 -564.35 398 -561.28 395.86 C-558.84 394.3 -558.84 394.3 -556.84 394.3 C-556.84 393.64 -556.84 392.98 -556.84 392.3 C-555.85 392.3 -554.86 392.3 -553.84 392.3 C-553.84 391.64 -553.84 390.98 -553.84 390.3 C-551.72 388.79 -551.72 388.79 -548.96 387.18 C-548.06 386.64 -547.15 386.1 -546.22 385.54 C-543.84 384.3 -543.84 384.3 -541.84 384.3 C-541.84 383.64 -541.84 382.98 -541.84 382.3 C-540.85 382.3 -539.86 382.3 -538.84 382.3 C-538.84 381.64 -538.84 380.98 -538.84 380.3 C-536.72 378.79 -536.72 378.79 -533.96 377.18 C-533.06 376.64 -532.15 376.1 -531.22 375.54 C-528.84 374.3 -528.84 374.3 -526.84 374.3 C-526.84 373.64 -526.84 372.98 -526.84 372.3 C-525.85 372.3 -524.86 372.3 -523.84 372.3 C-523.84 371.64 -523.84 370.98 -523.84 370.3 C-521.72 368.79 -521.72 368.79 -518.96 367.18 C-518.06 366.64 -517.15 366.1 -516.22 365.54 C-513.84 364.3 -513.84 364.3 -511.84 364.3 C-511.84 363.64 -511.84 362.98 -511.84 362.3 C-510.85 362.3 -509.86 362.3 -508.84 362.3 C-508.84 361.64 -508.84 360.98 -508.84 360.3 C-506.72 358.79 -506.72 358.79 -503.96 357.18 C-503.06 356.64 -502.15 356.1 -501.22 355.54 C-498.84 354.3 -498.84 354.3 -496.84 354.3 C-496.84 353.64 -496.84 352.98 -496.84 352.3 C-495.85 352.3 -494.86 352.3 -493.84 352.3 C-493.84 351.64 -493.84 350.98 -493.84 350.3 C-491.72 348.79 -491.72 348.79 -488.96 347.18 C-488.06 346.64 -487.15 346.1 -486.22 345.54 C-483.84 344.3 -483.84 344.3 -481.84 344.3 C-481.84 343.64 -481.84 342.98 -481.84 342.3 C-480.85 342.3 -479.86 342.3 -478.84 342.3 C-478.84 341.64 -478.84 340.98 -478.84 340.3 C-477.36 339.33 -475.82 338.42 -474.28 337.55 C-461.2 329.43 -447.27 316.52 -440.84 302.3 C-440.18 302.3 -439.52 302.3 -438.84 302.3 C-438.69 301.22 -438.69 301.22 -438.53 300.11 C-437.76 296.99 -436.49 295.06 -434.84 292.3 C-428.93 279.67 -425.21 265.66 -422.04 252.11 C-420.93 247.39 -420.93 247.39 -419.84 246.3 C-419.72 245.31 -419.59 244.32 -419.46 243.3 C-419.1 240.55 -418.51 238.1 -417.59 235.49 C-416.02 230.99 -414.73 226.45 -413.46 221.86 C-413.25 221.09 -413.04 220.32 -412.82 219.52 C-412.38 217.92 -411.94 216.32 -411.5 214.71 C-409.63 207.9 -407.74 201.1 -405.84 194.3 C-405.65 193.62 -405.46 192.94 -405.26 192.23 C-404.73 190.32 -404.19 188.4 -403.65 186.49 C-403.35 185.41 -403.05 184.33 -402.73 183.22 C-401.84 180.3 -401.84 180.3 -400.75 177.62 C-399.69 175.2 -399.69 175.2 -399.4 172.05 C-397.69 160.62 -392.51 148.68 -385.84 139.3 C-385.18 139.3 -384.52 139.3 -383.84 139.3 C-383.76 138.74 -383.67 138.19 -383.59 137.61 C-380.77 128.92 -369.51 121.71 -361.84 117.3 C-360.85 117.3 -359.86 117.3 -358.84 117.3 C-358.84 116.64 -358.84 115.98 -358.84 115.3 C-357.07 114.52 -355.3 113.75 -353.53 112.99 C-352.54 112.56 -351.56 112.13 -350.54 111.69 C-349.32 111.23 -348.1 110.77 -346.84 110.3 C-346.15 110.03 -345.45 109.75 -344.74 109.47 C-335.67 106.41 -326.27 106.92 -316.82 107.02 C-313.85 107.05 -310.88 107.06 -307.91 107.07 C-305.99 107.08 -304.07 107.09 -302.15 107.1 C-301.28 107.1 -300.41 107.11 -299.51 107.11 C-294.22 107.17 -289.02 107.54 -283.75 108.05 C-278.34 108.51 -272.92 108.64 -267.5 108.8 C-265.63 108.86 -265.63 108.86 -263.73 108.92 C-259.79 109.05 -255.85 109.18 -251.9 109.3 C-246.71 109.46 -241.51 109.63 -236.31 109.8 C-235.14 109.84 -233.97 109.87 -232.76 109.91 C-226.3 110.12 -219.88 110.49 -213.45 111.08 C-202.82 111.98 -192.25 111.63 -181.71 109.99 C-180.96 109.87 -180.2 109.75 -179.42 109.63 C-174.03 108.7 -168.98 107.16 -163.84 105.3 C-162.63 104.86 -161.42 104.43 -160.17 103.98 C-148.29 99.37 -137.33 93.82 -127.51 85.55 C-125.84 84.3 -125.84 84.3 -123.84 84.3 C-123.84 83.64 -123.84 82.98 -123.84 82.3 C-122.1 80.86 -120.3 79.5 -118.46 78.18 C-117.35 77.36 -116.23 76.54 -115.12 75.72 C-114.56 75.31 -114 74.9 -113.43 74.48 C-111.23 72.85 -109.1 71.14 -106.96 69.43 C-106.17 68.79 -105.38 68.15 -104.57 67.5 C-103.67 66.77 -102.77 66.05 -101.84 65.3 C-99.35 63.29 -96.84 61.29 -94.34 59.3 C-93.73 58.81 -93.12 58.31 -92.48 57.81 C-88.07 54.3 -88.07 54.3 -85.84 54.3 C-85.84 53.64 -85.84 52.98 -85.84 52.3 C-84.38 51.01 -84.38 51.01 -82.46 49.68 C-81.53 49.01 -81.53 49.01 -80.57 48.32 C-78.84 47.3 -78.84 47.3 -76.84 47.3 C-76.84 46.64 -76.84 45.98 -76.84 45.3 C-75.16 43.79 -75.16 43.79 -72.96 42.18 C-72.25 41.64 -71.53 41.1 -70.79 40.54 C-68.84 39.3 -68.84 39.3 -66.84 39.3 C-66.84 38.64 -66.84 37.98 -66.84 37.3 C-65.18 35.92 -63.46 34.62 -61.71 33.36 C-56.15 29.31 -50.74 25.09 -45.39 20.76 C-41.06 17.3 -41.06 17.3 -38.84 17.3 C-38.84 16.64 -38.84 15.98 -38.84 15.3 C-27.62 6.93 -14.2 -0.02 0 0 Z M-387.84 518.3 C-387.84 518.96 -387.84 519.62 -387.84 520.3 C-388.5 520.3 -389.16 520.3 -389.84 520.3 C-396.05 526.76 -400.61 534.46 -404.84 542.3 C-405.35 543.21 -405.85 544.12 -406.37 545.05 C-415.19 564.54 -415.44 588.29 -408.59 608.43 C-408.04 609.73 -407.45 611.02 -406.84 612.3 C-406.32 613.41 -405.8 614.53 -405.27 615.68 C-402.33 621.81 -399.5 627.31 -394.84 632.3 C-394.18 632.3 -393.52 632.3 -392.84 632.3 C-392.51 633.29 -392.18 634.28 -391.84 635.3 C-391.18 635.3 -390.52 635.3 -389.84 635.3 C-389.84 635.96 -389.84 636.62 -389.84 637.3 C-387.6 639.01 -385.38 640.58 -383.03 642.11 C-382.34 642.56 -381.65 643.02 -380.95 643.48 C-369.24 651.04 -355.7 656.53 -341.84 658.3 C-338.45 659.19 -335.15 660.19 -331.84 661.36 C-328.84 662.4 -328.84 662.4 -325.59 662.68 C-321.5 663.36 -318.13 664.66 -314.33 666.27 C-312.1 667.19 -309.87 667.97 -307.59 668.74 C-303.6 670.19 -301.01 672.51 -297.84 675.3 C-297.18 675.3 -296.52 675.3 -295.84 675.3 C-295.15 676.62 -294.49 677.96 -293.84 679.3 C-293.1 680.75 -293.1 680.75 -292.34 682.24 C-287.24 694.36 -288.53 706.94 -292.48 719.11 C-295.71 726.68 -300.87 732.12 -307.84 736.3 C-307.84 736.96 -307.84 737.62 -307.84 738.3 C-308.36 738.4 -308.87 738.51 -309.4 738.61 C-312 739.26 -312 739.26 -314.82 740.81 C-319.63 742.88 -324.36 742.83 -329.53 742.8 C-330.5 742.8 -331.47 742.8 -332.48 742.79 C-340.27 742.62 -346.03 741.22 -352.84 737.3 C-354.17 736.63 -355.5 735.96 -356.84 735.3 C-356.84 734.64 -356.84 733.98 -356.84 733.3 C-357.5 733.3 -358.16 733.3 -358.84 733.3 C-358.84 732.64 -358.84 731.98 -358.84 731.3 C-360.17 729.63 -360.17 729.63 -361.84 728.3 C-362.5 728.3 -363.16 728.3 -363.84 728.3 C-364.27 727.16 -364.27 727.16 -364.71 725.99 C-365.8 723.15 -365.8 723.15 -367.84 720.3 C-369.95 714.98 -370.99 709.81 -371.34 704.11 C-371.74 697.74 -373.28 693.64 -376.84 688.3 C-377.5 688.3 -378.16 688.3 -378.84 688.3 C-378.84 687.64 -378.84 686.98 -378.84 686.3 C-384.27 682.42 -389.27 681.96 -395.84 682.3 C-401.31 683.64 -405.92 685.69 -409.33 690.33 C-416.05 702.01 -412.73 714.81 -409.46 727.12 C-407.3 734.49 -403.91 740.84 -399.84 747.3 C-398.95 748.73 -398.95 748.73 -398.05 750.2 C-394.33 755.87 -390.13 760.09 -384.84 764.3 C-383.71 765.27 -383.71 765.27 -382.57 766.26 C-367 779.41 -350.42 784.68 -330.34 784.55 C-329.18 784.56 -328.02 784.57 -326.83 784.57 C-318.28 784.55 -309.83 784.12 -302.03 780.3 C-299.83 779.25 -297.68 778.24 -295.4 777.37 C-284.14 772.67 -273.2 763.98 -265.84 754.3 C-265.84 753.64 -265.84 752.98 -265.84 752.3 C-265.18 752.3 -264.52 752.3 -263.84 752.3 C-254.41 736.21 -248.29 722.63 -248.45 703.6 C-248.46 701.37 -248.45 699.14 -248.43 696.9 C-248.4 678.83 -253.93 665.17 -263.84 650.3 C-264.5 650.3 -265.16 650.3 -265.84 650.3 C-266.1 649.71 -266.36 649.11 -266.62 648.5 C-267.94 646.12 -269.27 644.79 -271.34 643.05 C-271.95 642.53 -272.56 642.01 -273.18 641.47 C-274.77 640.11 -274.77 640.11 -276.84 640.3 C-276.84 639.64 -276.84 638.98 -276.84 638.3 C-277.61 637.91 -278.39 637.53 -279.18 637.13 C-280.23 636.61 -281.27 636.09 -282.34 635.55 C-283.45 635 -284.55 634.45 -285.7 633.88 C-287.44 633.01 -289.18 632.12 -290.89 631.19 C-300.88 625.8 -311.97 623.15 -322.99 620.82 C-352.45 614.52 -352.45 614.52 -361.84 606.3 C-362.5 606.3 -363.16 606.3 -363.84 606.3 C-365.26 603.5 -366.61 600.67 -367.9 597.8 C-368.24 597.05 -368.59 596.3 -368.94 595.52 C-372.84 585.93 -372.27 571.85 -368.77 562.25 C-367.39 559.37 -365.71 556.89 -363.84 554.3 C-363.84 553.64 -363.84 552.98 -363.84 552.3 C-363.18 552.3 -362.52 552.3 -361.84 552.3 C-360.17 550.97 -360.17 550.97 -358.84 549.3 C-358.84 548.64 -358.84 547.98 -358.84 547.3 C-358.26 547.02 -357.68 546.74 -357.09 546.46 C-354.24 544.99 -351.61 543.27 -348.94 541.52 C-342.82 537.97 -337.45 537.93 -330.53 537.93 C-329.52 537.9 -328.51 537.88 -327.47 537.85 C-320.73 537.83 -316.68 538.96 -310.84 542.3 C-309.85 542.3 -308.86 542.3 -307.84 542.3 C-307.84 542.96 -307.84 543.62 -307.84 544.3 C-307.01 544.8 -306.19 545.29 -305.34 545.8 C-297.79 550.59 -292.43 559.05 -290.26 567.57 C-289.27 572.05 -288.78 576.34 -288.59 580.93 C-288.07 587.59 -284.9 591.64 -279.96 595.93 C-275.42 598.86 -269.64 599.72 -264.33 598.93 C-258.33 597.13 -254.25 594.15 -250.2 589.36 C-248.07 584.57 -248.41 579.86 -248.46 574.68 C-248.45 573.13 -248.45 573.13 -248.43 571.55 C-248.47 561.12 -250.92 552.24 -255.78 543.05 C-256.11 542.4 -256.45 541.74 -256.79 541.07 C-259.02 536.74 -261.4 532.51 -263.84 528.3 C-264.5 528.3 -265.16 528.3 -265.84 528.3 C-266.07 527.76 -266.29 527.23 -266.53 526.68 C-269.66 521.01 -274.03 517.05 -279.15 513.24 C-279.73 512.81 -280.3 512.37 -280.9 511.93 C-282.54 510.71 -284.19 509.5 -285.84 508.3 C-286.57 507.77 -287.29 507.24 -288.04 506.69 C-292.82 503.45 -297.9 501.78 -303.4 500.1 C-305.84 499.3 -305.84 499.3 -306.84 498.3 C-314.58 496.05 -322.34 496 -330.34 496.05 C-331.5 496.04 -332.66 496.04 -333.85 496.03 C-354.08 496.07 -373.17 504.18 -387.84 518.3 Z M-110.53 502.93 C-115.16 509.12 -118.05 516.49 -120.75 523.68 C-121.66 525.88 -122.65 527.95 -123.72 530.07 C-125.85 534.27 -127.76 538.55 -129.65 542.86 C-134.38 553.56 -139.23 564.18 -144.53 574.61 C-146.88 579.28 -148.95 583.93 -150.81 588.81 C-152.45 592.77 -154.45 596.55 -156.4 600.36 C-157.68 602.98 -158.79 605.58 -159.84 608.3 C-161.71 613.16 -164.04 617.73 -166.4 622.36 C-167.68 624.98 -168.79 627.58 -169.84 630.3 C-171.71 635.16 -174.04 639.73 -176.4 644.36 C-177.68 646.98 -178.79 649.58 -179.84 652.3 C-181.71 657.16 -184.04 661.73 -186.4 666.36 C-187.68 668.98 -188.79 671.58 -189.84 674.3 C-191.71 679.16 -194.04 683.73 -196.4 688.36 C-197.68 690.98 -198.79 693.58 -199.84 696.3 C-201.3 700.09 -202.99 703.68 -204.84 707.3 C-208.29 714.08 -211.5 720.77 -212.84 728.3 C-213.5 728.3 -214.16 728.3 -214.84 728.3 C-215.15 729.12 -215.15 729.12 -215.47 729.96 C-218.79 738.51 -222.39 747.38 -227.02 755.32 C-229.07 760.27 -228.5 766.09 -227.84 771.3 C-225.22 777.4 -220.66 780.5 -214.84 783.3 C-214.18 783.63 -213.52 783.96 -212.84 784.3 C-205.06 785.03 -200.34 783.64 -193.84 779.3 C-193.84 778.64 -193.84 777.98 -193.84 777.3 C-193.18 777.3 -192.52 777.3 -191.84 777.3 C-185.84 766.42 -185.84 766.42 -180.9 755.04 C-179.47 751.35 -177.91 747.73 -176.34 744.11 C-176.05 743.45 -175.77 742.78 -175.48 742.1 C-174.05 738.82 -172.54 735.69 -170.74 732.61 C-169.2 729.93 -168.02 727.49 -166.96 724.61 C-164.99 719.48 -162.55 714.65 -160.01 709.77 C-158.7 707.46 -158.7 707.46 -158.84 705.3 C-116.6 705.3 -74.36 705.3 -30.84 705.3 C-29.85 708.27 -28.86 711.24 -27.84 714.3 C-26.83 716.47 -25.77 718.62 -24.65 720.74 C-21.86 726.16 -19.29 731.65 -16.84 737.24 C-10.88 750.78 -4.52 764.09 2.16 777.3 C2.82 777.3 3.48 777.3 4.16 777.3 C4.49 778.29 4.82 779.28 5.16 780.3 C9.93 784.12 15.44 785.06 21.41 784.81 C27.74 783.64 32.44 779.75 36.22 774.68 C39.09 769.39 39.17 764.14 38.16 758.3 C36.52 753.77 34.35 749.59 32.16 745.3 C31.16 743.02 30.18 740.73 29.22 738.43 C26.32 731.6 23.22 724.89 20.05 718.19 C18.58 715.07 17.12 711.93 15.66 708.8 C13.89 705 12.12 701.21 10.34 697.41 C6.9 690.06 3.5 682.69 0.16 675.3 C-0.67 673.47 -1.51 671.63 -2.34 669.8 C-32.34 603.8 -32.34 603.8 -33.6 601.03 C-34.4 599.26 -35.21 597.49 -36.02 595.73 C-38.47 590.36 -40.86 584.96 -43.21 579.55 C-45.77 573.68 -48.42 567.87 -51.15 562.08 C-53.44 557.21 -55.61 552.29 -57.78 547.36 C-60.69 540.73 -63.82 534.24 -67.12 527.79 C-68.92 524.22 -70.55 520.67 -71.96 516.93 C-75.17 508.56 -79.12 501.57 -87.03 497.05 C-96.2 494.6 -103.76 496.31 -110.53 502.93 Z M61.39 505.13 C57.79 511.5 57.87 518.59 57.91 525.69 C57.9 526.71 57.9 527.74 57.9 528.79 C57.89 532.2 57.9 535.61 57.9 539.02 C57.9 541.46 57.9 543.91 57.89 546.36 C57.88 552.32 57.88 558.27 57.89 564.23 C57.89 569.07 57.89 573.91 57.89 578.75 C57.89 579.45 57.89 580.14 57.89 580.85 C57.89 582.25 57.89 583.65 57.89 585.05 C57.88 598.19 57.89 611.33 57.9 624.47 C57.91 635.73 57.91 646.99 57.9 658.25 C57.89 671.34 57.88 684.43 57.89 697.52 C57.89 698.92 57.89 700.32 57.89 701.71 C57.89 702.4 57.89 703.09 57.89 703.8 C57.9 708.63 57.89 713.46 57.89 718.29 C57.88 724.81 57.89 731.32 57.9 737.83 C57.9 740.22 57.9 742.6 57.89 744.99 C57.89 748.26 57.9 751.52 57.91 754.78 C57.9 755.72 57.9 756.66 57.89 757.63 C57.93 763.47 58.71 768.64 60.16 774.3 C60.82 774.3 61.48 774.3 62.16 774.3 C62.16 775.29 62.16 776.28 62.16 777.3 C67.28 782.18 71.57 784.54 78.79 784.57 C79.92 784.58 81.04 784.59 82.2 784.59 C83.42 784.59 84.64 784.59 85.9 784.59 C87.84 784.6 87.84 784.6 89.83 784.61 C93.37 784.63 96.92 784.63 100.46 784.64 C102.68 784.64 104.9 784.64 107.12 784.65 C114.86 784.66 122.6 784.67 130.35 784.67 C137.56 784.67 144.76 784.69 151.97 784.72 C158.17 784.75 164.36 784.76 170.56 784.76 C174.26 784.76 177.95 784.76 181.65 784.78 C185.78 784.81 189.9 784.8 194.03 784.79 C195.25 784.8 196.46 784.81 197.72 784.82 C204.63 784.77 209.35 784.17 215.16 780.3 C215.49 779.31 215.82 778.32 216.16 777.3 C216.82 777.3 217.48 777.3 218.16 777.3 C222.08 772.75 222.15 767.06 222.16 761.3 C221.22 755.55 219.14 752.38 215.16 748.3 C214.5 748.3 213.84 748.3 213.16 748.3 C213.16 747.64 213.16 746.98 213.16 746.3 C206.48 743.6 200.67 742.88 193.5 742.96 C192.47 742.96 191.45 742.96 190.39 742.96 C187.03 742.96 183.67 742.98 180.31 743.01 C177.97 743.01 175.63 743.02 173.29 743.02 C167.15 743.03 161.01 743.06 154.87 743.09 C148.59 743.13 142.32 743.14 136.04 743.15 C123.75 743.19 111.46 743.24 99.16 743.3 C99.16 742.11 99.16 740.91 99.15 739.68 C99.1 711.31 99.02 682.93 98.93 654.56 C98.92 651.07 98.91 647.57 98.9 644.08 C98.9 643.39 98.89 642.69 98.89 641.98 C98.86 630.72 98.83 619.46 98.81 608.2 C98.79 596.65 98.75 585.1 98.71 573.55 C98.69 567.06 98.67 560.57 98.66 554.09 C98.66 547.98 98.64 541.88 98.61 535.77 C98.6 533.53 98.59 531.29 98.6 529.04 C98.6 525.99 98.58 522.93 98.56 519.87 C98.56 518.98 98.57 518.09 98.57 517.17 C98.51 511.31 97.58 506.98 93.51 502.47 C87.99 497.93 83.77 495.79 76.5 495.99 C70.02 496.85 65.62 500.36 61.39 505.13 Z M245.16 504.3 C241.6 509.71 241.74 514.6 241.78 520.85 C241.77 522.45 241.77 522.45 241.77 524.07 C241.75 527.63 241.76 531.19 241.77 534.75 C241.77 537.31 241.76 539.86 241.76 542.41 C241.74 548.63 241.75 554.84 241.75 561.05 C241.76 566.1 241.76 571.15 241.76 576.2 C241.76 576.92 241.76 577.64 241.76 578.38 C241.76 579.84 241.76 581.3 241.75 582.76 C241.75 596.46 241.76 610.15 241.77 623.85 C241.79 635.6 241.78 647.35 241.77 659.09 C241.75 672.74 241.75 686.39 241.76 700.03 C241.76 701.49 241.76 702.94 241.76 704.4 C241.76 705.11 241.76 705.83 241.76 706.57 C241.76 711.61 241.76 716.66 241.75 721.7 C241.74 728.49 241.75 735.28 241.77 742.07 C241.77 744.56 241.77 747.05 241.76 749.55 C241.75 752.95 241.76 756.35 241.78 759.75 C241.77 760.74 241.77 761.73 241.76 762.75 C241.8 768.04 242.25 771.69 245.16 776.3 C245.82 776.3 246.48 776.3 247.16 776.3 C247.66 777.79 247.66 777.79 248.16 779.3 C249.72 780.49 249.72 780.49 251.6 781.43 C252.22 781.76 252.83 782.09 253.47 782.43 C257.04 784.26 259.27 784.43 263.35 784.45 C263.99 784.45 264.63 784.46 265.29 784.46 C267.45 784.47 269.61 784.47 271.76 784.48 C273.31 784.48 274.85 784.49 276.4 784.5 C280.6 784.52 284.8 784.53 289 784.53 C291.63 784.54 294.26 784.55 296.88 784.55 C305.1 784.57 313.32 784.58 321.54 784.59 C331.02 784.6 340.51 784.63 349.99 784.67 C357.32 784.7 364.65 784.71 371.98 784.72 C376.36 784.72 380.74 784.73 385.11 784.75 C389.24 784.78 393.36 784.78 397.48 784.77 C398.99 784.77 400.5 784.78 402.01 784.79 C410.94 784.87 418.35 784.89 425.18 778.37 C428.73 773.26 431.37 769.25 430.91 762.8 C430.21 759.52 429.31 756.45 428.16 753.3 C427.5 753.3 426.84 753.3 426.16 753.3 C425.89 752.66 425.62 752.02 425.35 751.36 C424.27 748.97 424.27 748.97 421.16 748.3 C421.16 747.64 421.16 746.98 421.16 746.3 C413.71 743.33 407.27 742.86 399.3 742.87 C398.04 742.86 396.78 742.85 395.48 742.84 C392.05 742.81 388.63 742.8 385.2 742.79 C381.61 742.79 378.02 742.76 374.42 742.73 C367.64 742.69 360.85 742.66 354.06 742.64 C346.32 742.61 338.59 742.57 330.86 742.52 C314.96 742.43 299.06 742.36 283.16 742.3 C283.14 732.04 283.12 721.77 283.11 711.5 C283.1 706.74 283.1 701.97 283.08 697.2 C283.07 692.61 283.07 688.01 283.07 683.41 C283.06 681.66 283.06 679.9 283.05 678.14 C283.05 675.69 283.05 673.23 283.05 670.78 C283.04 670.05 283.04 669.32 283.04 668.56 C283.05 663.53 283.05 663.53 284.16 661.3 C284.82 661.3 285.49 661.29 286.17 661.29 C302.35 661.21 318.52 661.12 334.7 661.01 C342.52 660.96 350.34 660.92 358.17 660.88 C364.98 660.85 371.8 660.81 378.62 660.76 C382.23 660.73 385.84 660.71 389.45 660.7 C393.48 660.68 397.51 660.65 401.55 660.62 C403.34 660.62 403.34 660.62 405.16 660.61 C413.32 660.53 419.74 659.76 426.16 654.3 C429.41 649.49 432.09 644.3 431.64 638.38 C430.05 631.51 426.89 626.04 421 622.14 C417.03 620.33 412.93 620.17 408.62 620.14 C407.52 620.13 406.42 620.12 405.29 620.11 C404.09 620.11 402.89 620.1 401.66 620.1 C400.39 620.09 399.12 620.08 397.81 620.07 C394.34 620.04 390.87 620.02 387.4 620 C383.77 619.98 380.14 619.95 376.51 619.92 C369.64 619.87 362.77 619.83 355.9 619.78 C348.08 619.73 340.25 619.68 332.43 619.62 C316.34 619.51 300.25 619.4 284.16 619.3 C282.65 616.27 283.03 613.14 283.05 609.82 C283.05 609.05 283.05 608.28 283.05 607.49 C283.05 604.93 283.05 602.38 283.06 599.82 C283.06 598.06 283.07 596.29 283.07 594.52 C283.07 589.86 283.08 585.2 283.09 580.54 C283.1 575.79 283.11 571.04 283.11 566.29 C283.12 556.96 283.14 547.63 283.16 538.3 C283.82 538.3 284.47 538.3 285.15 538.29 C301.15 538.23 317.15 538.16 333.15 538.07 C340.89 538.02 348.63 537.98 356.37 537.95 C363.11 537.93 369.86 537.9 376.61 537.85 C380.18 537.83 383.75 537.81 387.32 537.8 C391.31 537.8 395.3 537.77 399.3 537.73 C401.06 537.74 401.06 537.74 402.85 537.74 C409.59 537.66 414.89 536.8 421.16 534.3 C421.16 533.64 421.16 532.98 421.16 532.3 C421.8 532.03 422.44 531.76 423.1 531.49 C425.49 530.41 425.49 530.41 426.16 527.3 C426.82 527.3 427.48 527.3 428.16 527.3 C430.73 521.55 431.93 517.45 430.16 511.3 C428.48 507.06 426.68 503.3 423.16 500.3 C422.5 500.3 421.84 500.3 421.16 500.3 C421.16 499.64 421.16 498.98 421.16 498.3 C417.16 496.41 413.97 496.05 409.56 496.04 C408.91 496.04 408.26 496.03 407.6 496.03 C405.43 496.02 403.26 496.02 401.09 496.03 C399.53 496.02 397.98 496.02 396.42 496.01 C392.19 496 387.97 496 383.74 496 C380.22 496 376.69 496 373.16 495.99 C364.83 495.98 356.51 495.98 348.18 495.99 C339.59 495.99 331.01 495.98 322.42 495.96 C315.05 495.94 307.67 495.93 300.3 495.94 C295.89 495.94 291.49 495.94 287.09 495.92 C282.95 495.91 278.81 495.91 274.67 495.92 C273.15 495.93 271.63 495.92 270.11 495.92 C268.03 495.91 265.96 495.91 263.88 495.93 C262.72 495.93 261.56 495.93 260.37 495.93 C254.12 496.66 249.62 500.03 245.16 504.3 Z " fill="#000000" transform="translate(630.83984375,-0.30078125)"/>
<path d="M0 0 C5.49 2.74 7.77 12.87 9.9 18.37 C11.13 21.32 12.54 24.15 14 27 C16.25 31.41 18.16 35.82 19.94 40.44 C21.15 43.37 22.56 46.17 24 49 C26.25 53.41 28.16 57.82 29.94 62.44 C31.59 66.42 33.59 70.2 35.55 74.04 C37.28 77.56 38.72 81.15 40.12 84.82 C41.05 87.24 41.05 87.24 42.81 90.31 C44.21 93.47 43.8 94.73 43 98 C31.8 98.02 20.61 98.04 9.41 98.05 C4.21 98.06 -0.98 98.06 -6.18 98.08 C-11.19 98.09 -16.21 98.09 -21.22 98.09 C-23.13 98.1 -25.05 98.1 -26.97 98.11 C-29.64 98.11 -32.32 98.11 -34.99 98.11 C-35.79 98.12 -36.59 98.12 -37.42 98.12 C-42.89 98.11 -42.89 98.11 -44 97 C-44.61 92.83 -43.29 90.5 -41.13 87 C-39.9 84.82 -39.02 82.65 -38.12 80.31 C-36.62 76.41 -34.9 72.72 -33 69 C-30.78 64.64 -28.87 60.29 -27.11 55.73 C-25.5 51.78 -23.67 47.95 -21.85 44.1 C-19.46 39.04 -17.19 33.93 -14.94 28.81 C-11.83 21.76 -8.52 14.85 -5 8 C-4.49 6.94 -3.98 5.89 -3.46 4.8 C-2 2 -2 2 0 0 Z " fill="#000000" transform="translate(536,567)"/>
</svg>
